# exported by ae3d_export.py v3
# object: Street_BlockR1_Lit
mtllib Street_BlockR1_Lit.mtl
v -3.135000 9.860000 0.225000
v -3.135000 11.330000 0.225000
v -2.065000 9.860000 0.225000
v -2.065000 11.330000 0.225000
v -0.535000 6.710000 0.225000
v -0.535000 8.180000 0.225000
v 0.535000 6.710000 0.225000
v 0.535000 8.180000 0.225000
v 2.065000 0.410000 0.225000
v 2.065000 1.880000 0.225000
v 2.065000 3.560000 0.225000
v 2.065000 5.030000 0.225000
v 2.065000 6.710000 0.225000
v 2.065000 8.180000 0.225000
v 2.065000 9.860000 0.225000
v 2.065000 11.330000 0.225000
v 3.135000 0.410000 0.225000
v 3.135000 1.880000 0.225000
v 3.135000 3.560000 0.225000
v 3.135000 5.030000 0.225000
v 3.135000 6.710000 0.225000
v 3.135000 8.180000 0.225000
v 3.135000 9.860000 0.225000
v 3.135000 11.330000 0.225000
vt 0.000000 0.000000
vt 0.000000 1.000000
vt 1.000000 0.000000
vt 1.000000 1.000000
vn 0.000000 0.000000 -1.000000
usemtl WindowLit
f 1/1/1 2/2/1 4/4/1
f 1/1/1 4/4/1 3/3/1
f 5/1/1 6/2/1 8/4/1
f 5/1/1 8/4/1 7/3/1
f 9/1/1 10/2/1 18/4/1
f 9/1/1 18/4/1 17/3/1
f 11/1/1 12/2/1 20/4/1
f 11/1/1 20/4/1 19/3/1
f 13/1/1 14/2/1 22/4/1
f 13/1/1 22/4/1 21/3/1
f 15/1/1 16/2/1 24/4/1
f 15/1/1 24/4/1 23/3/1
