# exported by ae3d_export.py v3
# object: Street_BlockR4_Glass
mtllib Street_BlockR4_Glass.mtl
v -5.735000 0.320000 0.225000
v -5.735000 1.790000 0.225000
v -5.735000 3.470000 0.225000
v -5.735000 4.940000 0.225000
v -5.735000 6.620000 0.225000
v -5.735000 8.090000 0.225000
v -4.665000 0.320000 0.225000
v -4.665000 1.790000 0.225000
v -4.665000 3.470000 0.225000
v -4.665000 4.940000 0.225000
v -4.665000 6.620000 0.225000
v -4.665000 8.090000 0.225000
v -3.135000 0.320000 0.225000
v -3.135000 1.790000 0.225000
v -3.135000 3.470000 0.225000
v -3.135000 4.940000 0.225000
v -3.135000 6.620000 0.225000
v -3.135000 8.090000 0.225000
v -2.065000 0.320000 0.225000
v -2.065000 1.790000 0.225000
v -2.065000 3.470000 0.225000
v -2.065000 4.940000 0.225000
v -2.065000 6.620000 0.225000
v -2.065000 8.090000 0.225000
v -0.635000 -0.610000 0.225000
v -0.635000 1.740000 0.225000
v -0.535000 3.470000 0.225000
v -0.535000 4.940000 0.225000
v -0.535000 6.620000 0.225000
v -0.535000 8.090000 0.225000
v -0.535000 9.770000 0.225000
v -0.535000 11.240000 0.225000
v 0.535000 3.470000 0.225000
v 0.535000 4.940000 0.225000
v 0.535000 6.620000 0.225000
v 0.535000 8.090000 0.225000
v 0.535000 9.770000 0.225000
v 0.535000 11.240000 0.225000
v 0.635000 -0.610000 0.225000
v 0.635000 1.740000 0.225000
v 2.065000 3.470000 0.225000
v 2.065000 4.940000 0.225000
v 2.065000 6.620000 0.225000
v 2.065000 8.090000 0.225000
v 2.065000 9.770000 0.225000
v 2.065000 11.240000 0.225000
v 3.135000 3.470000 0.225000
v 3.135000 4.940000 0.225000
v 3.135000 6.620000 0.225000
v 3.135000 8.090000 0.225000
v 3.135000 9.770000 0.225000
v 3.135000 11.240000 0.225000
v 4.665000 6.620000 0.225000
v 4.665000 8.090000 0.225000
v 4.665000 9.770000 0.225000
v 4.665000 11.240000 0.225000
v 5.735000 6.620000 0.225000
v 5.735000 8.090000 0.225000
v 5.735000 9.770000 0.225000
v 5.735000 11.240000 0.225000
vt 0.000000 0.000000
vt 0.000000 1.000000
vt 1.000000 0.000000
vt 1.000000 1.000000
vn 0.000000 0.000000 -1.000000
usemtl WindowGlass
f 1/1/1 2/2/1 8/4/1
f 1/1/1 8/4/1 7/3/1
f 3/1/1 4/2/1 10/4/1
f 3/1/1 10/4/1 9/3/1
f 5/1/1 6/2/1 12/4/1
f 5/1/1 12/4/1 11/3/1
f 13/1/1 14/2/1 20/4/1
f 13/1/1 20/4/1 19/3/1
f 15/1/1 16/2/1 22/4/1
f 15/1/1 22/4/1 21/3/1
f 17/1/1 18/2/1 24/4/1
f 17/1/1 24/4/1 23/3/1
f 25/1/1 26/2/1 40/4/1
f 25/1/1 40/4/1 39/3/1
f 27/1/1 28/2/1 34/4/1
f 27/1/1 34/4/1 33/3/1
f 29/1/1 30/2/1 36/4/1
f 29/1/1 36/4/1 35/3/1
f 31/1/1 32/2/1 38/4/1
f 31/1/1 38/4/1 37/3/1
f 41/1/1 42/2/1 48/4/1
f 41/1/1 48/4/1 47/3/1
f 43/1/1 44/2/1 50/4/1
f 43/1/1 50/4/1 49/3/1
f 45/1/1 46/2/1 52/4/1
f 45/1/1 52/4/1 51/3/1
f 53/1/1 54/2/1 58/4/1
f 53/1/1 58/4/1 57/3/1
f 55/1/1 56/2/1 60/4/1
f 55/1/1 60/4/1 59/3/1
