# exported by ae3d_export.py v3
# object: Street_BlockR0_Glass
mtllib Street_BlockR0_Glass.mtl
v -5.735000 0.440000 0.225000
v -5.735000 1.910000 0.225000
v -5.735000 3.590000 0.225000
v -5.735000 5.060000 0.225000
v -4.665000 0.440000 0.225000
v -4.665000 1.910000 0.225000
v -4.665000 3.590000 0.225000
v -4.665000 5.060000 0.225000
v -3.135000 0.440000 0.225000
v -3.135000 1.910000 0.225000
v -3.135000 3.590000 0.225000
v -3.135000 5.060000 0.225000
v -3.135000 6.740000 0.225000
v -3.135000 8.210000 0.225000
v -2.065000 0.440000 0.225000
v -2.065000 1.910000 0.225000
v -2.065000 3.590000 0.225000
v -2.065000 5.060000 0.225000
v -2.065000 6.740000 0.225000
v -2.065000 8.210000 0.225000
v -0.635000 -0.490000 0.225000
v -0.635000 1.860000 0.225000
v -0.535000 3.590000 0.225000
v -0.535000 5.060000 0.225000
v 0.535000 3.590000 0.225000
v 0.535000 5.060000 0.225000
v 0.635000 -0.490000 0.225000
v 0.635000 1.860000 0.225000
v 2.065000 0.440000 0.225000
v 2.065000 1.910000 0.225000
v 2.065000 3.590000 0.225000
v 2.065000 5.060000 0.225000
v 3.135000 0.440000 0.225000
v 3.135000 1.910000 0.225000
v 3.135000 3.590000 0.225000
v 3.135000 5.060000 0.225000
v 4.665000 0.440000 0.225000
v 4.665000 1.910000 0.225000
v 4.665000 6.740000 0.225000
v 4.665000 8.210000 0.225000
v 5.735000 0.440000 0.225000
v 5.735000 1.910000 0.225000
v 5.735000 6.740000 0.225000
v 5.735000 8.210000 0.225000
vt 0.000000 0.000000
vt 0.000000 1.000000
vt 1.000000 0.000000
vt 1.000000 1.000000
vn 0.000000 0.000000 -1.000000
usemtl WindowGlass
f 1/1/1 2/2/1 6/4/1
f 1/1/1 6/4/1 5/3/1
f 3/1/1 4/2/1 8/4/1
f 3/1/1 8/4/1 7/3/1
f 9/1/1 10/2/1 16/4/1
f 9/1/1 16/4/1 15/3/1
f 11/1/1 12/2/1 18/4/1
f 11/1/1 18/4/1 17/3/1
f 13/1/1 14/2/1 20/4/1
f 13/1/1 20/4/1 19/3/1
f 21/1/1 22/2/1 28/4/1
f 21/1/1 28/4/1 27/3/1
f 23/1/1 24/2/1 26/4/1
f 23/1/1 26/4/1 25/3/1
f 29/1/1 30/2/1 34/4/1
f 29/1/1 34/4/1 33/3/1
f 31/1/1 32/2/1 36/4/1
f 31/1/1 36/4/1 35/3/1
f 37/1/1 38/2/1 42/4/1
f 37/1/1 42/4/1 41/3/1
f 39/1/1 40/2/1 44/4/1
f 39/1/1 44/4/1 43/3/1
