# exported by ae3d_export.py v3
# object: Street_BlockL0_Lit
mtllib Street_BlockL0_Lit.mtl
v -4.735000 3.740000 -0.225000
v -4.735000 5.210000 -0.225000
v -3.665000 3.740000 -0.225000
v -3.665000 5.210000 -0.225000
v -1.935000 3.740000 -0.225000
v -1.935000 5.210000 -0.225000
v -1.935000 6.890000 -0.225000
v -1.935000 8.360000 -0.225000
v -0.865000 3.740000 -0.225000
v -0.865000 5.210000 -0.225000
v -0.865000 6.890000 -0.225000
v -0.865000 8.360000 -0.225000
v 0.865000 3.740000 -0.225000
v 0.865000 5.210000 -0.225000
v 0.865000 6.890000 -0.225000
v 0.865000 8.360000 -0.225000
v 1.935000 3.740000 -0.225000
v 1.935000 5.210000 -0.225000
v 1.935000 6.890000 -0.225000
v 1.935000 8.360000 -0.225000
v 3.665000 6.890000 -0.225000
v 3.665000 8.360000 -0.225000
v 4.735000 6.890000 -0.225000
v 4.735000 8.360000 -0.225000
vt 0.000000 0.000000
vt 0.000000 1.000000
vt 1.000000 0.000000
vt 1.000000 1.000000
vn 0.000000 0.000000 1.000000
usemtl WindowLit
f 1/1/1 3/3/1 4/4/1
f 1/1/1 4/4/1 2/2/1
f 5/1/1 9/3/1 10/4/1
f 5/1/1 10/4/1 6/2/1
f 7/1/1 11/3/1 12/4/1
f 7/1/1 12/4/1 8/2/1
f 13/1/1 17/3/1 18/4/1
f 13/1/1 18/4/1 14/2/1
f 15/1/1 19/3/1 20/4/1
f 15/1/1 20/4/1 16/2/1
f 21/1/1 23/3/1 24/4/1
f 21/1/1 24/4/1 22/2/1
