# exported by ae3d_export.py v3
# object: Street_BlockL3_Glass
mtllib Street_BlockL3_Glass.mtl
v -4.735000 3.650000 -0.225000
v -4.735000 5.120000 -0.225000
v -4.735000 6.800000 -0.225000
v -4.735000 8.270000 -0.225000
v -3.665000 3.650000 -0.225000
v -3.665000 5.120000 -0.225000
v -3.665000 6.800000 -0.225000
v -3.665000 8.270000 -0.225000
v -1.935000 0.500000 -0.225000
v -1.935000 1.970000 -0.225000
v -1.935000 3.650000 -0.225000
v -1.935000 5.120000 -0.225000
v -1.935000 6.800000 -0.225000
v -1.935000 8.270000 -0.225000
v -0.865000 0.500000 -0.225000
v -0.865000 1.970000 -0.225000
v -0.865000 3.650000 -0.225000
v -0.865000 5.120000 -0.225000
v -0.865000 6.800000 -0.225000
v -0.865000 8.270000 -0.225000
v 0.765000 -0.430000 -0.225000
v 0.765000 1.920000 -0.225000
v 0.865000 3.650000 -0.225000
v 0.865000 5.120000 -0.225000
v 0.865000 6.800000 -0.225000
v 0.865000 8.270000 -0.225000
v 1.935000 3.650000 -0.225000
v 1.935000 5.120000 -0.225000
v 1.935000 6.800000 -0.225000
v 1.935000 8.270000 -0.225000
v 2.035000 -0.430000 -0.225000
v 2.035000 1.920000 -0.225000
v 3.665000 6.800000 -0.225000
v 3.665000 8.270000 -0.225000
v 4.735000 6.800000 -0.225000
v 4.735000 8.270000 -0.225000
vt 0.000000 0.000000
vt 0.000000 1.000000
vt 1.000000 0.000000
vt 1.000000 1.000000
vn 0.000000 0.000000 1.000000
usemtl WindowGlass
f 1/1/1 5/3/1 6/4/1
f 1/1/1 6/4/1 2/2/1
f 3/1/1 7/3/1 8/4/1
f 3/1/1 8/4/1 4/2/1
f 9/1/1 15/3/1 16/4/1
f 9/1/1 16/4/1 10/2/1
f 11/1/1 17/3/1 18/4/1
f 11/1/1 18/4/1 12/2/1
f 13/1/1 19/3/1 20/4/1
f 13/1/1 20/4/1 14/2/1
f 21/1/1 31/3/1 32/4/1
f 21/1/1 32/4/1 22/2/1
f 23/1/1 27/3/1 28/4/1
f 23/1/1 28/4/1 24/2/1
f 25/1/1 29/3/1 30/4/1
f 25/1/1 30/4/1 26/2/1
f 33/1/1 35/3/1 36/4/1
f 33/1/1 36/4/1 34/2/1
