# exported by ae3d_export.py v3
# object: Street_BlockR3_Glass
mtllib Street_BlockR3_Glass.mtl
v -5.735000 0.350000 0.225000
v -5.735000 1.820000 0.225000
v -5.735000 6.650000 0.225000
v -5.735000 8.120000 0.225000
v -4.665000 0.350000 0.225000
v -4.665000 1.820000 0.225000
v -4.665000 6.650000 0.225000
v -4.665000 8.120000 0.225000
v -3.135000 0.350000 0.225000
v -3.135000 1.820000 0.225000
v -3.135000 6.650000 0.225000
v -3.135000 8.120000 0.225000
v -2.065000 0.350000 0.225000
v -2.065000 1.820000 0.225000
v -2.065000 6.650000 0.225000
v -2.065000 8.120000 0.225000
v -0.635000 -0.580000 0.225000
v -0.635000 1.770000 0.225000
v 0.635000 -0.580000 0.225000
v 0.635000 1.770000 0.225000
v 2.065000 0.350000 0.225000
v 2.065000 1.820000 0.225000
v 3.135000 0.350000 0.225000
v 3.135000 1.820000 0.225000
v 4.665000 0.350000 0.225000
v 4.665000 1.820000 0.225000
v 4.665000 3.500000 0.225000
v 4.665000 4.970000 0.225000
v 4.665000 6.650000 0.225000
v 4.665000 8.120000 0.225000
v 5.735000 0.350000 0.225000
v 5.735000 1.820000 0.225000
v 5.735000 3.500000 0.225000
v 5.735000 4.970000 0.225000
v 5.735000 6.650000 0.225000
v 5.735000 8.120000 0.225000
vt 0.000000 0.000000
vt 0.000000 1.000000
vt 1.000000 0.000000
vt 1.000000 1.000000
vn 0.000000 0.000000 -1.000000
usemtl WindowGlass
f 1/1/1 2/2/1 6/4/1
f 1/1/1 6/4/1 5/3/1
f 3/1/1 4/2/1 8/4/1
f 3/1/1 8/4/1 7/3/1
f 9/1/1 10/2/1 14/4/1
f 9/1/1 14/4/1 13/3/1
f 11/1/1 12/2/1 16/4/1
f 11/1/1 16/4/1 15/3/1
f 17/1/1 18/2/1 20/4/1
f 17/1/1 20/4/1 19/3/1
f 21/1/1 22/2/1 24/4/1
f 21/1/1 24/4/1 23/3/1
f 25/1/1 26/2/1 32/4/1
f 25/1/1 32/4/1 31/3/1
f 27/1/1 28/2/1 34/4/1
f 27/1/1 34/4/1 33/3/1
f 29/1/1 30/2/1 36/4/1
f 29/1/1 36/4/1 35/3/1
