# exported by ae3d_export.py v3
# object: Street_BlockR4_Trim
mtllib Street_BlockR4_Trim.mtl
v -6.600000 12.580000 -0.260000
v -6.600000 12.580000 0.000000
v -6.600000 13.000000 -0.260000
v -6.600000 13.000000 0.000000
v -6.560000 -0.670000 -0.130000
v -6.560000 -0.670000 0.000000
v -6.560000 0.480000 -0.130000
v -6.560000 0.480000 0.000000
v -6.500000 2.410000 -0.049500
v -6.500000 2.410000 0.000000
v -6.500000 2.480000 -0.049500
v -6.500000 2.480000 0.000000
v -6.500000 5.560000 -0.049500
v -6.500000 5.560000 0.000000
v -6.500000 5.630000 -0.049500
v -6.500000 5.630000 0.000000
v -6.500000 8.710000 -0.049500
v -6.500000 8.710000 0.000000
v -6.500000 8.780000 -0.049500
v -6.500000 8.780000 0.000000
v -6.500000 11.860000 -0.049500
v -6.500000 11.860000 0.000000
v -6.500000 11.930000 -0.049500
v -6.500000 11.930000 0.000000
v -5.865000 0.200000 -0.090000
v -5.865000 0.200000 0.000000
v -5.865000 0.280000 -0.090000
v -5.865000 0.280000 0.000000
v -5.865000 3.350000 -0.090000
v -5.865000 3.350000 0.000000
v -5.865000 3.430000 -0.090000
v -5.865000 3.430000 0.000000
v -5.865000 6.500000 -0.090000
v -5.865000 6.500000 0.000000
v -5.865000 6.580000 -0.090000
v -5.865000 6.580000 0.000000
v -5.865000 9.650000 -0.090000
v -5.865000 9.650000 0.000000
v -5.865000 9.730000 -0.090000
v -5.865000 9.730000 0.000000
v -5.785000 0.270000 0.190000
v -5.785000 0.270000 0.235000
v -5.785000 1.840000 0.190000
v -5.785000 1.840000 0.235000
v -5.785000 3.420000 0.190000
v -5.785000 3.420000 0.235000
v -5.785000 4.990000 0.190000
v -5.785000 4.990000 0.235000
v -5.785000 6.570000 0.190000
v -5.785000 6.570000 0.235000
v -5.785000 8.140000 0.190000
v -5.785000 8.140000 0.235000
v -5.785000 9.720000 0.190000
v -5.785000 9.720000 0.235000
v -5.785000 11.290000 0.190000
v -5.785000 11.290000 0.235000
v -5.730000 0.325000 0.190000
v -5.730000 0.325000 0.235000
v -5.730000 1.785000 0.190000
v -5.730000 1.785000 0.235000
v -5.730000 3.475000 0.190000
v -5.730000 3.475000 0.235000
v -5.730000 4.935000 0.190000
v -5.730000 4.935000 0.235000
v -5.730000 6.625000 0.190000
v -5.730000 6.625000 0.235000
v -5.730000 8.085000 0.190000
v -5.730000 8.085000 0.235000
v -5.730000 9.775001 0.190000
v -5.730000 9.775001 0.235000
v -5.730000 11.235000 0.190000
v -5.730000 11.235000 0.235000
v -5.225000 0.320000 0.195000
v -5.225000 0.320000 0.225000
v -5.225000 1.790000 0.195000
v -5.225000 1.790000 0.225000
v -5.225000 3.470000 0.195000
v -5.225000 3.470000 0.225000
v -5.225000 4.940000 0.195000
v -5.225000 4.940000 0.225000
v -5.225000 6.620000 0.195000
v -5.225000 6.620000 0.225000
v -5.225000 8.090000 0.195000
v -5.225000 8.090000 0.225000
v -5.225000 9.770000 0.195000
v -5.225000 9.770000 0.225000
v -5.225000 11.240000 0.195000
v -5.225000 11.240000 0.225000
v -5.175000 0.320000 0.195000
v -5.175000 0.320000 0.225000
v -5.175000 1.790000 0.195000
v -5.175000 1.790000 0.225000
v -5.175000 3.470000 0.195000
v -5.175000 3.470000 0.225000
v -5.175000 4.940000 0.195000
v -5.175000 4.940000 0.225000
v -5.175000 6.620000 0.195000
v -5.175000 6.620000 0.225000
v -5.175000 8.090000 0.195000
v -5.175000 8.090000 0.225000
v -5.175000 9.770000 0.195000
v -5.175000 9.770000 0.225000
v -5.175000 11.240000 0.195000
v -5.175000 11.240000 0.225000
v -4.670000 0.325000 0.190000
v -4.670000 0.325000 0.235000
v -4.670000 1.785000 0.190000
v -4.670000 1.785000 0.235000
v -4.670000 3.475000 0.190000
v -4.670000 3.475000 0.235000
v -4.670000 4.935000 0.190000
v -4.670000 4.935000 0.235000
v -4.670000 6.625000 0.190000
v -4.670000 6.625000 0.235000
v -4.670000 8.085000 0.190000
v -4.670000 8.085000 0.235000
v -4.670000 9.775001 0.190000
v -4.670000 9.775001 0.235000
v -4.670000 11.235000 0.190000
v -4.670000 11.235000 0.235000
v -4.615000 0.270000 0.190000
v -4.615000 0.270000 0.235000
v -4.615000 1.840000 0.190000
v -4.615000 1.840000 0.235000
v -4.615000 3.420000 0.190000
v -4.615000 3.420000 0.235000
v -4.615000 4.990000 0.190000
v -4.615000 4.990000 0.235000
v -4.615000 6.570000 0.190000
v -4.615000 6.570000 0.235000
v -4.615000 8.140000 0.190000
v -4.615000 8.140000 0.235000
v -4.615000 9.720000 0.190000
v -4.615000 9.720000 0.235000
v -4.615000 11.290000 0.190000
v -4.615000 11.290000 0.235000
v -4.535000 0.200000 -0.090000
v -4.535000 0.200000 0.000000
v -4.535000 0.280000 -0.090000
v -4.535000 0.280000 0.000000
v -4.535000 3.350000 -0.090000
v -4.535000 3.350000 0.000000
v -4.535000 3.430000 -0.090000
v -4.535000 3.430000 0.000000
v -4.535000 6.500000 -0.090000
v -4.535000 6.500000 0.000000
v -4.535000 6.580000 -0.090000
v -4.535000 6.580000 0.000000
v -4.535000 9.650000 -0.090000
v -4.535000 9.650000 0.000000
v -4.535000 9.730000 -0.090000
v -4.535000 9.730000 0.000000
v -3.265000 0.200000 -0.090000
v -3.265000 0.200000 0.000000
v -3.265000 0.280000 -0.090000
v -3.265000 0.280000 0.000000
v -3.265000 3.350000 -0.090000
v -3.265000 3.350000 0.000000
v -3.265000 3.430000 -0.090000
v -3.265000 3.430000 0.000000
v -3.265000 6.500000 -0.090000
v -3.265000 6.500000 0.000000
v -3.265000 6.580000 -0.090000
v -3.265000 6.580000 0.000000
v -3.265000 9.650000 -0.090000
v -3.265000 9.650000 0.000000
v -3.265000 9.730000 -0.090000
v -3.265000 9.730000 0.000000
v -3.185000 0.270000 0.190000
v -3.185000 0.270000 0.235000
v -3.185000 1.840000 0.190000
v -3.185000 1.840000 0.235000
v -3.185000 3.420000 0.190000
v -3.185000 3.420000 0.235000
v -3.185000 4.990000 0.190000
v -3.185000 4.990000 0.235000
v -3.185000 6.570000 0.190000
v -3.185000 6.570000 0.235000
v -3.185000 8.140000 0.190000
v -3.185000 8.140000 0.235000
v -3.185000 9.720000 0.190000
v -3.185000 9.720000 0.235000
v -3.185000 11.290000 0.190000
v -3.185000 11.290000 0.235000
v -3.130000 0.325000 0.190000
v -3.130000 0.325000 0.235000
v -3.130000 1.785000 0.190000
v -3.130000 1.785000 0.235000
v -3.130000 3.475000 0.190000
v -3.130000 3.475000 0.235000
v -3.130000 4.935000 0.190000
v -3.130000 4.935000 0.235000
v -3.130000 6.625000 0.190000
v -3.130000 6.625000 0.235000
v -3.130000 8.085000 0.190000
v -3.130000 8.085000 0.235000
v -3.130000 9.775001 0.190000
v -3.130000 9.775001 0.235000
v -3.130000 11.235000 0.190000
v -3.130000 11.235000 0.235000
v -2.625000 0.320000 0.195000
v -2.625000 0.320000 0.225000
v -2.625000 1.790000 0.195000
v -2.625000 1.790000 0.225000
v -2.625000 3.470000 0.195000
v -2.625000 3.470000 0.225000
v -2.625000 4.940000 0.195000
v -2.625000 4.940000 0.225000
v -2.625000 6.620000 0.195000
v -2.625000 6.620000 0.225000
v -2.625000 8.090000 0.195000
v -2.625000 8.090000 0.225000
v -2.625000 9.770000 0.195000
v -2.625000 9.770000 0.225000
v -2.625000 11.240000 0.195000
v -2.625000 11.240000 0.225000
v -2.575000 0.320000 0.195000
v -2.575000 0.320000 0.225000
v -2.575000 1.790000 0.195000
v -2.575000 1.790000 0.225000
v -2.575000 3.470000 0.195000
v -2.575000 3.470000 0.225000
v -2.575000 4.940000 0.195000
v -2.575000 4.940000 0.225000
v -2.575000 6.620000 0.195000
v -2.575000 6.620000 0.225000
v -2.575000 8.090000 0.195000
v -2.575000 8.090000 0.225000
v -2.575000 9.770000 0.195000
v -2.575000 9.770000 0.225000
v -2.575000 11.240000 0.195000
v -2.575000 11.240000 0.225000
v -2.070000 0.325000 0.190000
v -2.070000 0.325000 0.235000
v -2.070000 1.785000 0.190000
v -2.070000 1.785000 0.235000
v -2.070000 3.475000 0.190000
v -2.070000 3.475000 0.235000
v -2.070000 4.935000 0.190000
v -2.070000 4.935000 0.235000
v -2.070000 6.625000 0.190000
v -2.070000 6.625000 0.235000
v -2.070000 8.085000 0.190000
v -2.070000 8.085000 0.235000
v -2.070000 9.775001 0.190000
v -2.070000 9.775001 0.235000
v -2.070000 11.235000 0.190000
v -2.070000 11.235000 0.235000
v -2.015000 0.270000 0.190000
v -2.015000 0.270000 0.235000
v -2.015000 1.840000 0.190000
v -2.015000 1.840000 0.235000
v -2.015000 3.420000 0.190000
v -2.015000 3.420000 0.235000
v -2.015000 4.990000 0.190000
v -2.015000 4.990000 0.235000
v -2.015000 6.570000 0.190000
v -2.015000 6.570000 0.235000
v -2.015000 8.140000 0.190000
v -2.015000 8.140000 0.235000
v -2.015000 9.720000 0.190000
v -2.015000 9.720000 0.235000
v -2.015000 11.290000 0.190000
v -2.015000 11.290000 0.235000
v -1.935000 0.200000 -0.090000
v -1.935000 0.200000 0.000000
v -1.935000 0.280000 -0.090000
v -1.935000 0.280000 0.000000
v -1.935000 3.350000 -0.090000
v -1.935000 3.350000 0.000000
v -1.935000 3.430000 -0.090000
v -1.935000 3.430000 0.000000
v -1.935000 6.500000 -0.090000
v -1.935000 6.500000 0.000000
v -1.935000 6.580000 -0.090000
v -1.935000 6.580000 0.000000
v -1.935000 9.650000 -0.090000
v -1.935000 9.650000 0.000000
v -1.935000 9.730000 -0.090000
v -1.935000 9.730000 0.000000
v -0.795000 -0.650000 -0.144000
v -0.795000 -0.650000 0.000000
v -0.795000 1.940000 -0.144000
v -0.795000 1.940000 0.000000
v -0.685000 -0.660000 0.190000
v -0.685000 -0.660000 0.235000
v -0.685000 1.790000 0.190000
v -0.685000 1.790000 0.235000
v -0.665000 3.350000 -0.090000
v -0.665000 3.350000 0.000000
v -0.665000 3.430000 -0.090000
v -0.665000 3.430000 0.000000
v -0.665000 6.500000 -0.090000
v -0.665000 6.500000 0.000000
v -0.665000 6.580000 -0.090000
v -0.665000 6.580000 0.000000
v -0.665000 9.650000 -0.090000
v -0.665000 9.650000 0.000000
v -0.665000 9.730000 -0.090000
v -0.665000 9.730000 0.000000
v -0.630000 -0.605000 0.190000
v -0.630000 -0.605000 0.235000
v -0.630000 1.735000 0.190000
v -0.630000 1.735000 0.235000
v -0.585000 3.420000 0.190000
v -0.585000 3.420000 0.235000
v -0.585000 4.990000 0.190000
v -0.585000 4.990000 0.235000
v -0.585000 6.570000 0.190000
v -0.585000 6.570000 0.235000
v -0.585000 8.140000 0.190000
v -0.585000 8.140000 0.235000
v -0.585000 9.720000 0.190000
v -0.585000 9.720000 0.235000
v -0.585000 11.290000 0.190000
v -0.585000 11.290000 0.235000
v -0.530000 3.475000 0.190000
v -0.530000 3.475000 0.235000
v -0.530000 4.935000 0.190000
v -0.530000 4.935000 0.235000
v -0.530000 6.625000 0.190000
v -0.530000 6.625000 0.235000
v -0.530000 8.085000 0.190000
v -0.530000 8.085000 0.235000
v -0.530000 9.775001 0.190000
v -0.530000 9.775001 0.235000
v -0.530000 11.235000 0.190000
v -0.530000 11.235000 0.235000
v -0.025000 3.470000 0.195000
v -0.025000 3.470000 0.225000
v -0.025000 4.940000 0.195000
v -0.025000 4.940000 0.225000
v -0.025000 6.620000 0.195000
v -0.025000 6.620000 0.225000
v -0.025000 8.090000 0.195000
v -0.025000 8.090000 0.225000
v -0.025000 9.770000 0.195000
v -0.025000 9.770000 0.225000
v -0.025000 11.240000 0.195000
v -0.025000 11.240000 0.225000
v 0.025000 3.470000 0.195000
v 0.025000 3.470000 0.225000
v 0.025000 4.940000 0.195000
v 0.025000 4.940000 0.225000
v 0.025000 6.620000 0.195000
v 0.025000 6.620000 0.225000
v 0.025000 8.090000 0.195000
v 0.025000 8.090000 0.225000
v 0.025000 9.770000 0.195000
v 0.025000 9.770000 0.225000
v 0.025000 11.240000 0.195000
v 0.025000 11.240000 0.225000
v 0.530000 3.475000 0.190000
v 0.530000 3.475000 0.235000
v 0.530000 4.935000 0.190000
v 0.530000 4.935000 0.235000
v 0.530000 6.625000 0.190000
v 0.530000 6.625000 0.235000
v 0.530000 8.085000 0.190000
v 0.530000 8.085000 0.235000
v 0.530000 9.775001 0.190000
v 0.530000 9.775001 0.235000
v 0.530000 11.235000 0.190000
v 0.530000 11.235000 0.235000
v 0.585000 3.420000 0.190000
v 0.585000 3.420000 0.235000
v 0.585000 4.990000 0.190000
v 0.585000 4.990000 0.235000
v 0.585000 6.570000 0.190000
v 0.585000 6.570000 0.235000
v 0.585000 8.140000 0.190000
v 0.585000 8.140000 0.235000
v 0.585000 9.720000 0.190000
v 0.585000 9.720000 0.235000
v 0.585000 11.290000 0.190000
v 0.585000 11.290000 0.235000
v 0.630000 -0.605000 0.190000
v 0.630000 -0.605000 0.235000
v 0.630000 1.735000 0.190000
v 0.630000 1.735000 0.235000
v 0.665000 3.350000 -0.090000
v 0.665000 3.350000 0.000000
v 0.665000 3.430000 -0.090000
v 0.665000 3.430000 0.000000
v 0.665000 6.500000 -0.090000
v 0.665000 6.500000 0.000000
v 0.665000 6.580000 -0.090000
v 0.665000 6.580000 0.000000
v 0.665000 9.650000 -0.090000
v 0.665000 9.650000 0.000000
v 0.665000 9.730000 -0.090000
v 0.665000 9.730000 0.000000
v 0.685000 -0.660000 0.190000
v 0.685000 -0.660000 0.235000
v 0.685000 1.790000 0.190000
v 0.685000 1.790000 0.235000
v 0.795000 -0.650000 -0.144000
v 0.795000 -0.650000 0.000000
v 0.795000 1.940000 -0.144000
v 0.795000 1.940000 0.000000
v 1.935000 0.200000 -0.090000
v 1.935000 0.200000 0.000000
v 1.935000 0.280000 -0.090000
v 1.935000 0.280000 0.000000
v 1.935000 3.350000 -0.090000
v 1.935000 3.350000 0.000000
v 1.935000 3.430000 -0.090000
v 1.935000 3.430000 0.000000
v 1.935000 6.500000 -0.090000
v 1.935000 6.500000 0.000000
v 1.935000 6.580000 -0.090000
v 1.935000 6.580000 0.000000
v 1.935000 9.650000 -0.090000
v 1.935000 9.650000 0.000000
v 1.935000 9.730000 -0.090000
v 1.935000 9.730000 0.000000
v 2.015000 0.270000 0.190000
v 2.015000 0.270000 0.235000
v 2.015000 1.840000 0.190000
v 2.015000 1.840000 0.235000
v 2.015000 3.420000 0.190000
v 2.015000 3.420000 0.235000
v 2.015000 4.990000 0.190000
v 2.015000 4.990000 0.235000
v 2.015000 6.570000 0.190000
v 2.015000 6.570000 0.235000
v 2.015000 8.140000 0.190000
v 2.015000 8.140000 0.235000
v 2.015000 9.720000 0.190000
v 2.015000 9.720000 0.235000
v 2.015000 11.290000 0.190000
v 2.015000 11.290000 0.235000
v 2.070000 0.325000 0.190000
v 2.070000 0.325000 0.235000
v 2.070000 1.785000 0.190000
v 2.070000 1.785000 0.235000
v 2.070000 3.475000 0.190000
v 2.070000 3.475000 0.235000
v 2.070000 4.935000 0.190000
v 2.070000 4.935000 0.235000
v 2.070000 6.625000 0.190000
v 2.070000 6.625000 0.235000
v 2.070000 8.085000 0.190000
v 2.070000 8.085000 0.235000
v 2.070000 9.775001 0.190000
v 2.070000 9.775001 0.235000
v 2.070000 11.235000 0.190000
v 2.070000 11.235000 0.235000
v 2.575000 0.320000 0.195000
v 2.575000 0.320000 0.225000
v 2.575000 1.790000 0.195000
v 2.575000 1.790000 0.225000
v 2.575000 3.470000 0.195000
v 2.575000 3.470000 0.225000
v 2.575000 4.940000 0.195000
v 2.575000 4.940000 0.225000
v 2.575000 6.620000 0.195000
v 2.575000 6.620000 0.225000
v 2.575000 8.090000 0.195000
v 2.575000 8.090000 0.225000
v 2.575000 9.770000 0.195000
v 2.575000 9.770000 0.225000
v 2.575000 11.240000 0.195000
v 2.575000 11.240000 0.225000
v 2.625000 0.320000 0.195000
v 2.625000 0.320000 0.225000
v 2.625000 1.790000 0.195000
v 2.625000 1.790000 0.225000
v 2.625000 3.470000 0.195000
v 2.625000 3.470000 0.225000
v 2.625000 4.940000 0.195000
v 2.625000 4.940000 0.225000
v 2.625000 6.620000 0.195000
v 2.625000 6.620000 0.225000
v 2.625000 8.090000 0.195000
v 2.625000 8.090000 0.225000
v 2.625000 9.770000 0.195000
v 2.625000 9.770000 0.225000
v 2.625000 11.240000 0.195000
v 2.625000 11.240000 0.225000
v 3.130000 0.325000 0.190000
v 3.130000 0.325000 0.235000
v 3.130000 1.785000 0.190000
v 3.130000 1.785000 0.235000
v 3.130000 3.475000 0.190000
v 3.130000 3.475000 0.235000
v 3.130000 4.935000 0.190000
v 3.130000 4.935000 0.235000
v 3.130000 6.625000 0.190000
v 3.130000 6.625000 0.235000
v 3.130000 8.085000 0.190000
v 3.130000 8.085000 0.235000
v 3.130000 9.775001 0.190000
v 3.130000 9.775001 0.235000
v 3.130000 11.235000 0.190000
v 3.130000 11.235000 0.235000
v 3.185000 0.270000 0.190000
v 3.185000 0.270000 0.235000
v 3.185000 1.840000 0.190000
v 3.185000 1.840000 0.235000
v 3.185000 3.420000 0.190000
v 3.185000 3.420000 0.235000
v 3.185000 4.990000 0.190000
v 3.185000 4.990000 0.235000
v 3.185000 6.570000 0.190000
v 3.185000 6.570000 0.235000
v 3.185000 8.140000 0.190000
v 3.185000 8.140000 0.235000
v 3.185000 9.720000 0.190000
v 3.185000 9.720000 0.235000
v 3.185000 11.290000 0.190000
v 3.185000 11.290000 0.235000
v 3.265000 0.200000 -0.090000
v 3.265000 0.200000 0.000000
v 3.265000 0.280000 -0.090000
v 3.265000 0.280000 0.000000
v 3.265000 3.350000 -0.090000
v 3.265000 3.350000 0.000000
v 3.265000 3.430000 -0.090000
v 3.265000 3.430000 0.000000
v 3.265000 6.500000 -0.090000
v 3.265000 6.500000 0.000000
v 3.265000 6.580000 -0.090000
v 3.265000 6.580000 0.000000
v 3.265000 9.650000 -0.090000
v 3.265000 9.650000 0.000000
v 3.265000 9.730000 -0.090000
v 3.265000 9.730000 0.000000
v 4.535000 0.200000 -0.090000
v 4.535000 0.200000 0.000000
v 4.535000 0.280000 -0.090000
v 4.535000 0.280000 0.000000
v 4.535000 3.350000 -0.090000
v 4.535000 3.350000 0.000000
v 4.535000 3.430000 -0.090000
v 4.535000 3.430000 0.000000
v 4.535000 6.500000 -0.090000
v 4.535000 6.500000 0.000000
v 4.535000 6.580000 -0.090000
v 4.535000 6.580000 0.000000
v 4.535000 9.650000 -0.090000
v 4.535000 9.650000 0.000000
v 4.535000 9.730000 -0.090000
v 4.535000 9.730000 0.000000
v 4.615000 0.270000 0.190000
v 4.615000 0.270000 0.235000
v 4.615000 1.840000 0.190000
v 4.615000 1.840000 0.235000
v 4.615000 3.420000 0.190000
v 4.615000 3.420000 0.235000
v 4.615000 4.990000 0.190000
v 4.615000 4.990000 0.235000
v 4.615000 6.570000 0.190000
v 4.615000 6.570000 0.235000
v 4.615000 8.140000 0.190000
v 4.615000 8.140000 0.235000
v 4.615000 9.720000 0.190000
v 4.615000 9.720000 0.235000
v 4.615000 11.290000 0.190000
v 4.615000 11.290000 0.235000
v 4.670000 0.325000 0.190000
v 4.670000 0.325000 0.235000
v 4.670000 1.785000 0.190000
v 4.670000 1.785000 0.235000
v 4.670000 3.475000 0.190000
v 4.670000 3.475000 0.235000
v 4.670000 4.935000 0.190000
v 4.670000 4.935000 0.235000
v 4.670000 6.625000 0.190000
v 4.670000 6.625000 0.235000
v 4.670000 8.085000 0.190000
v 4.670000 8.085000 0.235000
v 4.670000 9.775001 0.190000
v 4.670000 9.775001 0.235000
v 4.670000 11.235000 0.190000
v 4.670000 11.235000 0.235000
v 5.175000 0.320000 0.195000
v 5.175000 0.320000 0.225000
v 5.175000 1.790000 0.195000
v 5.175000 1.790000 0.225000
v 5.175000 3.470000 0.195000
v 5.175000 3.470000 0.225000
v 5.175000 4.940000 0.195000
v 5.175000 4.940000 0.225000
v 5.175000 6.620000 0.195000
v 5.175000 6.620000 0.225000
v 5.175000 8.090000 0.195000
v 5.175000 8.090000 0.225000
v 5.175000 9.770000 0.195000
v 5.175000 9.770000 0.225000
v 5.175000 11.240000 0.195000
v 5.175000 11.240000 0.225000
v 5.225000 0.320000 0.195000
v 5.225000 0.320000 0.225000
v 5.225000 1.790000 0.195000
v 5.225000 1.790000 0.225000
v 5.225000 3.470000 0.195000
v 5.225000 3.470000 0.225000
v 5.225000 4.940000 0.195000
v 5.225000 4.940000 0.225000
v 5.225000 6.620000 0.195000
v 5.225000 6.620000 0.225000
v 5.225000 8.090000 0.195000
v 5.225000 8.090000 0.225000
v 5.225000 9.770000 0.195000
v 5.225000 9.770000 0.225000
v 5.225000 11.240000 0.195000
v 5.225000 11.240000 0.225000
v 5.730000 0.325000 0.190000
v 5.730000 0.325000 0.235000
v 5.730000 1.785000 0.190000
v 5.730000 1.785000 0.235000
v 5.730000 3.475000 0.190000
v 5.730000 3.475000 0.235000
v 5.730000 4.935000 0.190000
v 5.730000 4.935000 0.235000
v 5.730000 6.625000 0.190000
v 5.730000 6.625000 0.235000
v 5.730000 8.085000 0.190000
v 5.730000 8.085000 0.235000
v 5.730000 9.775001 0.190000
v 5.730000 9.775001 0.235000
v 5.730000 11.235000 0.190000
v 5.730000 11.235000 0.235000
v 5.785000 0.270000 0.190000
v 5.785000 0.270000 0.235000
v 5.785000 1.840000 0.190000
v 5.785000 1.840000 0.235000
v 5.785000 3.420000 0.190000
v 5.785000 3.420000 0.235000
v 5.785000 4.990000 0.190000
v 5.785000 4.990000 0.235000
v 5.785000 6.570000 0.190000
v 5.785000 6.570000 0.235000
v 5.785000 8.140000 0.190000
v 5.785000 8.140000 0.235000
v 5.785000 9.720000 0.190000
v 5.785000 9.720000 0.235000
v 5.785000 11.290000 0.190000
v 5.785000 11.290000 0.235000
v 5.865000 0.200000 -0.090000
v 5.865000 0.200000 0.000000
v 5.865000 0.280000 -0.090000
v 5.865000 0.280000 0.000000
v 5.865000 3.350000 -0.090000
v 5.865000 3.350000 0.000000
v 5.865000 3.430000 -0.090000
v 5.865000 3.430000 0.000000
v 5.865000 6.500000 -0.090000
v 5.865000 6.500000 0.000000
v 5.865000 6.580000 -0.090000
v 5.865000 6.580000 0.000000
v 5.865000 9.650000 -0.090000
v 5.865000 9.650000 0.000000
v 5.865000 9.730000 -0.090000
v 5.865000 9.730000 0.000000
v 6.500000 2.410000 -0.049500
v 6.500000 2.410000 0.000000
v 6.500000 2.480000 -0.049500
v 6.500000 2.480000 0.000000
v 6.500000 5.560000 -0.049500
v 6.500000 5.560000 0.000000
v 6.500000 5.630000 -0.049500
v 6.500000 5.630000 0.000000
v 6.500000 8.710000 -0.049500
v 6.500000 8.710000 0.000000
v 6.500000 8.780000 -0.049500
v 6.500000 8.780000 0.000000
v 6.500000 11.860000 -0.049500
v 6.500000 11.860000 0.000000
v 6.500000 11.930000 -0.049500
v 6.500000 11.930000 0.000000
v 6.560000 -0.670000 -0.130000
v 6.560000 -0.670000 0.000000
v 6.560000 0.480000 -0.130000
v 6.560000 0.480000 0.000000
v 6.600000 12.580000 -0.260000
v 6.600000 12.580000 0.000000
v 6.600000 13.000000 -0.260000
v 6.600000 13.000000 0.000000
vt -14.520000 0.000000
vt -14.520000 0.572000
vt -14.520000 27.676001
vt -14.520000 28.600000
vt -14.432000 -1.474000
vt -14.432000 0.000000
vt -14.432000 0.286000
vt -14.432000 1.056000
vt -14.300000 0.000000
vt -14.300000 0.108900
vt -14.300000 5.302000
vt -14.300000 5.456000
vt -14.300000 12.232000
vt -14.300000 12.386001
vt -14.300000 19.162001
vt -14.300000 19.316000
vt -14.300000 26.091999
vt -14.300000 26.246000
vt -12.903000 0.000000
vt -12.903000 0.198000
vt -12.903000 0.440000
vt -12.903000 0.616000
vt -12.903000 7.370000
vt -12.903000 7.546000
vt -12.903000 14.300000
vt -12.903000 14.476000
vt -12.903000 21.230000
vt -12.903000 21.405998
vt -12.727001 -0.517000
vt -12.727001 -0.418000
vt -12.727001 0.594000
vt -12.727001 4.048000
vt -12.727001 7.524000
vt -12.727001 10.978001
vt -12.727001 14.454000
vt -12.727001 17.908001
vt -12.727001 21.384001
vt -12.727001 24.837999
vt -12.606000 -0.517000
vt -12.606000 -0.418000
vt -12.606000 0.715000
vt -12.606000 3.927000
vt -12.606000 7.645000
vt -12.606000 10.857000
vt -12.606000 14.575000
vt -12.606000 17.787001
vt -12.606000 21.505001
vt -12.606000 24.716999
vt -11.495000 -0.495000
vt -11.495000 -0.429000
vt -11.495000 0.704000
vt -11.495000 3.938000
vt -11.495000 7.634000
vt -11.495000 10.868000
vt -11.495000 14.564000
vt -11.495000 17.798000
vt -11.495000 21.494001
vt -11.495000 24.727999
vt -11.385000 -0.495000
vt -11.385000 -0.429000
vt -11.385000 0.704000
vt -11.385000 3.938000
vt -11.385000 7.634000
vt -11.385000 10.868000
vt -11.385000 14.564000
vt -11.385000 17.798000
vt -11.385000 21.494001
vt -11.385000 24.727999
vt -10.274000 -0.517000
vt -10.274000 -0.418000
vt -10.274000 0.715000
vt -10.274000 3.927000
vt -10.274000 7.645000
vt -10.274000 10.857000
vt -10.274000 14.575000
vt -10.274000 17.787001
vt -10.274000 21.505001
vt -10.274000 24.716999
vt -10.153000 -0.517000
vt -10.153000 -0.418000
vt -10.153000 0.594000
vt -10.153000 4.048000
vt -10.153000 7.524000
vt -10.153000 10.978001
vt -10.153000 14.454000
vt -10.153000 17.908001
vt -10.153000 21.384001
vt -10.153000 24.837999
vt -9.976999 0.000000
vt -9.976999 0.198000
vt -9.976999 0.440000
vt -9.976999 0.616000
vt -9.976999 7.370000
vt -9.976999 7.546000
vt -9.976999 14.300000
vt -9.976999 14.476000
vt -9.976999 21.230000
vt -9.976999 21.405998
vt -7.183000 0.000000
vt -7.183000 0.198000
vt -7.183000 0.440000
vt -7.183000 0.616000
vt -7.183000 7.370000
vt -7.183000 7.546000
vt -7.183000 14.300000
vt -7.183000 14.476000
vt -7.183000 21.230000
vt -7.183000 21.405998
vt -7.007000 -0.517000
vt -7.007000 -0.418000
vt -7.007000 0.594000
vt -7.007000 4.048000
vt -7.007000 7.524000
vt -7.007000 10.978001
vt -7.007000 14.454000
vt -7.007000 17.908001
vt -7.007000 21.384001
vt -7.007000 24.837999
vt -6.886000 -0.517000
vt -6.886000 -0.418000
vt -6.886000 0.715000
vt -6.886000 3.927000
vt -6.886000 7.645000
vt -6.886000 10.857000
vt -6.886000 14.575000
vt -6.886000 17.787001
vt -6.886000 21.505001
vt -6.886000 24.716999
vt -5.775000 -0.495000
vt -5.775000 -0.429000
vt -5.775000 0.704000
vt -5.775000 3.938000
vt -5.775000 7.634000
vt -5.775000 10.868000
vt -5.775000 14.564000
vt -5.775000 17.798000
vt -5.775000 21.494001
vt -5.775000 24.727999
vt -5.665000 -0.495000
vt -5.665000 -0.429000
vt -5.665000 0.704000
vt -5.665000 3.938000
vt -5.665000 7.634000
vt -5.665000 10.868000
vt -5.665000 14.564000
vt -5.665000 17.798000
vt -5.665000 21.494001
vt -5.665000 24.727999
vt -4.554000 -0.517000
vt -4.554000 -0.418000
vt -4.554000 0.715000
vt -4.554000 3.927000
vt -4.554000 7.645000
vt -4.554000 10.857000
vt -4.554000 14.575000
vt -4.554000 17.787001
vt -4.554000 21.505001
vt -4.554000 24.716999
vt -4.433000 -0.517000
vt -4.433000 -0.418000
vt -4.433000 0.594000
vt -4.433000 4.048000
vt -4.433000 7.524000
vt -4.433000 10.978001
vt -4.433000 14.454000
vt -4.433000 17.908001
vt -4.433000 21.384001
vt -4.433000 24.837999
vt -4.257000 0.000000
vt -4.257000 0.198000
vt -4.257000 0.440000
vt -4.257000 0.616000
vt -4.257000 7.370000
vt -4.257000 7.546000
vt -4.257000 14.300000
vt -4.257000 14.476000
vt -4.257000 21.230000
vt -4.257000 21.405998
vt -1.749000 -1.430000
vt -1.749000 0.000000
vt -1.749000 0.316800
vt -1.749000 4.268000
vt -1.507000 -1.452000
vt -1.507000 -0.517000
vt -1.507000 -0.418000
vt -1.507000 3.938000
vt -1.463000 0.000000
vt -1.463000 0.198000
vt -1.463000 7.370000
vt -1.463000 7.546000
vt -1.463000 14.300000
vt -1.463000 14.476000
vt -1.463000 21.230000
vt -1.463000 21.405998
vt -1.386000 -1.331000
vt -1.386000 -0.517000
vt -1.386000 -0.418000
vt -1.386000 3.817000
vt -1.287000 -0.517000
vt -1.287000 -0.418000
vt -1.287000 7.524000
vt -1.287000 10.978001
vt -1.287000 14.454000
vt -1.287000 17.908001
vt -1.287000 21.384001
vt -1.287000 24.837999
vt -1.166000 -0.517000
vt -1.166000 -0.418000
vt -1.166000 7.645000
vt -1.166000 10.857000
vt -1.166000 14.575000
vt -1.166000 17.787001
vt -1.166000 21.505001
vt -1.166000 24.716999
vt -0.517000 -1.452000
vt -0.517000 -1.331000
vt -0.517000 0.594000
vt -0.517000 0.715000
vt -0.517000 3.817000
vt -0.517000 3.927000
vt -0.517000 3.938000
vt -0.517000 4.048000
vt -0.517000 7.524000
vt -0.517000 7.645000
vt -0.517000 10.857000
vt -0.517000 10.978001
vt -0.517000 14.454000
vt -0.517000 14.575000
vt -0.517000 17.787001
vt -0.517000 17.908001
vt -0.517000 21.384001
vt -0.517000 21.505001
vt -0.517000 24.716999
vt -0.517000 24.837999
vt -0.495000 0.704000
vt -0.495000 3.938000
vt -0.495000 7.634000
vt -0.495000 10.868000
vt -0.495000 14.564000
vt -0.495000 17.798000
vt -0.495000 21.494001
vt -0.495000 24.727999
vt -0.429000 0.704000
vt -0.429000 3.938000
vt -0.429000 7.634000
vt -0.429000 10.868000
vt -0.429000 14.564000
vt -0.429000 17.798000
vt -0.429000 21.494001
vt -0.429000 24.727999
vt -0.418000 -1.452000
vt -0.418000 -1.331000
vt -0.418000 0.594000
vt -0.418000 0.715000
vt -0.418000 3.817000
vt -0.418000 3.927000
vt -0.418000 3.938000
vt -0.418000 4.048000
vt -0.418000 7.524000
vt -0.418000 7.645000
vt -0.418000 10.857000
vt -0.418000 10.978001
vt -0.418000 14.454000
vt -0.418000 14.575000
vt -0.418000 17.787001
vt -0.418000 17.908001
vt -0.418000 21.384001
vt -0.418000 21.505001
vt -0.418000 24.716999
vt -0.418000 24.837999
vt -0.055000 -0.495000
vt -0.055000 -0.429000
vt -0.055000 7.634000
vt -0.055000 10.868000
vt -0.055000 14.564000
vt -0.055000 17.798000
vt -0.055000 21.494001
vt -0.055000 24.727999
vt 0.000000 -1.474000
vt 0.000000 -1.430000
vt 0.000000 0.440000
vt 0.000000 0.616000
vt 0.000000 1.056000
vt 0.000000 4.268000
vt 0.000000 5.302000
vt 0.000000 5.456000
vt 0.000000 7.370000
vt 0.000000 7.546000
vt 0.000000 12.232000
vt 0.000000 12.386001
vt 0.000000 14.300000
vt 0.000000 14.476000
vt 0.000000 19.162001
vt 0.000000 19.316000
vt 0.000000 21.230000
vt 0.000000 21.405998
vt 0.000000 26.091999
vt 0.000000 26.246000
vt 0.000000 27.676001
vt 0.000000 28.600000
vt 0.055000 -0.495000
vt 0.055000 -0.429000
vt 0.055000 7.634000
vt 0.055000 10.868000
vt 0.055000 14.564000
vt 0.055000 17.798000
vt 0.055000 21.494001
vt 0.055000 24.727999
vt 0.108900 5.302000
vt 0.108900 5.456000
vt 0.108900 12.232000
vt 0.108900 12.386001
vt 0.108900 19.162001
vt 0.108900 19.316000
vt 0.108900 26.091999
vt 0.108900 26.246000
vt 0.198000 0.440000
vt 0.198000 0.616000
vt 0.198000 7.370000
vt 0.198000 7.546000
vt 0.198000 14.300000
vt 0.198000 14.476000
vt 0.198000 21.230000
vt 0.198000 21.405998
vt 0.286000 -1.474000
vt 0.286000 1.056000
vt 0.316800 -1.430000
vt 0.316800 4.268000
vt 0.572000 27.676001
vt 0.572000 28.600000
vt 1.166000 -0.517000
vt 1.166000 -0.418000
vt 1.166000 7.645000
vt 1.166000 10.857000
vt 1.166000 14.575000
vt 1.166000 17.787001
vt 1.166000 21.505001
vt 1.166000 24.716999
vt 1.287000 -0.517000
vt 1.287000 -0.418000
vt 1.287000 7.524000
vt 1.287000 10.978001
vt 1.287000 14.454000
vt 1.287000 17.908001
vt 1.287000 21.384001
vt 1.287000 24.837999
vt 1.386000 -1.331000
vt 1.386000 -0.517000
vt 1.386000 -0.418000
vt 1.386000 3.817000
vt 1.463000 0.000000
vt 1.463000 0.198000
vt 1.463000 7.370000
vt 1.463000 7.546000
vt 1.463000 14.300000
vt 1.463000 14.476000
vt 1.463000 21.230000
vt 1.463000 21.405998
vt 1.507000 -1.452000
vt 1.507000 -0.517000
vt 1.507000 -0.418000
vt 1.507000 3.938000
vt 1.749000 -1.430000
vt 1.749000 0.000000
vt 1.749000 0.316800
vt 1.749000 4.268000
vt 4.257000 0.000000
vt 4.257000 0.198000
vt 4.257000 0.440000
vt 4.257000 0.616000
vt 4.257000 7.370000
vt 4.257000 7.546000
vt 4.257000 14.300000
vt 4.257000 14.476000
vt 4.257000 21.230000
vt 4.257000 21.405998
vt 4.433000 -0.517000
vt 4.433000 -0.418000
vt 4.433000 0.594000
vt 4.433000 4.048000
vt 4.433000 7.524000
vt 4.433000 10.978001
vt 4.433000 14.454000
vt 4.433000 17.908001
vt 4.433000 21.384001
vt 4.433000 24.837999
vt 4.554000 -0.517000
vt 4.554000 -0.418000
vt 4.554000 0.715000
vt 4.554000 3.927000
vt 4.554000 7.645000
vt 4.554000 10.857000
vt 4.554000 14.575000
vt 4.554000 17.787001
vt 4.554000 21.505001
vt 4.554000 24.716999
vt 5.665000 -0.495000
vt 5.665000 -0.429000
vt 5.665000 0.704000
vt 5.665000 3.938000
vt 5.665000 7.634000
vt 5.665000 10.868000
vt 5.665000 14.564000
vt 5.665000 17.798000
vt 5.665000 21.494001
vt 5.665000 24.727999
vt 5.775000 -0.495000
vt 5.775000 -0.429000
vt 5.775000 0.704000
vt 5.775000 3.938000
vt 5.775000 7.634000
vt 5.775000 10.868000
vt 5.775000 14.564000
vt 5.775000 17.798000
vt 5.775000 21.494001
vt 5.775000 24.727999
vt 6.886000 -0.517000
vt 6.886000 -0.418000
vt 6.886000 0.715000
vt 6.886000 3.927000
vt 6.886000 7.645000
vt 6.886000 10.857000
vt 6.886000 14.575000
vt 6.886000 17.787001
vt 6.886000 21.505001
vt 6.886000 24.716999
vt 7.007000 -0.517000
vt 7.007000 -0.418000
vt 7.007000 0.594000
vt 7.007000 4.048000
vt 7.007000 7.524000
vt 7.007000 10.978001
vt 7.007000 14.454000
vt 7.007000 17.908001
vt 7.007000 21.384001
vt 7.007000 24.837999
vt 7.183000 0.000000
vt 7.183000 0.198000
vt 7.183000 0.440000
vt 7.183000 0.616000
vt 7.183000 7.370000
vt 7.183000 7.546000
vt 7.183000 14.300000
vt 7.183000 14.476000
vt 7.183000 21.230000
vt 7.183000 21.405998
vt 9.976999 0.000000
vt 9.976999 0.198000
vt 9.976999 0.440000
vt 9.976999 0.616000
vt 9.976999 7.370000
vt 9.976999 7.546000
vt 9.976999 14.300000
vt 9.976999 14.476000
vt 9.976999 21.230000
vt 9.976999 21.405998
vt 10.153000 -0.517000
vt 10.153000 -0.418000
vt 10.153000 0.594000
vt 10.153000 4.048000
vt 10.153000 7.524000
vt 10.153000 10.978001
vt 10.153000 14.454000
vt 10.153000 17.908001
vt 10.153000 21.384001
vt 10.153000 24.837999
vt 10.274000 -0.517000
vt 10.274000 -0.418000
vt 10.274000 0.715000
vt 10.274000 3.927000
vt 10.274000 7.645000
vt 10.274000 10.857000
vt 10.274000 14.575000
vt 10.274000 17.787001
vt 10.274000 21.505001
vt 10.274000 24.716999
vt 11.385000 -0.495000
vt 11.385000 -0.429000
vt 11.385000 0.704000
vt 11.385000 3.938000
vt 11.385000 7.634000
vt 11.385000 10.868000
vt 11.385000 14.564000
vt 11.385000 17.798000
vt 11.385000 21.494001
vt 11.385000 24.727999
vt 11.495000 -0.495000
vt 11.495000 -0.429000
vt 11.495000 0.704000
vt 11.495000 3.938000
vt 11.495000 7.634000
vt 11.495000 10.868000
vt 11.495000 14.564000
vt 11.495000 17.798000
vt 11.495000 21.494001
vt 11.495000 24.727999
vt 12.606000 -0.517000
vt 12.606000 -0.418000
vt 12.606000 0.715000
vt 12.606000 3.927000
vt 12.606000 7.645000
vt 12.606000 10.857000
vt 12.606000 14.575000
vt 12.606000 17.787001
vt 12.606000 21.505001
vt 12.606000 24.716999
vt 12.727001 -0.517000
vt 12.727001 -0.418000
vt 12.727001 0.594000
vt 12.727001 4.048000
vt 12.727001 7.524000
vt 12.727001 10.978001
vt 12.727001 14.454000
vt 12.727001 17.908001
vt 12.727001 21.384001
vt 12.727001 24.837999
vt 12.903000 0.000000
vt 12.903000 0.198000
vt 12.903000 0.440000
vt 12.903000 0.616000
vt 12.903000 7.370000
vt 12.903000 7.546000
vt 12.903000 14.300000
vt 12.903000 14.476000
vt 12.903000 21.230000
vt 12.903000 21.405998
vt 14.300000 0.000000
vt 14.300000 0.108900
vt 14.300000 5.302000
vt 14.300000 5.456000
vt 14.300000 12.232000
vt 14.300000 12.386001
vt 14.300000 19.162001
vt 14.300000 19.316000
vt 14.300000 26.091999
vt 14.300000 26.246000
vt 14.432000 -1.474000
vt 14.432000 0.000000
vt 14.432000 0.286000
vt 14.432000 1.056000
vt 14.520000 0.000000
vt 14.520000 0.572000
vt 14.520000 27.676001
vt 14.520000 28.600000
vn -1.000000 0.000000 0.000000
vn 0.000000 -1.000000 0.000000
vn 0.000000 0.000000 -1.000000
vn 0.000000 0.000000 1.000000
vn 0.000000 1.000000 0.000000
vn 1.000000 0.000000 0.000000
usemtl TrimStone
f 1/2/2 677/542/2 2/1/2
f 1/3/3 3/4/3 679/544/3
f 1/3/3 679/544/3 677/543/3
f 1/329/1 2/299/1 3/330/1
f 2/1/2 677/542/2 678/541/2
f 2/3/4 678/543/4 680/544/4
f 2/3/4 680/544/4 4/4/4
f 2/299/1 4/300/1 3/330/1
f 3/2/5 4/1/5 679/542/5
f 4/1/5 680/541/5 679/542/5
f 5/5/3 7/8/3 675/540/3
f 5/5/3 675/540/3 673/537/3
f 5/7/2 673/539/2 6/6/2
f 5/325/1 6/279/1 7/326/1
f 6/5/4 674/537/4 676/540/4
f 6/5/4 676/540/4 8/8/4
f 6/6/2 673/539/2 674/538/2
f 6/279/1 8/283/1 7/326/1
f 7/7/5 8/6/5 675/539/5
f 8/6/5 676/538/5 675/539/5
f 9/10/2 657/528/2 10/9/2
f 9/11/3 11/12/3 659/530/3
f 9/11/3 659/530/3 657/529/3
f 9/309/1 10/285/1 11/310/1
f 10/9/2 657/528/2 658/527/2
f 10/11/4 658/529/4 660/530/4
f 10/11/4 660/530/4 12/12/4
f 10/285/1 12/286/1 11/310/1
f 11/10/5 12/9/5 659/528/5
f 12/9/5 660/527/5 659/528/5
f 13/10/2 661/528/2 14/9/2
f 13/13/3 15/14/3 663/532/3
f 13/13/3 663/532/3 661/531/3
f 13/311/1 14/289/1 15/312/1
f 14/9/2 661/528/2 662/527/2
f 14/13/4 662/531/4 664/532/4
f 14/13/4 664/532/4 16/14/4
f 14/289/1 16/290/1 15/312/1
f 15/10/5 16/9/5 663/528/5
f 16/9/5 664/527/5 663/528/5
f 17/10/2 665/528/2 18/9/2
f 17/15/3 19/16/3 667/534/3
f 17/15/3 667/534/3 665/533/3
f 17/313/1 18/293/1 19/314/1
f 18/9/2 665/528/2 666/527/2
f 18/15/4 666/533/4 668/534/4
f 18/15/4 668/534/4 20/16/4
f 18/293/1 20/294/1 19/314/1
f 19/10/5 20/9/5 667/528/5
f 20/9/5 668/527/5 667/528/5
f 21/10/2 669/528/2 22/9/2
f 21/17/3 23/18/3 671/536/3
f 21/17/3 671/536/3 669/535/3
f 21/315/1 22/297/1 23/316/1
f 22/9/2 669/528/2 670/527/2
f 22/17/4 670/535/4 672/536/4
f 22/17/4 672/536/4 24/18/4
f 22/297/1 24/298/1 23/316/1
f 23/10/5 24/9/5 671/528/5
f 24/9/5 672/527/5 671/528/5
f 25/20/2 137/90/2 26/19/2
f 25/21/3 27/22/3 139/92/3
f 25/21/3 139/92/3 137/91/3
f 25/317/1 26/281/1 27/318/1
f 26/19/2 137/90/2 138/89/2
f 26/21/4 138/91/4 140/92/4
f 26/21/4 140/92/4 28/22/4
f 26/281/1 28/282/1 27/318/1
f 27/20/5 28/19/5 139/90/5
f 28/19/5 140/89/5 139/90/5
f 29/20/2 141/90/2 30/19/2
f 29/23/3 31/24/3 143/94/3
f 29/23/3 143/94/3 141/93/3
f 29/319/1 30/287/1 31/320/1
f 30/19/2 141/90/2 142/89/2
f 30/23/4 142/93/4 144/94/4
f 30/23/4 144/94/4 32/24/4
f 30/287/1 32/288/1 31/320/1
f 31/20/5 32/19/5 143/90/5
f 32/19/5 144/89/5 143/90/5
f 33/20/2 145/90/2 34/19/2
f 33/25/3 35/26/3 147/96/3
f 33/25/3 147/96/3 145/95/3
f 33/321/1 34/291/1 35/322/1
f 34/19/2 145/90/2 146/89/2
f 34/25/4 146/95/4 148/96/4
f 34/25/4 148/96/4 36/26/4
f 34/291/1 36/292/1 35/322/1
f 35/20/5 36/19/5 147/90/5
f 36/19/5 148/89/5 147/90/5
f 37/20/2 149/90/2 38/19/2
f 37/27/3 39/28/3 151/98/3
f 37/27/3 151/98/3 149/97/3
f 37/323/1 38/295/1 39/324/1
f 38/19/2 149/90/2 150/89/2
f 38/27/4 150/97/4 152/98/4
f 38/27/4 152/98/4 40/28/4
f 38/295/1 40/296/1 39/324/1
f 39/20/5 40/19/5 151/90/5
f 40/19/5 152/89/5 151/90/5
f 41/30/2 121/80/2 122/79/2
f 41/30/2 122/79/2 42/29/2
f 41/31/3 43/32/3 57/41/3
f 41/31/3 57/41/3 105/71/3
f 41/31/3 105/71/3 121/81/3
f 41/253/1 42/217/1 43/258/1
f 42/31/4 58/41/4 44/32/4
f 42/31/4 106/71/4 58/41/4
f 42/31/4 122/81/4 106/71/4
f 42/217/1 44/222/1 43/258/1
f 43/30/5 44/29/5 123/80/5
f 43/32/3 59/42/3 57/41/3
f 43/32/3 123/82/3 59/42/3
f 44/29/5 124/79/5 123/80/5
f 44/32/4 58/41/4 60/42/4
f 44/32/4 60/42/4 124/82/4
f 45/30/2 125/80/2 126/79/2
f 45/30/2 126/79/2 46/29/2
f 45/33/3 47/34/3 63/44/3
f 45/33/3 61/43/3 109/73/3
f 45/33/3 63/44/3 61/43/3
f 45/33/3 109/73/3 125/83/3
f 45/259/1 46/223/1 47/262/1
f 46/33/4 62/43/4 64/44/4
f 46/33/4 64/44/4 48/34/4
f 46/33/4 110/73/4 62/43/4
f 46/33/4 126/83/4 110/73/4
f 46/223/1 48/226/1 47/262/1
f 47/30/5 48/29/5 127/80/5
f 47/34/3 127/84/3 63/44/3
f 48/29/5 128/79/5 127/80/5
f 48/34/4 64/44/4 128/84/4
f 49/30/2 129/80/2 130/79/2
f 49/30/2 130/79/2 50/29/2
f 49/35/3 51/36/3 65/45/3
f 49/35/3 65/45/3 113/75/3
f 49/35/3 113/75/3 129/85/3
f 49/263/1 50/227/1 51/266/1
f 50/35/4 66/45/4 52/36/4
f 50/35/4 114/75/4 66/45/4
f 50/35/4 130/85/4 114/75/4
f 50/227/1 52/230/1 51/266/1
f 51/30/5 52/29/5 131/80/5
f 51/36/3 67/46/3 65/45/3
f 51/36/3 131/86/3 67/46/3
f 52/29/5 132/79/5 131/80/5
f 52/36/4 66/45/4 68/46/4
f 52/36/4 68/46/4 132/86/4
f 53/30/2 133/80/2 134/79/2
f 53/30/2 134/79/2 54/29/2
f 53/37/3 55/38/3 69/47/3
f 53/37/3 69/47/3 117/77/3
f 53/37/3 117/77/3 133/87/3
f 53/267/1 54/231/1 55/270/1
f 54/37/4 70/47/4 56/38/4
f 54/37/4 118/77/4 70/47/4
f 54/37/4 134/87/4 118/77/4
f 54/231/1 56/234/1 55/270/1
f 55/30/5 56/29/5 135/80/5
f 55/38/3 71/48/3 69/47/3
f 55/38/3 135/88/3 71/48/3
f 56/29/5 136/79/5 135/80/5
f 56/38/4 70/47/4 72/48/4
f 56/38/4 72/48/4 136/88/4
f 57/40/5 58/39/5 106/69/5
f 57/40/5 106/69/5 105/70/5
f 57/254/6 59/256/6 58/218/6
f 58/218/6 59/256/6 60/220/6
f 59/40/2 107/70/2 60/39/2
f 59/42/3 123/82/3 107/72/3
f 60/39/2 107/70/2 108/69/2
f 60/42/4 108/72/4 124/82/4
f 61/40/5 62/39/5 110/69/5
f 61/40/5 110/69/5 109/70/5
f 61/260/6 63/261/6 62/224/6
f 62/224/6 63/261/6 64/225/6
f 63/40/2 111/70/2 64/39/2
f 63/44/3 127/84/3 111/74/3
f 64/39/2 111/70/2 112/69/2
f 64/44/4 112/74/4 128/84/4
f 65/40/5 66/39/5 114/69/5
f 65/40/5 114/69/5 113/70/5
f 65/264/6 67/265/6 66/228/6
f 66/228/6 67/265/6 68/229/6
f 67/40/2 115/70/2 68/39/2
f 67/46/3 131/86/3 115/76/3
f 68/39/2 115/70/2 116/69/2
f 68/46/4 116/76/4 132/86/4
f 69/40/5 70/39/5 118/69/5
f 69/40/5 118/69/5 117/70/5
f 69/268/6 71/269/6 70/232/6
f 70/232/6 71/269/6 72/233/6
f 71/40/2 119/70/2 72/39/2
f 71/48/3 135/88/3 119/78/3
f 72/39/2 119/70/2 120/69/2
f 72/48/4 120/78/4 136/88/4
f 73/50/2 89/60/2 74/49/2
f 73/51/3 75/52/3 91/62/3
f 73/51/3 91/62/3 89/61/3
f 73/243/1 74/235/1 75/244/1
f 74/49/2 89/60/2 90/59/2
f 74/51/4 90/61/4 92/62/4
f 74/51/4 92/62/4 76/52/4
f 74/235/1 76/236/1 75/244/1
f 75/50/5 76/49/5 91/60/5
f 76/49/5 92/59/5 91/60/5
f 77/50/2 93/60/2 78/49/2
f 77/53/3 79/54/3 95/64/3
f 77/53/3 95/64/3 93/63/3
f 77/245/1 78/237/1 79/246/1
f 78/49/2 93/60/2 94/59/2
f 78/53/4 94/63/4 96/64/4
f 78/53/4 96/64/4 80/54/4
f 78/237/1 80/238/1 79/246/1
f 79/50/5 80/49/5 95/60/5
f 80/49/5 96/59/5 95/60/5
f 81/50/2 97/60/2 82/49/2
f 81/55/3 83/56/3 99/66/3
f 81/55/3 99/66/3 97/65/3
f 81/247/1 82/239/1 83/248/1
f 82/49/2 97/60/2 98/59/2
f 82/55/4 98/65/4 100/66/4
f 82/55/4 100/66/4 84/56/4
f 82/239/1 84/240/1 83/248/1
f 83/50/5 84/49/5 99/60/5
f 84/49/5 100/59/5 99/60/5
f 85/50/2 101/60/2 86/49/2
f 85/57/3 87/58/3 103/68/3
f 85/57/3 103/68/3 101/67/3
f 85/249/1 86/241/1 87/250/1
f 86/49/2 101/60/2 102/59/2
f 86/57/4 102/67/4 104/68/4
f 86/57/4 104/68/4 88/58/4
f 86/241/1 88/242/1 87/250/1
f 87/50/5 88/49/5 103/60/5
f 88/49/5 104/59/5 103/60/5
f 89/243/6 91/244/6 90/235/6
f 90/235/6 91/244/6 92/236/6
f 93/245/6 95/246/6 94/237/6
f 94/237/6 95/246/6 96/238/6
f 97/247/6 99/248/6 98/239/6
f 98/239/6 99/248/6 100/240/6
f 101/249/6 103/250/6 102/241/6
f 102/241/6 103/250/6 104/242/6
f 105/71/3 107/72/3 123/82/3
f 105/71/3 123/82/3 121/81/3
f 105/254/1 106/218/1 108/220/1
f 105/254/1 108/220/1 107/256/1
f 106/71/4 122/81/4 124/82/4
f 106/71/4 124/82/4 108/72/4
f 109/73/3 111/74/3 125/83/3
f 109/260/1 110/224/1 112/225/1
f 109/260/1 112/225/1 111/261/1
f 110/73/4 126/83/4 112/74/4
f 111/74/3 127/84/3 125/83/3
f 112/74/4 126/83/4 128/84/4
f 113/75/3 115/76/3 129/85/3
f 113/264/1 114/228/1 116/229/1
f 113/264/1 116/229/1 115/265/1
f 114/75/4 130/85/4 116/76/4
f 115/76/3 131/86/3 129/85/3
f 116/76/4 130/85/4 132/86/4
f 117/77/3 119/78/3 133/87/3
f 117/268/1 118/232/1 120/233/1
f 117/268/1 120/233/1 119/269/1
f 118/77/4 134/87/4 120/78/4
f 119/78/3 135/88/3 133/87/3
f 120/78/4 134/87/4 136/88/4
f 121/253/6 123/258/6 124/222/6
f 121/253/6 124/222/6 122/217/6
f 125/259/6 127/262/6 128/226/6
f 125/259/6 128/226/6 126/223/6
f 129/263/6 131/266/6 132/230/6
f 129/263/6 132/230/6 130/227/6
f 133/267/6 135/270/6 136/234/6
f 133/267/6 136/234/6 134/231/6
f 137/317/6 139/318/6 138/281/6
f 138/281/6 139/318/6 140/282/6
f 141/319/6 143/320/6 142/287/6
f 142/287/6 143/320/6 144/288/6
f 145/321/6 147/322/6 146/291/6
f 146/291/6 147/322/6 148/292/6
f 149/323/6 151/324/6 150/295/6
f 150/295/6 151/324/6 152/296/6
f 153/100/2 265/170/2 154/99/2
f 153/101/3 155/102/3 267/172/3
f 153/101/3 267/172/3 265/171/3
f 153/317/1 154/281/1 155/318/1
f 154/99/2 265/170/2 266/169/2
f 154/101/4 266/171/4 268/172/4
f 154/101/4 268/172/4 156/102/4
f 154/281/1 156/282/1 155/318/1
f 155/100/5 156/99/5 267/170/5
f 156/99/5 268/169/5 267/170/5
f 157/100/2 269/170/2 158/99/2
f 157/103/3 159/104/3 271/174/3
f 157/103/3 271/174/3 269/173/3
f 157/319/1 158/287/1 159/320/1
f 158/99/2 269/170/2 270/169/2
f 158/103/4 270/173/4 272/174/4
f 158/103/4 272/174/4 160/104/4
f 158/287/1 160/288/1 159/320/1
f 159/100/5 160/99/5 271/170/5
f 160/99/5 272/169/5 271/170/5
f 161/100/2 273/170/2 162/99/2
f 161/105/3 163/106/3 275/176/3
f 161/105/3 275/176/3 273/175/3
f 161/321/1 162/291/1 163/322/1
f 162/99/2 273/170/2 274/169/2
f 162/105/4 274/175/4 276/176/4
f 162/105/4 276/176/4 164/106/4
f 162/291/1 164/292/1 163/322/1
f 163/100/5 164/99/5 275/170/5
f 164/99/5 276/169/5 275/170/5
f 165/100/2 277/170/2 166/99/2
f 165/107/3 167/108/3 279/178/3
f 165/107/3 279/178/3 277/177/3
f 165/323/1 166/295/1 167/324/1
f 166/99/2 277/170/2 278/169/2
f 166/107/4 278/177/4 280/178/4
f 166/107/4 280/178/4 168/108/4
f 166/295/1 168/296/1 167/324/1
f 167/100/5 168/99/5 279/170/5
f 168/99/5 280/169/5 279/170/5
f 169/110/2 249/160/2 250/159/2
f 169/110/2 250/159/2 170/109/2
f 169/111/3 171/112/3 185/121/3
f 169/111/3 185/121/3 233/151/3
f 169/111/3 233/151/3 249/161/3
f 169/253/1 170/217/1 171/258/1
f 170/111/4 186/121/4 172/112/4
f 170/111/4 234/151/4 186/121/4
f 170/111/4 250/161/4 234/151/4
f 170/217/1 172/222/1 171/258/1
f 171/110/5 172/109/5 251/160/5
f 171/112/3 187/122/3 185/121/3
f 171/112/3 251/162/3 187/122/3
f 172/109/5 252/159/5 251/160/5
f 172/112/4 186/121/4 188/122/4
f 172/112/4 188/122/4 252/162/4
f 173/110/2 253/160/2 254/159/2
f 173/110/2 254/159/2 174/109/2
f 173/113/3 175/114/3 191/124/3
f 173/113/3 189/123/3 237/153/3
f 173/113/3 191/124/3 189/123/3
f 173/113/3 237/153/3 253/163/3
f 173/259/1 174/223/1 175/262/1
f 174/113/4 190/123/4 192/124/4
f 174/113/4 192/124/4 176/114/4
f 174/113/4 238/153/4 190/123/4
f 174/113/4 254/163/4 238/153/4
f 174/223/1 176/226/1 175/262/1
f 175/110/5 176/109/5 255/160/5
f 175/114/3 255/164/3 191/124/3
f 176/109/5 256/159/5 255/160/5
f 176/114/4 192/124/4 256/164/4
f 177/110/2 257/160/2 258/159/2
f 177/110/2 258/159/2 178/109/2
f 177/115/3 179/116/3 193/125/3
f 177/115/3 193/125/3 241/155/3
f 177/115/3 241/155/3 257/165/3
f 177/263/1 178/227/1 179/266/1
f 178/115/4 194/125/4 180/116/4
f 178/115/4 242/155/4 194/125/4
f 178/115/4 258/165/4 242/155/4
f 178/227/1 180/230/1 179/266/1
f 179/110/5 180/109/5 259/160/5
f 179/116/3 195/126/3 193/125/3
f 179/116/3 259/166/3 195/126/3
f 180/109/5 260/159/5 259/160/5
f 180/116/4 194/125/4 196/126/4
f 180/116/4 196/126/4 260/166/4
f 181/110/2 261/160/2 262/159/2
f 181/110/2 262/159/2 182/109/2
f 181/117/3 183/118/3 197/127/3
f 181/117/3 197/127/3 245/157/3
f 181/117/3 245/157/3 261/167/3
f 181/267/1 182/231/1 183/270/1
f 182/117/4 198/127/4 184/118/4
f 182/117/4 246/157/4 198/127/4
f 182/117/4 262/167/4 246/157/4
f 182/231/1 184/234/1 183/270/1
f 183/110/5 184/109/5 263/160/5
f 183/118/3 199/128/3 197/127/3
f 183/118/3 263/168/3 199/128/3
f 184/109/5 264/159/5 263/160/5
f 184/118/4 198/127/4 200/128/4
f 184/118/4 200/128/4 264/168/4
f 185/120/5 186/119/5 234/149/5
f 185/120/5 234/149/5 233/150/5
f 185/254/6 187/256/6 186/218/6
f 186/218/6 187/256/6 188/220/6
f 187/120/2 235/150/2 188/119/2
f 187/122/3 251/162/3 235/152/3
f 188/119/2 235/150/2 236/149/2
f 188/122/4 236/152/4 252/162/4
f 189/120/5 190/119/5 238/149/5
f 189/120/5 238/149/5 237/150/5
f 189/260/6 191/261/6 190/224/6
f 190/224/6 191/261/6 192/225/6
f 191/120/2 239/150/2 192/119/2
f 191/124/3 255/164/3 239/154/3
f 192/119/2 239/150/2 240/149/2
f 192/124/4 240/154/4 256/164/4
f 193/120/5 194/119/5 242/149/5
f 193/120/5 242/149/5 241/150/5
f 193/264/6 195/265/6 194/228/6
f 194/228/6 195/265/6 196/229/6
f 195/120/2 243/150/2 196/119/2
f 195/126/3 259/166/3 243/156/3
f 196/119/2 243/150/2 244/149/2
f 196/126/4 244/156/4 260/166/4
f 197/120/5 198/119/5 246/149/5
f 197/120/5 246/149/5 245/150/5
f 197/268/6 199/269/6 198/232/6
f 198/232/6 199/269/6 200/233/6
f 199/120/2 247/150/2 200/119/2
f 199/128/3 263/168/3 247/158/3
f 200/119/2 247/150/2 248/149/2
f 200/128/4 248/158/4 264/168/4
f 201/130/2 217/140/2 202/129/2
f 201/131/3 203/132/3 219/142/3
f 201/131/3 219/142/3 217/141/3
f 201/243/1 202/235/1 203/244/1
f 202/129/2 217/140/2 218/139/2
f 202/131/4 218/141/4 220/142/4
f 202/131/4 220/142/4 204/132/4
f 202/235/1 204/236/1 203/244/1
f 203/130/5 204/129/5 219/140/5
f 204/129/5 220/139/5 219/140/5
f 205/130/2 221/140/2 206/129/2
f 205/133/3 207/134/3 223/144/3
f 205/133/3 223/144/3 221/143/3
f 205/245/1 206/237/1 207/246/1
f 206/129/2 221/140/2 222/139/2
f 206/133/4 222/143/4 224/144/4
f 206/133/4 224/144/4 208/134/4
f 206/237/1 208/238/1 207/246/1
f 207/130/5 208/129/5 223/140/5
f 208/129/5 224/139/5 223/140/5
f 209/130/2 225/140/2 210/129/2
f 209/135/3 211/136/3 227/146/3
f 209/135/3 227/146/3 225/145/3
f 209/247/1 210/239/1 211/248/1
f 210/129/2 225/140/2 226/139/2
f 210/135/4 226/145/4 228/146/4
f 210/135/4 228/146/4 212/136/4
f 210/239/1 212/240/1 211/248/1
f 211/130/5 212/129/5 227/140/5
f 212/129/5 228/139/5 227/140/5
f 213/130/2 229/140/2 214/129/2
f 213/137/3 215/138/3 231/148/3
f 213/137/3 231/148/3 229/147/3
f 213/249/1 214/241/1 215/250/1
f 214/129/2 229/140/2 230/139/2
f 214/137/4 230/147/4 232/148/4
f 214/137/4 232/148/4 216/138/4
f 214/241/1 216/242/1 215/250/1
f 215/130/5 216/129/5 231/140/5
f 216/129/5 232/139/5 231/140/5
f 217/243/6 219/244/6 218/235/6
f 218/235/6 219/244/6 220/236/6
f 221/245/6 223/246/6 222/237/6
f 222/237/6 223/246/6 224/238/6
f 225/247/6 227/248/6 226/239/6
f 226/239/6 227/248/6 228/240/6
f 229/249/6 231/250/6 230/241/6
f 230/241/6 231/250/6 232/242/6
f 233/151/3 235/152/3 251/162/3
f 233/151/3 251/162/3 249/161/3
f 233/254/1 234/218/1 236/220/1
f 233/254/1 236/220/1 235/256/1
f 234/151/4 250/161/4 252/162/4
f 234/151/4 252/162/4 236/152/4
f 237/153/3 239/154/3 253/163/3
f 237/260/1 238/224/1 240/225/1
f 237/260/1 240/225/1 239/261/1
f 238/153/4 254/163/4 240/154/4
f 239/154/3 255/164/3 253/163/3
f 240/154/4 254/163/4 256/164/4
f 241/155/3 243/156/3 257/165/3
f 241/264/1 242/228/1 244/229/1
f 241/264/1 244/229/1 243/265/1
f 242/155/4 258/165/4 244/156/4
f 243/156/3 259/166/3 257/165/3
f 244/156/4 258/165/4 260/166/4
f 245/157/3 247/158/3 261/167/3
f 245/268/1 246/232/1 248/233/1
f 245/268/1 248/233/1 247/269/1
f 246/157/4 262/167/4 248/158/4
f 247/158/3 263/168/3 261/167/3
f 248/158/4 262/167/4 264/168/4
f 249/253/6 251/258/6 252/222/6
f 249/253/6 252/222/6 250/217/6
f 253/259/6 255/262/6 256/226/6
f 253/259/6 256/226/6 254/223/6
f 257/263/6 259/266/6 260/230/6
f 257/263/6 260/230/6 258/227/6
f 261/267/6 263/270/6 264/234/6
f 261/267/6 264/234/6 262/231/6
f 265/317/6 267/318/6 266/281/6
f 266/281/6 267/318/6 268/282/6
f 269/319/6 271/320/6 270/287/6
f 270/287/6 271/320/6 272/288/6
f 273/321/6 275/322/6 274/291/6
f 274/291/6 275/322/6 276/292/6
f 277/323/6 279/324/6 278/295/6
f 278/295/6 279/324/6 280/296/6
f 281/179/3 283/182/3 399/366/3
f 281/179/3 399/366/3 397/363/3
f 281/181/2 397/365/2 282/180/2
f 281/327/1 282/280/1 283/328/1
f 282/179/4 398/363/4 400/366/4
f 282/179/4 400/366/4 284/182/4
f 282/180/2 397/365/2 398/364/2
f 282/280/1 284/284/1 283/328/1
f 283/181/5 284/180/5 399/365/5
f 284/180/5 400/364/5 399/365/5
f 285/183/3 287/186/3 301/195/3
f 285/183/3 301/195/3 377/347/3
f 285/183/3 377/347/3 393/359/3
f 285/185/2 393/361/2 394/360/2
f 285/185/2 394/360/2 286/184/2
f 285/251/1 286/215/1 287/257/1
f 286/183/4 302/195/4 288/186/4
f 286/183/4 378/347/4 302/195/4
f 286/183/4 394/359/4 378/347/4
f 286/215/1 288/221/1 287/257/1
f 287/185/5 288/184/5 395/361/5
f 287/186/3 303/198/3 301/195/3
f 287/186/3 395/362/3 303/198/3
f 288/184/5 396/360/5 395/361/5
f 288/186/4 302/195/4 304/198/4
f 288/186/4 304/198/4 396/362/4
f 289/188/2 381/352/2 290/187/2
f 289/189/3 291/190/3 383/354/3
f 289/189/3 383/354/3 381/353/3
f 289/319/1 290/287/1 291/320/1
f 290/187/2 381/352/2 382/351/2
f 290/189/4 382/353/4 384/354/4
f 290/189/4 384/354/4 292/190/4
f 290/287/1 292/288/1 291/320/1
f 291/188/5 292/187/5 383/352/5
f 292/187/5 384/351/5 383/352/5
f 293/188/2 385/352/2 294/187/2
f 293/191/3 295/192/3 387/356/3
f 293/191/3 387/356/3 385/355/3
f 293/321/1 294/291/1 295/322/1
f 294/187/2 385/352/2 386/351/2
f 294/191/4 386/355/4 388/356/4
f 294/191/4 388/356/4 296/192/4
f 294/291/1 296/292/1 295/322/1
f 295/188/5 296/187/5 387/352/5
f 296/187/5 388/351/5 387/352/5
f 297/188/2 389/352/2 298/187/2
f 297/193/3 299/194/3 391/358/3
f 297/193/3 391/358/3 389/357/3
f 297/323/1 298/295/1 299/324/1
f 298/187/2 389/352/2 390/351/2
f 298/193/4 390/357/4 392/358/4
f 298/193/4 392/358/4 300/194/4
f 298/295/1 300/296/1 299/324/1
f 299/188/5 300/187/5 391/352/5
f 300/187/5 392/351/5 391/352/5
f 301/197/5 302/196/5 378/348/5
f 301/197/5 378/348/5 377/349/5
f 301/252/6 303/255/6 302/216/6
f 302/216/6 303/255/6 304/219/6
f 303/197/2 379/349/2 304/196/2
f 303/198/3 395/362/3 379/350/3
f 304/196/2 379/349/2 380/348/2
f 304/198/4 380/350/4 396/362/4
f 305/200/2 365/340/2 366/339/2
f 305/200/2 366/339/2 306/199/2
f 305/201/3 307/202/3 319/210/3
f 305/201/3 317/209/3 353/333/3
f 305/201/3 319/210/3 317/209/3
f 305/201/3 353/333/3 365/341/3
f 305/259/1 306/223/1 307/262/1
f 306/201/4 318/209/4 320/210/4
f 306/201/4 320/210/4 308/202/4
f 306/201/4 354/333/4 318/209/4
f 306/201/4 366/341/4 354/333/4
f 306/223/1 308/226/1 307/262/1
f 307/200/5 308/199/5 367/340/5
f 307/202/3 367/342/3 319/210/3
f 308/199/5 368/339/5 367/340/5
f 308/202/4 320/210/4 368/342/4
f 309/200/2 369/340/2 370/339/2
f 309/200/2 370/339/2 310/199/2
f 309/203/3 311/204/3 321/211/3
f 309/203/3 321/211/3 357/335/3
f 309/203/3 357/335/3 369/343/3
f 309/263/1 310/227/1 311/266/1
f 310/203/4 322/211/4 312/204/4
f 310/203/4 358/335/4 322/211/4
f 310/203/4 370/343/4 358/335/4
f 310/227/1 312/230/1 311/266/1
f 311/200/5 312/199/5 371/340/5
f 311/204/3 323/212/3 321/211/3
f 311/204/3 371/344/3 323/212/3
f 312/199/5 372/339/5 371/340/5
f 312/204/4 322/211/4 324/212/4
f 312/204/4 324/212/4 372/344/4
f 313/200/2 373/340/2 374/339/2
f 313/200/2 374/339/2 314/199/2
f 313/205/3 315/206/3 325/213/3
f 313/205/3 325/213/3 361/337/3
f 313/205/3 361/337/3 373/345/3
f 313/267/1 314/231/1 315/270/1
f 314/205/4 326/213/4 316/206/4
f 314/205/4 362/337/4 326/213/4
f 314/205/4 374/345/4 362/337/4
f 314/231/1 316/234/1 315/270/1
f 315/200/5 316/199/5 375/340/5
f 315/206/3 327/214/3 325/213/3
f 315/206/3 375/346/3 327/214/3
f 316/199/5 376/339/5 375/340/5
f 316/206/4 326/213/4 328/214/4
f 316/206/4 328/214/4 376/346/4
f 317/208/5 318/207/5 354/331/5
f 317/208/5 354/331/5 353/332/5
f 317/260/6 319/261/6 318/224/6
f 318/224/6 319/261/6 320/225/6
f 319/208/2 355/332/2 320/207/2
f 319/210/3 367/342/3 355/334/3
f 320/207/2 355/332/2 356/331/2
f 320/210/4 356/334/4 368/342/4
f 321/208/5 322/207/5 358/331/5
f 321/208/5 358/331/5 357/332/5
f 321/264/6 323/265/6 322/228/6
f 322/228/6 323/265/6 324/229/6
f 323/208/2 359/332/2 324/207/2
f 323/212/3 371/344/3 359/336/3
f 324/207/2 359/332/2 360/331/2
f 324/212/4 360/336/4 372/344/4
f 325/208/5 326/207/5 362/331/5
f 325/208/5 362/331/5 361/332/5
f 325/268/6 327/269/6 326/232/6
f 326/232/6 327/269/6 328/233/6
f 327/208/2 363/332/2 328/207/2
f 327/214/3 375/346/3 363/338/3
f 328/207/2 363/332/2 364/331/2
f 328/214/4 364/338/4 376/346/4
f 329/245/1 330/237/1 331/246/1
f 329/272/2 341/302/2 330/271/2
f 329/273/3 331/274/3 343/304/3
f 329/273/3 343/304/3 341/303/3
f 330/237/1 332/238/1 331/246/1
f 330/271/2 341/302/2 342/301/2
f 330/273/4 342/303/4 344/304/4
f 330/273/4 344/304/4 332/274/4
f 331/272/5 332/271/5 343/302/5
f 332/271/5 344/301/5 343/302/5
f 333/247/1 334/239/1 335/248/1
f 333/272/2 345/302/2 334/271/2
f 333/275/3 335/276/3 347/306/3
f 333/275/3 347/306/3 345/305/3
f 334/239/1 336/240/1 335/248/1
f 334/271/2 345/302/2 346/301/2
f 334/275/4 346/305/4 348/306/4
f 334/275/4 348/306/4 336/276/4
f 335/272/5 336/271/5 347/302/5
f 336/271/5 348/301/5 347/302/5
f 337/249/1 338/241/1 339/250/1
f 337/272/2 349/302/2 338/271/2
f 337/277/3 339/278/3 351/308/3
f 337/277/3 351/308/3 349/307/3
f 338/241/1 340/242/1 339/250/1
f 338/271/2 349/302/2 350/301/2
f 338/277/4 350/307/4 352/308/4
f 338/277/4 352/308/4 340/278/4
f 339/272/5 340/271/5 351/302/5
f 340/271/5 352/301/5 351/302/5
f 341/245/6 343/246/6 342/237/6
f 342/237/6 343/246/6 344/238/6
f 345/247/6 347/248/6 346/239/6
f 346/239/6 347/248/6 348/240/6
f 349/249/6 351/250/6 350/241/6
f 350/241/6 351/250/6 352/242/6
f 353/260/1 354/224/1 356/225/1
f 353/260/1 356/225/1 355/261/1
f 353/333/3 355/334/3 365/341/3
f 354/333/4 366/341/4 356/334/4
f 355/334/3 367/342/3 365/341/3
f 356/334/4 366/341/4 368/342/4
f 357/264/1 358/228/1 360/229/1
f 357/264/1 360/229/1 359/265/1
f 357/335/3 359/336/3 369/343/3
f 358/335/4 370/343/4 360/336/4
f 359/336/3 371/344/3 369/343/3
f 360/336/4 370/343/4 372/344/4
f 361/268/1 362/232/1 364/233/1
f 361/268/1 364/233/1 363/269/1
f 361/337/3 363/338/3 373/345/3
f 362/337/4 374/345/4 364/338/4
f 363/338/3 375/346/3 373/345/3
f 364/338/4 374/345/4 376/346/4
f 365/259/6 367/262/6 368/226/6
f 365/259/6 368/226/6 366/223/6
f 369/263/6 371/266/6 372/230/6
f 369/263/6 372/230/6 370/227/6
f 373/267/6 375/270/6 376/234/6
f 373/267/6 376/234/6 374/231/6
f 377/252/1 378/216/1 380/219/1
f 377/252/1 380/219/1 379/255/1
f 377/347/3 379/350/3 393/359/3
f 378/347/4 394/359/4 380/350/4
f 379/350/3 395/362/3 393/359/3
f 380/350/4 394/359/4 396/362/4
f 381/319/6 383/320/6 382/287/6
f 382/287/6 383/320/6 384/288/6
f 385/321/6 387/322/6 386/291/6
f 386/291/6 387/322/6 388/292/6
f 389/323/6 391/324/6 390/295/6
f 390/295/6 391/324/6 392/296/6
f 393/251/6 395/257/6 396/221/6
f 393/251/6 396/221/6 394/215/6
f 397/327/6 399/328/6 398/280/6
f 398/280/6 399/328/6 400/284/6
f 401/317/1 402/281/1 403/318/1
f 401/368/2 513/438/2 402/367/2
f 401/369/3 403/370/3 515/440/3
f 401/369/3 515/440/3 513/439/3
f 402/281/1 404/282/1 403/318/1
f 402/367/2 513/438/2 514/437/2
f 402/369/4 514/439/4 516/440/4
f 402/369/4 516/440/4 404/370/4
f 403/368/5 404/367/5 515/438/5
f 404/367/5 516/437/5 515/438/5
f 405/319/1 406/287/1 407/320/1
f 405/368/2 517/438/2 406/367/2
f 405/371/3 407/372/3 519/442/3
f 405/371/3 519/442/3 517/441/3
f 406/287/1 408/288/1 407/320/1
f 406/367/2 517/438/2 518/437/2
f 406/371/4 518/441/4 520/442/4
f 406/371/4 520/442/4 408/372/4
f 407/368/5 408/367/5 519/438/5
f 408/367/5 520/437/5 519/438/5
f 409/321/1 410/291/1 411/322/1
f 409/368/2 521/438/2 410/367/2
f 409/373/3 411/374/3 523/444/3
f 409/373/3 523/444/3 521/443/3
f 410/291/1 412/292/1 411/322/1
f 410/367/2 521/438/2 522/437/2
f 410/373/4 522/443/4 524/444/4
f 410/373/4 524/444/4 412/374/4
f 411/368/5 412/367/5 523/438/5
f 412/367/5 524/437/5 523/438/5
f 413/323/1 414/295/1 415/324/1
f 413/368/2 525/438/2 414/367/2
f 413/375/3 415/376/3 527/446/3
f 413/375/3 527/446/3 525/445/3
f 414/295/1 416/296/1 415/324/1
f 414/367/2 525/438/2 526/437/2
f 414/375/4 526/445/4 528/446/4
f 414/375/4 528/446/4 416/376/4
f 415/368/5 416/367/5 527/438/5
f 416/367/5 528/437/5 527/438/5
f 417/253/1 418/217/1 419/258/1
f 417/378/2 497/428/2 498/427/2
f 417/378/2 498/427/2 418/377/2
f 417/379/3 419/380/3 433/389/3
f 417/379/3 433/389/3 481/419/3
f 417/379/3 481/419/3 497/429/3
f 418/217/1 420/222/1 419/258/1
f 418/379/4 434/389/4 420/380/4
f 418/379/4 482/419/4 434/389/4
f 418/379/4 498/429/4 482/419/4
f 419/378/5 420/377/5 499/428/5
f 419/380/3 435/390/3 433/389/3
f 419/380/3 499/430/3 435/390/3
f 420/377/5 500/427/5 499/428/5
f 420/380/4 434/389/4 436/390/4
f 420/380/4 436/390/4 500/430/4
f 421/259/1 422/223/1 423/262/1
f 421/378/2 501/428/2 502/427/2
f 421/378/2 502/427/2 422/377/2
f 421/381/3 423/382/3 439/392/3
f 421/381/3 437/391/3 485/421/3
f 421/381/3 439/392/3 437/391/3
f 421/381/3 485/421/3 501/431/3
f 422/223/1 424/226/1 423/262/1
f 422/381/4 438/391/4 440/392/4
f 422/381/4 440/392/4 424/382/4
f 422/381/4 486/421/4 438/391/4
f 422/381/4 502/431/4 486/421/4
f 423/378/5 424/377/5 503/428/5
f 423/382/3 503/432/3 439/392/3
f 424/377/5 504/427/5 503/428/5
f 424/382/4 440/392/4 504/432/4
f 425/263/1 426/227/1 427/266/1
f 425/378/2 505/428/2 506/427/2
f 425/378/2 506/427/2 426/377/2
f 425/383/3 427/384/3 441/393/3
f 425/383/3 441/393/3 489/423/3
f 425/383/3 489/423/3 505/433/3
f 426/227/1 428/230/1 427/266/1
f 426/383/4 442/393/4 428/384/4
f 426/383/4 490/423/4 442/393/4
f 426/383/4 506/433/4 490/423/4
f 427/378/5 428/377/5 507/428/5
f 427/384/3 443/394/3 441/393/3
f 427/384/3 507/434/3 443/394/3
f 428/377/5 508/427/5 507/428/5
f 428/384/4 442/393/4 444/394/4
f 428/384/4 444/394/4 508/434/4
f 429/267/1 430/231/1 431/270/1
f 429/378/2 509/428/2 510/427/2
f 429/378/2 510/427/2 430/377/2
f 429/385/3 431/386/3 445/395/3
f 429/385/3 445/395/3 493/425/3
f 429/385/3 493/425/3 509/435/3
f 430/231/1 432/234/1 431/270/1
f 430/385/4 446/395/4 432/386/4
f 430/385/4 494/425/4 446/395/4
f 430/385/4 510/435/4 494/425/4
f 431/378/5 432/377/5 511/428/5
f 431/386/3 447/396/3 445/395/3
f 431/386/3 511/436/3 447/396/3
f 432/377/5 512/427/5 511/428/5
f 432/386/4 446/395/4 448/396/4
f 432/386/4 448/396/4 512/436/4
f 433/254/6 435/256/6 434/218/6
f 433/388/5 434/387/5 482/417/5
f 433/388/5 482/417/5 481/418/5
f 434/218/6 435/256/6 436/220/6
f 435/388/2 483/418/2 436/387/2
f 435/390/3 499/430/3 483/420/3
f 436/387/2 483/418/2 484/417/2
f 436/390/4 484/420/4 500/430/4
f 437/260/6 439/261/6 438/224/6
f 437/388/5 438/387/5 486/417/5
f 437/388/5 486/417/5 485/418/5
f 438/224/6 439/261/6 440/225/6
f 439/388/2 487/418/2 440/387/2
f 439/392/3 503/432/3 487/422/3
f 440/387/2 487/418/2 488/417/2
f 440/392/4 488/422/4 504/432/4
f 441/264/6 443/265/6 442/228/6
f 441/388/5 442/387/5 490/417/5
f 441/388/5 490/417/5 489/418/5
f 442/228/6 443/265/6 444/229/6
f 443/388/2 491/418/2 444/387/2
f 443/394/3 507/434/3 491/424/3
f 444/387/2 491/418/2 492/417/2
f 444/394/4 492/424/4 508/434/4
f 445/268/6 447/269/6 446/232/6
f 445/388/5 446/387/5 494/417/5
f 445/388/5 494/417/5 493/418/5
f 446/232/6 447/269/6 448/233/6
f 447/388/2 495/418/2 448/387/2
f 447/396/3 511/436/3 495/426/3
f 448/387/2 495/418/2 496/417/2
f 448/396/4 496/426/4 512/436/4
f 449/243/1 450/235/1 451/244/1
f 449/398/2 465/408/2 450/397/2
f 449/399/3 451/400/3 467/410/3
f 449/399/3 467/410/3 465/409/3
f 450/235/1 452/236/1 451/244/1
f 450/397/2 465/408/2 466/407/2
f 450/399/4 466/409/4 468/410/4
f 450/399/4 468/410/4 452/400/4
f 451/398/5 452/397/5 467/408/5
f 452/397/5 468/407/5 467/408/5
f 453/245/1 454/237/1 455/246/1
f 453/398/2 469/408/2 454/397/2
f 453/401/3 455/402/3 471/412/3
f 453/401/3 471/412/3 469/411/3
f 454/237/1 456/238/1 455/246/1
f 454/397/2 469/408/2 470/407/2
f 454/401/4 470/411/4 472/412/4
f 454/401/4 472/412/4 456/402/4
f 455/398/5 456/397/5 471/408/5
f 456/397/5 472/407/5 471/408/5
f 457/247/1 458/239/1 459/248/1
f 457/398/2 473/408/2 458/397/2
f 457/403/3 459/404/3 475/414/3
f 457/403/3 475/414/3 473/413/3
f 458/239/1 460/240/1 459/248/1
f 458/397/2 473/408/2 474/407/2
f 458/403/4 474/413/4 476/414/4
f 458/403/4 476/414/4 460/404/4
f 459/398/5 460/397/5 475/408/5
f 460/397/5 476/407/5 475/408/5
f 461/249/1 462/241/1 463/250/1
f 461/398/2 477/408/2 462/397/2
f 461/405/3 463/406/3 479/416/3
f 461/405/3 479/416/3 477/415/3
f 462/241/1 464/242/1 463/250/1
f 462/397/2 477/408/2 478/407/2
f 462/405/4 478/415/4 480/416/4
f 462/405/4 480/416/4 464/406/4
f 463/398/5 464/397/5 479/408/5
f 464/397/5 480/407/5 479/408/5
f 465/243/6 467/244/6 466/235/6
f 466/235/6 467/244/6 468/236/6
f 469/245/6 471/246/6 470/237/6
f 470/237/6 471/246/6 472/238/6
f 473/247/6 475/248/6 474/239/6
f 474/239/6 475/248/6 476/240/6
f 477/249/6 479/250/6 478/241/6
f 478/241/6 479/250/6 480/242/6
f 481/254/1 482/218/1 484/220/1
f 481/254/1 484/220/1 483/256/1
f 481/419/3 483/420/3 499/430/3
f 481/419/3 499/430/3 497/429/3
f 482/419/4 498/429/4 500/430/4
f 482/419/4 500/430/4 484/420/4
f 485/260/1 486/224/1 488/225/1
f 485/260/1 488/225/1 487/261/1
f 485/421/3 487/422/3 501/431/3
f 486/421/4 502/431/4 488/422/4
f 487/422/3 503/432/3 501/431/3
f 488/422/4 502/431/4 504/432/4
f 489/264/1 490/228/1 492/229/1
f 489/264/1 492/229/1 491/265/1
f 489/423/3 491/424/3 505/433/3
f 490/423/4 506/433/4 492/424/4
f 491/424/3 507/434/3 505/433/3
f 492/424/4 506/433/4 508/434/4
f 493/268/1 494/232/1 496/233/1
f 493/268/1 496/233/1 495/269/1
f 493/425/3 495/426/3 509/435/3
f 494/425/4 510/435/4 496/426/4
f 495/426/3 511/436/3 509/435/3
f 496/426/4 510/435/4 512/436/4
f 497/253/6 499/258/6 500/222/6
f 497/253/6 500/222/6 498/217/6
f 501/259/6 503/262/6 504/226/6
f 501/259/6 504/226/6 502/223/6
f 505/263/6 507/266/6 508/230/6
f 505/263/6 508/230/6 506/227/6
f 509/267/6 511/270/6 512/234/6
f 509/267/6 512/234/6 510/231/6
f 513/317/6 515/318/6 514/281/6
f 514/281/6 515/318/6 516/282/6
f 517/319/6 519/320/6 518/287/6
f 518/287/6 519/320/6 520/288/6
f 521/321/6 523/322/6 522/291/6
f 522/291/6 523/322/6 524/292/6
f 525/323/6 527/324/6 526/295/6
f 526/295/6 527/324/6 528/296/6
f 529/317/1 530/281/1 531/318/1
f 529/448/2 641/518/2 530/447/2
f 529/449/3 531/450/3 643/520/3
f 529/449/3 643/520/3 641/519/3
f 530/281/1 532/282/1 531/318/1
f 530/447/2 641/518/2 642/517/2
f 530/449/4 642/519/4 644/520/4
f 530/449/4 644/520/4 532/450/4
f 531/448/5 532/447/5 643/518/5
f 532/447/5 644/517/5 643/518/5
f 533/319/1 534/287/1 535/320/1
f 533/448/2 645/518/2 534/447/2
f 533/451/3 535/452/3 647/522/3
f 533/451/3 647/522/3 645/521/3
f 534/287/1 536/288/1 535/320/1
f 534/447/2 645/518/2 646/517/2
f 534/451/4 646/521/4 648/522/4
f 534/451/4 648/522/4 536/452/4
f 535/448/5 536/447/5 647/518/5
f 536/447/5 648/517/5 647/518/5
f 537/321/1 538/291/1 539/322/1
f 537/448/2 649/518/2 538/447/2
f 537/453/3 539/454/3 651/524/3
f 537/453/3 651/524/3 649/523/3
f 538/291/1 540/292/1 539/322/1
f 538/447/2 649/518/2 650/517/2
f 538/453/4 650/523/4 652/524/4
f 538/453/4 652/524/4 540/454/4
f 539/448/5 540/447/5 651/518/5
f 540/447/5 652/517/5 651/518/5
f 541/323/1 542/295/1 543/324/1
f 541/448/2 653/518/2 542/447/2
f 541/455/3 543/456/3 655/526/3
f 541/455/3 655/526/3 653/525/3
f 542/295/1 544/296/1 543/324/1
f 542/447/2 653/518/2 654/517/2
f 542/455/4 654/525/4 656/526/4
f 542/455/4 656/526/4 544/456/4
f 543/448/5 544/447/5 655/518/5
f 544/447/5 656/517/5 655/518/5
f 545/253/1 546/217/1 547/258/1
f 545/458/2 625/508/2 626/507/2
f 545/458/2 626/507/2 546/457/2
f 545/459/3 547/460/3 561/469/3
f 545/459/3 561/469/3 609/499/3
f 545/459/3 609/499/3 625/509/3
f 546/217/1 548/222/1 547/258/1
f 546/459/4 562/469/4 548/460/4
f 546/459/4 610/499/4 562/469/4
f 546/459/4 626/509/4 610/499/4
f 547/458/5 548/457/5 627/508/5
f 547/460/3 563/470/3 561/469/3
f 547/460/3 627/510/3 563/470/3
f 548/457/5 628/507/5 627/508/5
f 548/460/4 562/469/4 564/470/4
f 548/460/4 564/470/4 628/510/4
f 549/259/1 550/223/1 551/262/1
f 549/458/2 629/508/2 630/507/2
f 549/458/2 630/507/2 550/457/2
f 549/461/3 551/462/3 567/472/3
f 549/461/3 565/471/3 613/501/3
f 549/461/3 567/472/3 565/471/3
f 549/461/3 613/501/3 629/511/3
f 550/223/1 552/226/1 551/262/1
f 550/461/4 566/471/4 568/472/4
f 550/461/4 568/472/4 552/462/4
f 550/461/4 614/501/4 566/471/4
f 550/461/4 630/511/4 614/501/4
f 551/458/5 552/457/5 631/508/5
f 551/462/3 631/512/3 567/472/3
f 552/457/5 632/507/5 631/508/5
f 552/462/4 568/472/4 632/512/4
f 553/263/1 554/227/1 555/266/1
f 553/458/2 633/508/2 634/507/2
f 553/458/2 634/507/2 554/457/2
f 553/463/3 555/464/3 569/473/3
f 553/463/3 569/473/3 617/503/3
f 553/463/3 617/503/3 633/513/3
f 554/227/1 556/230/1 555/266/1
f 554/463/4 570/473/4 556/464/4
f 554/463/4 618/503/4 570/473/4
f 554/463/4 634/513/4 618/503/4
f 555/458/5 556/457/5 635/508/5
f 555/464/3 571/474/3 569/473/3
f 555/464/3 635/514/3 571/474/3
f 556/457/5 636/507/5 635/508/5
f 556/464/4 570/473/4 572/474/4
f 556/464/4 572/474/4 636/514/4
f 557/267/1 558/231/1 559/270/1
f 557/458/2 637/508/2 638/507/2
f 557/458/2 638/507/2 558/457/2
f 557/465/3 559/466/3 573/475/3
f 557/465/3 573/475/3 621/505/3
f 557/465/3 621/505/3 637/515/3
f 558/231/1 560/234/1 559/270/1
f 558/465/4 574/475/4 560/466/4
f 558/465/4 622/505/4 574/475/4
f 558/465/4 638/515/4 622/505/4
f 559/458/5 560/457/5 639/508/5
f 559/466/3 575/476/3 573/475/3
f 559/466/3 639/516/3 575/476/3
f 560/457/5 640/507/5 639/508/5
f 560/466/4 574/475/4 576/476/4
f 560/466/4 576/476/4 640/516/4
f 561/254/6 563/256/6 562/218/6
f 561/468/5 562/467/5 610/497/5
f 561/468/5 610/497/5 609/498/5
f 562/218/6 563/256/6 564/220/6
f 563/468/2 611/498/2 564/467/2
f 563/470/3 627/510/3 611/500/3
f 564/467/2 611/498/2 612/497/2
f 564/470/4 612/500/4 628/510/4
f 565/260/6 567/261/6 566/224/6
f 565/468/5 566/467/5 614/497/5
f 565/468/5 614/497/5 613/498/5
f 566/224/6 567/261/6 568/225/6
f 567/468/2 615/498/2 568/467/2
f 567/472/3 631/512/3 615/502/3
f 568/467/2 615/498/2 616/497/2
f 568/472/4 616/502/4 632/512/4
f 569/264/6 571/265/6 570/228/6
f 569/468/5 570/467/5 618/497/5
f 569/468/5 618/497/5 617/498/5
f 570/228/6 571/265/6 572/229/6
f 571/468/2 619/498/2 572/467/2
f 571/474/3 635/514/3 619/504/3
f 572/467/2 619/498/2 620/497/2
f 572/474/4 620/504/4 636/514/4
f 573/268/6 575/269/6 574/232/6
f 573/468/5 574/467/5 622/497/5
f 573/468/5 622/497/5 621/498/5
f 574/232/6 575/269/6 576/233/6
f 575/468/2 623/498/2 576/467/2
f 575/476/3 639/516/3 623/506/3
f 576/467/2 623/498/2 624/497/2
f 576/476/4 624/506/4 640/516/4
f 577/243/1 578/235/1 579/244/1
f 577/478/2 593/488/2 578/477/2
f 577/479/3 579/480/3 595/490/3
f 577/479/3 595/490/3 593/489/3
f 578/235/1 580/236/1 579/244/1
f 578/477/2 593/488/2 594/487/2
f 578/479/4 594/489/4 596/490/4
f 578/479/4 596/490/4 580/480/4
f 579/478/5 580/477/5 595/488/5
f 580/477/5 596/487/5 595/488/5
f 581/245/1 582/237/1 583/246/1
f 581/478/2 597/488/2 582/477/2
f 581/481/3 583/482/3 599/492/3
f 581/481/3 599/492/3 597/491/3
f 582/237/1 584/238/1 583/246/1
f 582/477/2 597/488/2 598/487/2
f 582/481/4 598/491/4 600/492/4
f 582/481/4 600/492/4 584/482/4
f 583/478/5 584/477/5 599/488/5
f 584/477/5 600/487/5 599/488/5
f 585/247/1 586/239/1 587/248/1
f 585/478/2 601/488/2 586/477/2
f 585/483/3 587/484/3 603/494/3
f 585/483/3 603/494/3 601/493/3
f 586/239/1 588/240/1 587/248/1
f 586/477/2 601/488/2 602/487/2
f 586/483/4 602/493/4 604/494/4
f 586/483/4 604/494/4 588/484/4
f 587/478/5 588/477/5 603/488/5
f 588/477/5 604/487/5 603/488/5
f 589/249/1 590/241/1 591/250/1
f 589/478/2 605/488/2 590/477/2
f 589/485/3 591/486/3 607/496/3
f 589/485/3 607/496/3 605/495/3
f 590/241/1 592/242/1 591/250/1
f 590/477/2 605/488/2 606/487/2
f 590/485/4 606/495/4 608/496/4
f 590/485/4 608/496/4 592/486/4
f 591/478/5 592/477/5 607/488/5
f 592/477/5 608/487/5 607/488/5
f 593/243/6 595/244/6 594/235/6
f 594/235/6 595/244/6 596/236/6
f 597/245/6 599/246/6 598/237/6
f 598/237/6 599/246/6 600/238/6
f 601/247/6 603/248/6 602/239/6
f 602/239/6 603/248/6 604/240/6
f 605/249/6 607/250/6 606/241/6
f 606/241/6 607/250/6 608/242/6
f 609/254/1 610/218/1 612/220/1
f 609/254/1 612/220/1 611/256/1
f 609/499/3 611/500/3 627/510/3
f 609/499/3 627/510/3 625/509/3
f 610/499/4 626/509/4 628/510/4
f 610/499/4 628/510/4 612/500/4
f 613/260/1 614/224/1 616/225/1
f 613/260/1 616/225/1 615/261/1
f 613/501/3 615/502/3 629/511/3
f 614/501/4 630/511/4 616/502/4
f 615/502/3 631/512/3 629/511/3
f 616/502/4 630/511/4 632/512/4
f 617/264/1 618/228/1 620/229/1
f 617/264/1 620/229/1 619/265/1
f 617/503/3 619/504/3 633/513/3
f 618/503/4 634/513/4 620/504/4
f 619/504/3 635/514/3 633/513/3
f 620/504/4 634/513/4 636/514/4
f 621/268/1 622/232/1 624/233/1
f 621/268/1 624/233/1 623/269/1
f 621/505/3 623/506/3 637/515/3
f 622/505/4 638/515/4 624/506/4
f 623/506/3 639/516/3 637/515/3
f 624/506/4 638/515/4 640/516/4
f 625/253/6 627/258/6 628/222/6
f 625/253/6 628/222/6 626/217/6
f 629/259/6 631/262/6 632/226/6
f 629/259/6 632/226/6 630/223/6
f 633/263/6 635/266/6 636/230/6
f 633/263/6 636/230/6 634/227/6
f 637/267/6 639/270/6 640/234/6
f 637/267/6 640/234/6 638/231/6
f 641/317/6 643/318/6 642/281/6
f 642/281/6 643/318/6 644/282/6
f 645/319/6 647/320/6 646/287/6
f 646/287/6 647/320/6 648/288/6
f 649/321/6 651/322/6 650/291/6
f 650/291/6 651/322/6 652/292/6
f 653/323/6 655/324/6 654/295/6
f 654/295/6 655/324/6 656/296/6
f 657/309/6 659/310/6 658/285/6
f 658/285/6 659/310/6 660/286/6
f 661/311/6 663/312/6 662/289/6
f 662/289/6 663/312/6 664/290/6
f 665/313/6 667/314/6 666/293/6
f 666/293/6 667/314/6 668/294/6
f 669/315/6 671/316/6 670/297/6
f 670/297/6 671/316/6 672/298/6
f 673/325/6 675/326/6 674/279/6
f 674/279/6 675/326/6 676/283/6
f 677/329/6 679/330/6 678/299/6
f 678/299/6 679/330/6 680/300/6
