# exported by ae3d_export.py v3
# object: Street_BlockL6_Trim
mtllib Street_BlockL6_Trim.mtl
v -5.700000 11.580000 0.000000
v -5.700000 11.580000 0.260000
v -5.700000 12.000000 0.000000
v -5.700000 12.000000 0.260000
v -5.660000 -0.580000 0.000000
v -5.660000 -0.580000 0.130000
v -5.660000 0.480000 0.000000
v -5.660000 0.480000 0.130000
v -5.600000 2.500000 0.000000
v -5.600000 2.500000 0.049500
v -5.600000 2.570000 0.000000
v -5.600000 2.570000 0.049500
v -5.600000 5.650000 0.000000
v -5.600000 5.650000 0.049500
v -5.600000 5.720000 0.000000
v -5.600000 5.720000 0.049500
v -5.600000 8.800000 0.000000
v -5.600000 8.800000 0.049500
v -5.600000 8.870000 0.000000
v -5.600000 8.870000 0.049500
v -4.865000 0.290000 0.000000
v -4.865000 0.290000 0.090000
v -4.865000 0.370000 0.000000
v -4.865000 0.370000 0.090000
v -4.865000 3.440000 0.000000
v -4.865000 3.440000 0.090000
v -4.865000 3.520000 0.000000
v -4.865000 3.520000 0.090000
v -4.865000 6.590000 0.000000
v -4.865000 6.590000 0.090000
v -4.865000 6.670000 0.000000
v -4.865000 6.670000 0.090000
v -4.785000 0.360000 -0.235000
v -4.785000 0.360000 -0.190000
v -4.785000 1.930000 -0.235000
v -4.785000 1.930000 -0.190000
v -4.785000 3.510000 -0.235000
v -4.785000 3.510000 -0.190000
v -4.785000 5.080000 -0.235000
v -4.785000 5.080000 -0.190000
v -4.785000 6.660000 -0.235000
v -4.785000 6.660000 -0.190000
v -4.785000 8.230000 -0.235000
v -4.785000 8.230000 -0.190000
v -4.730000 0.415000 -0.235000
v -4.730000 0.415000 -0.190000
v -4.730000 1.875000 -0.235000
v -4.730000 1.875000 -0.190000
v -4.730000 3.565000 -0.235000
v -4.730000 3.565000 -0.190000
v -4.730000 5.025000 -0.235000
v -4.730000 5.025000 -0.190000
v -4.730000 6.715000 -0.235000
v -4.730000 6.715000 -0.190000
v -4.730000 8.175000 -0.235000
v -4.730000 8.175000 -0.190000
v -4.225000 0.410000 -0.225000
v -4.225000 0.410000 -0.195000
v -4.225000 1.880000 -0.225000
v -4.225000 1.880000 -0.195000
v -4.225000 3.560000 -0.225000
v -4.225000 3.560000 -0.195000
v -4.225000 5.030000 -0.225000
v -4.225000 5.030000 -0.195000
v -4.225000 6.710000 -0.225000
v -4.225000 6.710000 -0.195000
v -4.225000 8.180000 -0.225000
v -4.225000 8.180000 -0.195000
v -4.175000 0.410000 -0.225000
v -4.175000 0.410000 -0.195000
v -4.175000 1.880000 -0.225000
v -4.175000 1.880000 -0.195000
v -4.175000 3.560000 -0.225000
v -4.175000 3.560000 -0.195000
v -4.175000 5.030000 -0.225000
v -4.175000 5.030000 -0.195000
v -4.175000 6.710000 -0.225000
v -4.175000 6.710000 -0.195000
v -4.175000 8.180000 -0.225000
v -4.175000 8.180000 -0.195000
v -3.670000 0.415000 -0.235000
v -3.670000 0.415000 -0.190000
v -3.670000 1.875000 -0.235000
v -3.670000 1.875000 -0.190000
v -3.670000 3.565000 -0.235000
v -3.670000 3.565000 -0.190000
v -3.670000 5.025000 -0.235000
v -3.670000 5.025000 -0.190000
v -3.670000 6.715000 -0.235000
v -3.670000 6.715000 -0.190000
v -3.670000 8.175000 -0.235000
v -3.670000 8.175000 -0.190000
v -3.615000 0.360000 -0.235000
v -3.615000 0.360000 -0.190000
v -3.615000 1.930000 -0.235000
v -3.615000 1.930000 -0.190000
v -3.615000 3.510000 -0.235000
v -3.615000 3.510000 -0.190000
v -3.615000 5.080000 -0.235000
v -3.615000 5.080000 -0.190000
v -3.615000 6.660000 -0.235000
v -3.615000 6.660000 -0.190000
v -3.615000 8.230000 -0.235000
v -3.615000 8.230000 -0.190000
v -3.535000 0.290000 0.000000
v -3.535000 0.290000 0.090000
v -3.535000 0.370000 0.000000
v -3.535000 0.370000 0.090000
v -3.535000 3.440000 0.000000
v -3.535000 3.440000 0.090000
v -3.535000 3.520000 0.000000
v -3.535000 3.520000 0.090000
v -3.535000 6.590000 0.000000
v -3.535000 6.590000 0.090000
v -3.535000 6.670000 0.000000
v -3.535000 6.670000 0.090000
v -2.065000 0.290000 0.000000
v -2.065000 0.290000 0.090000
v -2.065000 0.370000 0.000000
v -2.065000 0.370000 0.090000
v -2.065000 3.440000 0.000000
v -2.065000 3.440000 0.090000
v -2.065000 3.520000 0.000000
v -2.065000 3.520000 0.090000
v -2.065000 6.590000 0.000000
v -2.065000 6.590000 0.090000
v -2.065000 6.670000 0.000000
v -2.065000 6.670000 0.090000
v -1.985000 0.360000 -0.235000
v -1.985000 0.360000 -0.190000
v -1.985000 1.930000 -0.235000
v -1.985000 1.930000 -0.190000
v -1.985000 3.510000 -0.235000
v -1.985000 3.510000 -0.190000
v -1.985000 5.080000 -0.235000
v -1.985000 5.080000 -0.190000
v -1.985000 6.660000 -0.235000
v -1.985000 6.660000 -0.190000
v -1.985000 8.230000 -0.235000
v -1.985000 8.230000 -0.190000
v -1.930000 0.415000 -0.235000
v -1.930000 0.415000 -0.190000
v -1.930000 1.875000 -0.235000
v -1.930000 1.875000 -0.190000
v -1.930000 3.565000 -0.235000
v -1.930000 3.565000 -0.190000
v -1.930000 5.025000 -0.235000
v -1.930000 5.025000 -0.190000
v -1.930000 6.715000 -0.235000
v -1.930000 6.715000 -0.190000
v -1.930000 8.175000 -0.235000
v -1.930000 8.175000 -0.190000
v -1.425000 0.410000 -0.225000
v -1.425000 0.410000 -0.195000
v -1.425000 1.880000 -0.225000
v -1.425000 1.880000 -0.195000
v -1.425000 3.560000 -0.225000
v -1.425000 3.560000 -0.195000
v -1.425000 5.030000 -0.225000
v -1.425000 5.030000 -0.195000
v -1.425000 6.710000 -0.225000
v -1.425000 6.710000 -0.195000
v -1.425000 8.180000 -0.225000
v -1.425000 8.180000 -0.195000
v -1.375000 0.410000 -0.225000
v -1.375000 0.410000 -0.195000
v -1.375000 1.880000 -0.225000
v -1.375000 1.880000 -0.195000
v -1.375000 3.560000 -0.225000
v -1.375000 3.560000 -0.195000
v -1.375000 5.030000 -0.225000
v -1.375000 5.030000 -0.195000
v -1.375000 6.710000 -0.225000
v -1.375000 6.710000 -0.195000
v -1.375000 8.180000 -0.225000
v -1.375000 8.180000 -0.195000
v -0.870000 0.415000 -0.235000
v -0.870000 0.415000 -0.190000
v -0.870000 1.875000 -0.235000
v -0.870000 1.875000 -0.190000
v -0.870000 3.565000 -0.235000
v -0.870000 3.565000 -0.190000
v -0.870000 5.025000 -0.235000
v -0.870000 5.025000 -0.190000
v -0.870000 6.715000 -0.235000
v -0.870000 6.715000 -0.190000
v -0.870000 8.175000 -0.235000
v -0.870000 8.175000 -0.190000
v -0.815000 0.360000 -0.235000
v -0.815000 0.360000 -0.190000
v -0.815000 1.930000 -0.235000
v -0.815000 1.930000 -0.190000
v -0.815000 3.510000 -0.235000
v -0.815000 3.510000 -0.190000
v -0.815000 5.080000 -0.235000
v -0.815000 5.080000 -0.190000
v -0.815000 6.660000 -0.235000
v -0.815000 6.660000 -0.190000
v -0.815000 8.230000 -0.235000
v -0.815000 8.230000 -0.190000
v -0.735000 0.290000 0.000000
v -0.735000 0.290000 0.090000
v -0.735000 0.370000 0.000000
v -0.735000 0.370000 0.090000
v -0.735000 3.440000 0.000000
v -0.735000 3.440000 0.090000
v -0.735000 3.520000 0.000000
v -0.735000 3.520000 0.090000
v -0.735000 6.590000 0.000000
v -0.735000 6.590000 0.090000
v -0.735000 6.670000 0.000000
v -0.735000 6.670000 0.090000
v 0.605000 -0.560000 0.000000
v 0.605000 -0.560000 0.144000
v 0.605000 2.030000 0.000000
v 0.605000 2.030000 0.144000
v 0.715000 -0.570000 -0.235000
v 0.715000 -0.570000 -0.190000
v 0.715000 1.880000 -0.235000
v 0.715000 1.880000 -0.190000
v 0.735000 3.440000 0.000000
v 0.735000 3.440000 0.090000
v 0.735000 3.520000 0.000000
v 0.735000 3.520000 0.090000
v 0.735000 6.590000 0.000000
v 0.735000 6.590000 0.090000
v 0.735000 6.670000 0.000000
v 0.735000 6.670000 0.090000
v 0.770000 -0.515000 -0.235000
v 0.770000 -0.515000 -0.190000
v 0.770000 1.825000 -0.235000
v 0.770000 1.825000 -0.190000
v 0.815000 3.510000 -0.235000
v 0.815000 3.510000 -0.190000
v 0.815000 5.080000 -0.235000
v 0.815000 5.080000 -0.190000
v 0.815000 6.660000 -0.235000
v 0.815000 6.660000 -0.190000
v 0.815000 8.230000 -0.235000
v 0.815000 8.230000 -0.190000
v 0.870000 3.565000 -0.235000
v 0.870000 3.565000 -0.190000
v 0.870000 5.025000 -0.235000
v 0.870000 5.025000 -0.190000
v 0.870000 6.715000 -0.235000
v 0.870000 6.715000 -0.190000
v 0.870000 8.175000 -0.235000
v 0.870000 8.175000 -0.190000
v 1.375000 3.560000 -0.225000
v 1.375000 3.560000 -0.195000
v 1.375000 5.030000 -0.225000
v 1.375000 5.030000 -0.195000
v 1.375000 6.710000 -0.225000
v 1.375000 6.710000 -0.195000
v 1.375000 8.180000 -0.225000
v 1.375000 8.180000 -0.195000
v 1.425000 3.560000 -0.225000
v 1.425000 3.560000 -0.195000
v 1.425000 5.030000 -0.225000
v 1.425000 5.030000 -0.195000
v 1.425000 6.710000 -0.225000
v 1.425000 6.710000 -0.195000
v 1.425000 8.180000 -0.225000
v 1.425000 8.180000 -0.195000
v 1.930000 3.565000 -0.235000
v 1.930000 3.565000 -0.190000
v 1.930000 5.025000 -0.235000
v 1.930000 5.025000 -0.190000
v 1.930000 6.715000 -0.235000
v 1.930000 6.715000 -0.190000
v 1.930000 8.175000 -0.235000
v 1.930000 8.175000 -0.190000
v 1.985000 3.510000 -0.235000
v 1.985000 3.510000 -0.190000
v 1.985000 5.080000 -0.235000
v 1.985000 5.080000 -0.190000
v 1.985000 6.660000 -0.235000
v 1.985000 6.660000 -0.190000
v 1.985000 8.230000 -0.235000
v 1.985000 8.230000 -0.190000
v 2.030000 -0.515000 -0.235000
v 2.030000 -0.515000 -0.190000
v 2.030000 1.825000 -0.235000
v 2.030000 1.825000 -0.190000
v 2.065000 3.440000 0.000000
v 2.065000 3.440000 0.090000
v 2.065000 3.520000 0.000000
v 2.065000 3.520000 0.090000
v 2.065000 6.590000 0.000000
v 2.065000 6.590000 0.090000
v 2.065000 6.670000 0.000000
v 2.065000 6.670000 0.090000
v 2.085000 -0.570000 -0.235000
v 2.085000 -0.570000 -0.190000
v 2.085000 1.880000 -0.235000
v 2.085000 1.880000 -0.190000
v 2.195000 -0.560000 0.000000
v 2.195000 -0.560000 0.144000
v 2.195000 2.030000 0.000000
v 2.195000 2.030000 0.144000
v 3.535000 0.290000 0.000000
v 3.535000 0.290000 0.090000
v 3.535000 0.370000 0.000000
v 3.535000 0.370000 0.090000
v 3.535000 3.440000 0.000000
v 3.535000 3.440000 0.090000
v 3.535000 3.520000 0.000000
v 3.535000 3.520000 0.090000
v 3.535000 6.590000 0.000000
v 3.535000 6.590000 0.090000
v 3.535000 6.670000 0.000000
v 3.535000 6.670000 0.090000
v 3.615000 0.360000 -0.235000
v 3.615000 0.360000 -0.190000
v 3.615000 1.930000 -0.235000
v 3.615000 1.930000 -0.190000
v 3.615000 3.510000 -0.235000
v 3.615000 3.510000 -0.190000
v 3.615000 5.080000 -0.235000
v 3.615000 5.080000 -0.190000
v 3.615000 6.660000 -0.235000
v 3.615000 6.660000 -0.190000
v 3.615000 8.230000 -0.235000
v 3.615000 8.230000 -0.190000
v 3.670000 0.415000 -0.235000
v 3.670000 0.415000 -0.190000
v 3.670000 1.875000 -0.235000
v 3.670000 1.875000 -0.190000
v 3.670000 3.565000 -0.235000
v 3.670000 3.565000 -0.190000
v 3.670000 5.025000 -0.235000
v 3.670000 5.025000 -0.190000
v 3.670000 6.715000 -0.235000
v 3.670000 6.715000 -0.190000
v 3.670000 8.175000 -0.235000
v 3.670000 8.175000 -0.190000
v 4.175000 0.410000 -0.225000
v 4.175000 0.410000 -0.195000
v 4.175000 1.880000 -0.225000
v 4.175000 1.880000 -0.195000
v 4.175000 3.560000 -0.225000
v 4.175000 3.560000 -0.195000
v 4.175000 5.030000 -0.225000
v 4.175000 5.030000 -0.195000
v 4.175000 6.710000 -0.225000
v 4.175000 6.710000 -0.195000
v 4.175000 8.180000 -0.225000
v 4.175000 8.180000 -0.195000
v 4.225000 0.410000 -0.225000
v 4.225000 0.410000 -0.195000
v 4.225000 1.880000 -0.225000
v 4.225000 1.880000 -0.195000
v 4.225000 3.560000 -0.225000
v 4.225000 3.560000 -0.195000
v 4.225000 5.030000 -0.225000
v 4.225000 5.030000 -0.195000
v 4.225000 6.710000 -0.225000
v 4.225000 6.710000 -0.195000
v 4.225000 8.180000 -0.225000
v 4.225000 8.180000 -0.195000
v 4.730000 0.415000 -0.235000
v 4.730000 0.415000 -0.190000
v 4.730000 1.875000 -0.235000
v 4.730000 1.875000 -0.190000
v 4.730000 3.565000 -0.235000
v 4.730000 3.565000 -0.190000
v 4.730000 5.025000 -0.235000
v 4.730000 5.025000 -0.190000
v 4.730000 6.715000 -0.235000
v 4.730000 6.715000 -0.190000
v 4.730000 8.175000 -0.235000
v 4.730000 8.175000 -0.190000
v 4.785000 0.360000 -0.235000
v 4.785000 0.360000 -0.190000
v 4.785000 1.930000 -0.235000
v 4.785000 1.930000 -0.190000
v 4.785000 3.510000 -0.235000
v 4.785000 3.510000 -0.190000
v 4.785000 5.080000 -0.235000
v 4.785000 5.080000 -0.190000
v 4.785000 6.660000 -0.235000
v 4.785000 6.660000 -0.190000
v 4.785000 8.230000 -0.235000
v 4.785000 8.230000 -0.190000
v 4.865000 0.290000 0.000000
v 4.865000 0.290000 0.090000
v 4.865000 0.370000 0.000000
v 4.865000 0.370000 0.090000
v 4.865000 3.440000 0.000000
v 4.865000 3.440000 0.090000
v 4.865000 3.520000 0.000000
v 4.865000 3.520000 0.090000
v 4.865000 6.590000 0.000000
v 4.865000 6.590000 0.090000
v 4.865000 6.670000 0.000000
v 4.865000 6.670000 0.090000
v 5.600000 2.500000 0.000000
v 5.600000 2.500000 0.049500
v 5.600000 2.570000 0.000000
v 5.600000 2.570000 0.049500
v 5.600000 5.650000 0.000000
v 5.600000 5.650000 0.049500
v 5.600000 5.720000 0.000000
v 5.600000 5.720000 0.049500
v 5.600000 8.800000 0.000000
v 5.600000 8.800000 0.049500
v 5.600000 8.870000 0.000000
v 5.600000 8.870000 0.049500
v 5.660000 -0.580000 0.000000
v 5.660000 -0.580000 0.130000
v 5.660000 0.480000 0.000000
v 5.660000 0.480000 0.130000
v 5.700000 11.580000 0.000000
v 5.700000 11.580000 0.260000
v 5.700000 12.000000 0.000000
v 5.700000 12.000000 0.260000
vt -12.540000 -0.572000
vt -12.540000 0.000000
vt -12.540000 25.476000
vt -12.540000 26.400000
vt -12.452000 -1.276000
vt -12.452000 -0.286000
vt -12.452000 0.000000
vt -12.452000 1.056000
vt -12.320000 -0.108900
vt -12.320000 0.000000
vt -12.320000 5.500000
vt -12.320000 5.654000
vt -12.320000 12.430000
vt -12.320000 12.584000
vt -12.320000 19.360001
vt -12.320000 19.514000
vt -10.702999 -0.198000
vt -10.702999 0.000000
vt -10.702999 0.638000
vt -10.702999 0.814000
vt -10.702999 7.568000
vt -10.702999 7.744000
vt -10.702999 14.498000
vt -10.702999 14.674000
vt -10.527000 0.418000
vt -10.527000 0.517000
vt -10.527000 0.792000
vt -10.527000 4.246000
vt -10.527000 7.722000
vt -10.527000 11.176001
vt -10.527000 14.651999
vt -10.527000 18.106001
vt -10.406000 0.418000
vt -10.406000 0.517000
vt -10.406000 0.913000
vt -10.406000 4.125000
vt -10.406000 7.843000
vt -10.406000 11.055000
vt -10.406000 14.773001
vt -10.406000 17.985001
vt -9.295000 0.429000
vt -9.295000 0.495000
vt -9.295000 0.902000
vt -9.295000 4.136000
vt -9.295000 7.832000
vt -9.295000 11.066001
vt -9.295000 14.762000
vt -9.295000 17.996000
vt -9.185000 0.429000
vt -9.185000 0.495000
vt -9.185000 0.902000
vt -9.185000 4.136000
vt -9.185000 7.832000
vt -9.185000 11.066001
vt -9.185000 14.762000
vt -9.185000 17.996000
vt -8.074000 0.418000
vt -8.074000 0.517000
vt -8.074000 0.913000
vt -8.074000 4.125000
vt -8.074000 7.843000
vt -8.074000 11.055000
vt -8.074000 14.773001
vt -8.074000 17.985001
vt -7.953000 0.418000
vt -7.953000 0.517000
vt -7.953000 0.792000
vt -7.953000 4.246000
vt -7.953000 7.722000
vt -7.953000 11.176001
vt -7.953000 14.651999
vt -7.953000 18.106001
vt -7.777000 -0.198000
vt -7.777000 0.000000
vt -7.777000 0.638000
vt -7.777000 0.814000
vt -7.777000 7.568000
vt -7.777000 7.744000
vt -7.777000 14.498000
vt -7.777000 14.674000
vt -4.543000 -0.198000
vt -4.543000 0.000000
vt -4.543000 0.638000
vt -4.543000 0.814000
vt -4.543000 7.568000
vt -4.543000 7.744000
vt -4.543000 14.498000
vt -4.543000 14.674000
vt -4.367000 0.418000
vt -4.367000 0.517000
vt -4.367000 0.792000
vt -4.367000 4.246000
vt -4.367000 7.722000
vt -4.367000 11.176001
vt -4.367000 14.651999
vt -4.367000 18.106001
vt -4.246000 0.418000
vt -4.246000 0.517000
vt -4.246000 0.913000
vt -4.246000 4.125000
vt -4.246000 7.843000
vt -4.246000 11.055000
vt -4.246000 14.773001
vt -4.246000 17.985001
vt -3.135000 0.429000
vt -3.135000 0.495000
vt -3.135000 0.902000
vt -3.135000 4.136000
vt -3.135000 7.832000
vt -3.135000 11.066001
vt -3.135000 14.762000
vt -3.135000 17.996000
vt -3.025000 0.429000
vt -3.025000 0.495000
vt -3.025000 0.902000
vt -3.025000 4.136000
vt -3.025000 7.832000
vt -3.025000 11.066001
vt -3.025000 14.762000
vt -3.025000 17.996000
vt -1.914000 0.418000
vt -1.914000 0.517000
vt -1.914000 0.913000
vt -1.914000 4.125000
vt -1.914000 7.843000
vt -1.914000 11.055000
vt -1.914000 14.773001
vt -1.914000 17.985001
vt -1.793000 0.418000
vt -1.793000 0.517000
vt -1.793000 0.792000
vt -1.793000 4.246000
vt -1.793000 7.722000
vt -1.793000 11.176001
vt -1.793000 14.651999
vt -1.793000 18.106001
vt -1.617000 -0.198000
vt -1.617000 0.000000
vt -1.617000 0.638000
vt -1.617000 0.814000
vt -1.617000 7.568000
vt -1.617000 7.744000
vt -1.617000 14.498000
vt -1.617000 14.674000
vt -0.572000 25.476000
vt -0.572000 26.400000
vt -0.316800 -1.232000
vt -0.316800 4.466000
vt -0.286000 -1.276000
vt -0.286000 1.056000
vt -0.198000 0.638000
vt -0.198000 0.814000
vt -0.198000 7.568000
vt -0.198000 7.744000
vt -0.198000 14.498000
vt -0.198000 14.674000
vt -0.108900 5.500000
vt -0.108900 5.654000
vt -0.108900 12.430000
vt -0.108900 12.584000
vt -0.108900 19.360001
vt -0.108900 19.514000
vt 0.000000 -1.276000
vt 0.000000 -1.232000
vt 0.000000 0.638000
vt 0.000000 0.814000
vt 0.000000 1.056000
vt 0.000000 4.466000
vt 0.000000 5.500000
vt 0.000000 5.654000
vt 0.000000 7.568000
vt 0.000000 7.744000
vt 0.000000 12.430000
vt 0.000000 12.584000
vt 0.000000 14.498000
vt 0.000000 14.674000
vt 0.000000 19.360001
vt 0.000000 19.514000
vt 0.000000 25.476000
vt 0.000000 26.400000
vt 0.418000 -1.254000
vt 0.418000 -1.133000
vt 0.418000 0.792000
vt 0.418000 0.913000
vt 0.418000 4.015000
vt 0.418000 4.125000
vt 0.418000 4.136000
vt 0.418000 4.246000
vt 0.418000 7.722000
vt 0.418000 7.843000
vt 0.418000 11.055000
vt 0.418000 11.176001
vt 0.418000 14.651999
vt 0.418000 14.773001
vt 0.418000 17.985001
vt 0.418000 18.106001
vt 0.429000 0.902000
vt 0.429000 4.136000
vt 0.429000 7.832000
vt 0.429000 11.066001
vt 0.429000 14.762000
vt 0.429000 17.996000
vt 0.495000 0.902000
vt 0.495000 4.136000
vt 0.495000 7.832000
vt 0.495000 11.066001
vt 0.495000 14.762000
vt 0.495000 17.996000
vt 0.517000 -1.254000
vt 0.517000 -1.133000
vt 0.517000 0.792000
vt 0.517000 0.913000
vt 0.517000 4.015000
vt 0.517000 4.125000
vt 0.517000 4.136000
vt 0.517000 4.246000
vt 0.517000 7.722000
vt 0.517000 7.843000
vt 0.517000 11.055000
vt 0.517000 11.176001
vt 0.517000 14.651999
vt 0.517000 14.773001
vt 0.517000 17.985001
vt 0.517000 18.106001
vt 1.331000 -1.232000
vt 1.331000 -0.316800
vt 1.331000 0.000000
vt 1.331000 4.466000
vt 1.573000 -1.254000
vt 1.573000 0.418000
vt 1.573000 0.517000
vt 1.573000 4.136000
vt 1.617000 -0.198000
vt 1.617000 0.000000
vt 1.617000 7.568000
vt 1.617000 7.744000
vt 1.617000 14.498000
vt 1.617000 14.674000
vt 1.694000 -1.133000
vt 1.694000 0.418000
vt 1.694000 0.517000
vt 1.694000 4.015000
vt 1.793000 0.418000
vt 1.793000 0.517000
vt 1.793000 7.722000
vt 1.793000 11.176001
vt 1.793000 14.651999
vt 1.793000 18.106001
vt 1.914000 0.418000
vt 1.914000 0.517000
vt 1.914000 7.843000
vt 1.914000 11.055000
vt 1.914000 14.773001
vt 1.914000 17.985001
vt 3.025000 0.429000
vt 3.025000 0.495000
vt 3.025000 7.832000
vt 3.025000 11.066001
vt 3.025000 14.762000
vt 3.025000 17.996000
vt 3.135000 0.429000
vt 3.135000 0.495000
vt 3.135000 7.832000
vt 3.135000 11.066001
vt 3.135000 14.762000
vt 3.135000 17.996000
vt 4.246000 0.418000
vt 4.246000 0.517000
vt 4.246000 7.843000
vt 4.246000 11.055000
vt 4.246000 14.773001
vt 4.246000 17.985001
vt 4.367000 0.418000
vt 4.367000 0.517000
vt 4.367000 7.722000
vt 4.367000 11.176001
vt 4.367000 14.651999
vt 4.367000 18.106001
vt 4.466000 -1.133000
vt 4.466000 0.418000
vt 4.466000 0.517000
vt 4.466000 4.015000
vt 4.543000 -0.198000
vt 4.543000 0.000000
vt 4.543000 7.568000
vt 4.543000 7.744000
vt 4.543000 14.498000
vt 4.543000 14.674000
vt 4.587000 -1.254000
vt 4.587000 0.418000
vt 4.587000 0.517000
vt 4.587000 4.136000
vt 4.829000 -1.232000
vt 4.829000 -0.316800
vt 4.829000 0.000000
vt 4.829000 4.466000
vt 7.777000 -0.198000
vt 7.777000 0.000000
vt 7.777000 0.638000
vt 7.777000 0.814000
vt 7.777000 7.568000
vt 7.777000 7.744000
vt 7.777000 14.498000
vt 7.777000 14.674000
vt 7.953000 0.418000
vt 7.953000 0.517000
vt 7.953000 0.792000
vt 7.953000 4.246000
vt 7.953000 7.722000
vt 7.953000 11.176001
vt 7.953000 14.651999
vt 7.953000 18.106001
vt 8.074000 0.418000
vt 8.074000 0.517000
vt 8.074000 0.913000
vt 8.074000 4.125000
vt 8.074000 7.843000
vt 8.074000 11.055000
vt 8.074000 14.773001
vt 8.074000 17.985001
vt 9.185000 0.429000
vt 9.185000 0.495000
vt 9.185000 0.902000
vt 9.185000 4.136000
vt 9.185000 7.832000
vt 9.185000 11.066001
vt 9.185000 14.762000
vt 9.185000 17.996000
vt 9.295000 0.429000
vt 9.295000 0.495000
vt 9.295000 0.902000
vt 9.295000 4.136000
vt 9.295000 7.832000
vt 9.295000 11.066001
vt 9.295000 14.762000
vt 9.295000 17.996000
vt 10.406000 0.418000
vt 10.406000 0.517000
vt 10.406000 0.913000
vt 10.406000 4.125000
vt 10.406000 7.843000
vt 10.406000 11.055000
vt 10.406000 14.773001
vt 10.406000 17.985001
vt 10.527000 0.418000
vt 10.527000 0.517000
vt 10.527000 0.792000
vt 10.527000 4.246000
vt 10.527000 7.722000
vt 10.527000 11.176001
vt 10.527000 14.651999
vt 10.527000 18.106001
vt 10.702999 -0.198000
vt 10.702999 0.000000
vt 10.702999 0.638000
vt 10.702999 0.814000
vt 10.702999 7.568000
vt 10.702999 7.744000
vt 10.702999 14.498000
vt 10.702999 14.674000
vt 12.320000 -0.108900
vt 12.320000 0.000000
vt 12.320000 5.500000
vt 12.320000 5.654000
vt 12.320000 12.430000
vt 12.320000 12.584000
vt 12.320000 19.360001
vt 12.320000 19.514000
vt 12.452000 -1.276000
vt 12.452000 -0.286000
vt 12.452000 0.000000
vt 12.452000 1.056000
vt 12.540000 -0.572000
vt 12.540000 0.000000
vt 12.540000 25.476000
vt 12.540000 26.400000
vn -1.000000 0.000000 0.000000
vn 0.000000 -1.000000 0.000000
vn 0.000000 0.000000 -1.000000
vn 0.000000 0.000000 1.000000
vn 0.000000 1.000000 0.000000
vn 1.000000 0.000000 0.000000
usemtl TrimStone
f 1/2/2 413/374/2 2/1/2
f 1/3/3 3/4/3 415/376/3
f 1/3/3 415/376/3 413/375/3
f 1/179/1 2/145/1 3/180/1
f 2/1/2 413/374/2 414/373/2
f 2/3/4 414/375/4 416/376/4
f 2/3/4 416/376/4 4/4/4
f 2/145/1 4/146/1 3/180/1
f 3/2/5 4/1/5 415/374/5
f 4/1/5 416/373/5 415/374/5
f 5/5/3 7/8/3 411/372/3
f 5/5/3 411/372/3 409/369/3
f 5/7/2 409/371/2 6/6/2
f 5/163/1 6/149/1 7/167/1
f 6/5/4 410/369/4 412/372/4
f 6/5/4 412/372/4 8/8/4
f 6/6/2 409/371/2 410/370/2
f 6/149/1 8/150/1 7/167/1
f 7/7/5 8/6/5 411/371/5
f 8/6/5 412/370/5 411/371/5
f 9/10/2 397/362/2 10/9/2
f 9/11/3 11/12/3 399/364/3
f 9/11/3 399/364/3 397/363/3
f 9/169/1 10/157/1 11/170/1
f 10/9/2 397/362/2 398/361/2
f 10/11/4 398/363/4 400/364/4
f 10/11/4 400/364/4 12/12/4
f 10/157/1 12/158/1 11/170/1
f 11/10/5 12/9/5 399/362/5
f 12/9/5 400/361/5 399/362/5
f 13/10/2 401/362/2 14/9/2
f 13/13/3 15/14/3 403/366/3
f 13/13/3 403/366/3 401/365/3
f 13/173/1 14/159/1 15/174/1
f 14/9/2 401/362/2 402/361/2
f 14/13/4 402/365/4 404/366/4
f 14/13/4 404/366/4 16/14/4
f 14/159/1 16/160/1 15/174/1
f 15/10/5 16/9/5 403/362/5
f 16/9/5 404/361/5 403/362/5
f 17/10/2 405/362/2 18/9/2
f 17/15/3 19/16/3 407/368/3
f 17/15/3 407/368/3 405/367/3
f 17/177/1 18/161/1 19/178/1
f 18/9/2 405/362/2 406/361/2
f 18/15/4 406/367/4 408/368/4
f 18/15/4 408/368/4 20/16/4
f 18/161/1 20/162/1 19/178/1
f 19/10/5 20/9/5 407/362/5
f 20/9/5 408/361/5 407/362/5
f 21/18/2 105/74/2 22/17/2
f 21/19/3 23/20/3 107/76/3
f 21/19/3 107/76/3 105/75/3
f 21/165/1 22/151/1 23/166/1
f 22/17/2 105/74/2 106/73/2
f 22/19/4 106/75/4 108/76/4
f 22/19/4 108/76/4 24/20/4
f 22/151/1 24/152/1 23/166/1
f 23/18/5 24/17/5 107/74/5
f 24/17/5 108/73/5 107/74/5
f 25/18/2 109/74/2 26/17/2
f 25/21/3 27/22/3 111/78/3
f 25/21/3 111/78/3 109/77/3
f 25/171/1 26/153/1 27/172/1
f 26/17/2 109/74/2 110/73/2
f 26/21/4 110/77/4 112/78/4
f 26/21/4 112/78/4 28/22/4
f 26/153/1 28/154/1 27/172/1
f 27/18/5 28/17/5 111/74/5
f 28/17/5 112/73/5 111/74/5
f 29/18/2 113/74/2 30/17/2
f 29/23/3 31/24/3 115/80/3
f 29/23/3 115/80/3 113/79/3
f 29/175/1 30/155/1 31/176/1
f 30/17/2 113/74/2 114/73/2
f 30/23/4 114/79/4 116/80/4
f 30/23/4 116/80/4 32/24/4
f 30/155/1 32/156/1 31/176/1
f 31/18/5 32/17/5 115/74/5
f 32/17/5 116/73/5 115/74/5
f 33/26/2 93/66/2 34/25/2
f 33/27/3 35/28/3 45/35/3
f 33/27/3 45/35/3 93/67/3
f 33/211/1 34/183/1 36/188/1
f 33/211/1 36/188/1 35/216/1
f 34/25/2 93/66/2 94/65/2
f 34/27/4 46/35/4 36/28/4
f 34/27/4 94/67/4 46/35/4
f 35/26/5 36/25/5 96/65/5
f 35/26/5 96/65/5 95/66/5
f 35/28/3 47/36/3 45/35/3
f 35/28/3 95/68/3 47/36/3
f 36/28/4 46/35/4 48/36/4
f 36/28/4 48/36/4 96/68/4
f 37/26/2 97/66/2 38/25/2
f 37/29/3 39/30/3 51/38/3
f 37/29/3 49/37/3 97/69/3
f 37/29/3 51/38/3 49/37/3
f 37/217/1 38/189/1 40/192/1
f 37/217/1 40/192/1 39/220/1
f 38/25/2 97/66/2 98/65/2
f 38/29/4 50/37/4 52/38/4
f 38/29/4 52/38/4 40/30/4
f 38/29/4 98/69/4 50/37/4
f 39/26/5 40/25/5 100/65/5
f 39/26/5 100/65/5 99/66/5
f 39/30/3 99/70/3 51/38/3
f 40/30/4 52/38/4 100/70/4
f 41/26/2 101/66/2 42/25/2
f 41/31/3 43/32/3 53/39/3
f 41/31/3 53/39/3 101/71/3
f 41/221/1 42/193/1 44/196/1
f 41/221/1 44/196/1 43/224/1
f 42/25/2 101/66/2 102/65/2
f 42/31/4 54/39/4 44/32/4
f 42/31/4 102/71/4 54/39/4
f 43/26/5 44/25/5 104/65/5
f 43/26/5 104/65/5 103/66/5
f 43/32/3 55/40/3 53/39/3
f 43/32/3 103/72/3 55/40/3
f 44/32/4 54/39/4 56/40/4
f 44/32/4 56/40/4 104/72/4
f 45/34/5 46/33/5 81/58/5
f 45/35/3 81/59/3 93/67/3
f 45/212/6 47/214/6 48/186/6
f 45/212/6 48/186/6 46/184/6
f 46/33/5 82/57/5 81/58/5
f 46/35/4 94/67/4 82/59/4
f 47/34/2 83/58/2 84/57/2
f 47/34/2 84/57/2 48/33/2
f 47/36/3 95/68/3 83/60/3
f 48/36/4 84/60/4 96/68/4
f 49/34/5 50/33/5 85/58/5
f 49/37/3 85/61/3 97/69/3
f 49/218/6 51/219/6 52/191/6
f 49/218/6 52/191/6 50/190/6
f 50/33/5 86/57/5 85/58/5
f 50/37/4 98/69/4 86/61/4
f 51/34/2 87/58/2 88/57/2
f 51/34/2 88/57/2 52/33/2
f 51/38/3 99/70/3 87/62/3
f 52/38/4 88/62/4 100/70/4
f 53/34/5 54/33/5 89/58/5
f 53/39/3 89/63/3 101/71/3
f 53/222/6 55/223/6 56/195/6
f 53/222/6 56/195/6 54/194/6
f 54/33/5 90/57/5 89/58/5
f 54/39/4 102/71/4 90/63/4
f 55/34/2 91/58/2 92/57/2
f 55/34/2 92/57/2 56/33/2
f 55/40/3 103/72/3 91/64/3
f 56/40/4 92/64/4 104/72/4
f 57/42/2 69/50/2 58/41/2
f 57/43/3 59/44/3 71/52/3
f 57/43/3 71/52/3 69/51/3
f 57/203/1 58/197/1 59/204/1
f 58/41/2 69/50/2 70/49/2
f 58/43/4 70/51/4 72/52/4
f 58/43/4 72/52/4 60/44/4
f 58/197/1 60/198/1 59/204/1
f 59/42/5 60/41/5 71/50/5
f 60/41/5 72/49/5 71/50/5
f 61/42/2 73/50/2 62/41/2
f 61/45/3 63/46/3 75/54/3
f 61/45/3 75/54/3 73/53/3
f 61/205/1 62/199/1 63/206/1
f 62/41/2 73/50/2 74/49/2
f 62/45/4 74/53/4 76/54/4
f 62/45/4 76/54/4 64/46/4
f 62/199/1 64/200/1 63/206/1
f 63/42/5 64/41/5 75/50/5
f 64/41/5 76/49/5 75/50/5
f 65/42/2 77/50/2 66/41/2
f 65/47/3 67/48/3 79/56/3
f 65/47/3 79/56/3 77/55/3
f 65/207/1 66/201/1 67/208/1
f 66/41/2 77/50/2 78/49/2
f 66/47/4 78/55/4 80/56/4
f 66/47/4 80/56/4 68/48/4
f 66/201/1 68/202/1 67/208/1
f 67/42/5 68/41/5 79/50/5
f 68/41/5 80/49/5 79/50/5
f 69/203/6 71/204/6 70/197/6
f 70/197/6 71/204/6 72/198/6
f 73/205/6 75/206/6 74/199/6
f 74/199/6 75/206/6 76/200/6
f 77/207/6 79/208/6 78/201/6
f 78/201/6 79/208/6 80/202/6
f 81/59/3 83/60/3 93/67/3
f 81/212/1 82/184/1 83/214/1
f 82/59/4 94/67/4 84/60/4
f 82/184/1 84/186/1 83/214/1
f 83/60/3 95/68/3 93/67/3
f 84/60/4 94/67/4 96/68/4
f 85/61/3 87/62/3 97/69/3
f 85/218/1 86/190/1 87/219/1
f 86/61/4 98/69/4 88/62/4
f 86/190/1 88/191/1 87/219/1
f 87/62/3 99/70/3 97/69/3
f 88/62/4 98/69/4 100/70/4
f 89/63/3 91/64/3 101/71/3
f 89/222/1 90/194/1 91/223/1
f 90/63/4 102/71/4 92/64/4
f 90/194/1 92/195/1 91/223/1
f 91/64/3 103/72/3 101/71/3
f 92/64/4 102/71/4 104/72/4
f 93/211/6 95/216/6 94/183/6
f 94/183/6 95/216/6 96/188/6
f 97/217/6 99/220/6 98/189/6
f 98/189/6 99/220/6 100/192/6
f 101/221/6 103/224/6 102/193/6
f 102/193/6 103/224/6 104/196/6
f 105/165/6 107/166/6 106/151/6
f 106/151/6 107/166/6 108/152/6
f 109/171/6 111/172/6 110/153/6
f 110/153/6 111/172/6 112/154/6
f 113/175/6 115/176/6 114/155/6
f 114/155/6 115/176/6 116/156/6
f 117/82/2 201/138/2 118/81/2
f 117/83/3 119/84/3 203/140/3
f 117/83/3 203/140/3 201/139/3
f 117/165/1 118/151/1 119/166/1
f 118/81/2 201/138/2 202/137/2
f 118/83/4 202/139/4 204/140/4
f 118/83/4 204/140/4 120/84/4
f 118/151/1 120/152/1 119/166/1
f 119/82/5 120/81/5 203/138/5
f 120/81/5 204/137/5 203/138/5
f 121/82/2 205/138/2 122/81/2
f 121/85/3 123/86/3 207/142/3
f 121/85/3 207/142/3 205/141/3
f 121/171/1 122/153/1 123/172/1
f 122/81/2 205/138/2 206/137/2
f 122/85/4 206/141/4 208/142/4
f 122/85/4 208/142/4 124/86/4
f 122/153/1 124/154/1 123/172/1
f 123/82/5 124/81/5 207/138/5
f 124/81/5 208/137/5 207/138/5
f 125/82/2 209/138/2 126/81/2
f 125/87/3 127/88/3 211/144/3
f 125/87/3 211/144/3 209/143/3
f 125/175/1 126/155/1 127/176/1
f 126/81/2 209/138/2 210/137/2
f 126/87/4 210/143/4 212/144/4
f 126/87/4 212/144/4 128/88/4
f 126/155/1 128/156/1 127/176/1
f 127/82/5 128/81/5 211/138/5
f 128/81/5 212/137/5 211/138/5
f 129/90/2 189/130/2 130/89/2
f 129/91/3 131/92/3 141/99/3
f 129/91/3 141/99/3 177/123/3
f 129/91/3 177/123/3 189/131/3
f 129/211/1 130/183/1 132/188/1
f 129/211/1 132/188/1 131/216/1
f 130/89/2 189/130/2 190/129/2
f 130/91/4 142/99/4 132/92/4
f 130/91/4 178/123/4 142/99/4
f 130/91/4 190/131/4 178/123/4
f 131/90/5 132/89/5 192/129/5
f 131/90/5 192/129/5 191/130/5
f 131/92/3 143/100/3 141/99/3
f 131/92/3 179/124/3 143/100/3
f 131/92/3 191/132/3 179/124/3
f 132/92/4 142/99/4 144/100/4
f 132/92/4 144/100/4 180/124/4
f 132/92/4 180/124/4 192/132/4
f 133/90/2 193/130/2 134/89/2
f 133/93/3 135/94/3 147/102/3
f 133/93/3 145/101/3 181/125/3
f 133/93/3 147/102/3 145/101/3
f 133/93/3 181/125/3 193/133/3
f 133/217/1 134/189/1 136/192/1
f 133/217/1 136/192/1 135/220/1
f 134/89/2 193/130/2 194/129/2
f 134/93/4 146/101/4 148/102/4
f 134/93/4 148/102/4 136/94/4
f 134/93/4 182/125/4 146/101/4
f 134/93/4 194/133/4 182/125/4
f 135/90/5 136/89/5 196/129/5
f 135/90/5 196/129/5 195/130/5
f 135/94/3 183/126/3 147/102/3
f 135/94/3 195/134/3 183/126/3
f 136/94/4 148/102/4 184/126/4
f 136/94/4 184/126/4 196/134/4
f 137/90/2 197/130/2 138/89/2
f 137/95/3 139/96/3 149/103/3
f 137/95/3 149/103/3 185/127/3
f 137/95/3 185/127/3 197/135/3
f 137/221/1 138/193/1 140/196/1
f 137/221/1 140/196/1 139/224/1
f 138/89/2 197/130/2 198/129/2
f 138/95/4 150/103/4 140/96/4
f 138/95/4 186/127/4 150/103/4
f 138/95/4 198/135/4 186/127/4
f 139/90/5 140/89/5 200/129/5
f 139/90/5 200/129/5 199/130/5
f 139/96/3 151/104/3 149/103/3
f 139/96/3 187/128/3 151/104/3
f 139/96/3 199/136/3 187/128/3
f 140/96/4 150/103/4 152/104/4
f 140/96/4 152/104/4 188/128/4
f 140/96/4 188/128/4 200/136/4
f 141/98/5 142/97/5 177/122/5
f 141/212/6 143/214/6 144/186/6
f 141/212/6 144/186/6 142/184/6
f 142/97/5 178/121/5 177/122/5
f 143/98/2 179/122/2 180/121/2
f 143/98/2 180/121/2 144/97/2
f 145/98/5 146/97/5 181/122/5
f 145/218/6 147/219/6 148/191/6
f 145/218/6 148/191/6 146/190/6
f 146/97/5 182/121/5 181/122/5
f 147/98/2 183/122/2 184/121/2
f 147/98/2 184/121/2 148/97/2
f 149/98/5 150/97/5 185/122/5
f 149/222/6 151/223/6 152/195/6
f 149/222/6 152/195/6 150/194/6
f 150/97/5 186/121/5 185/122/5
f 151/98/2 187/122/2 188/121/2
f 151/98/2 188/121/2 152/97/2
f 153/106/2 165/114/2 154/105/2
f 153/107/3 155/108/3 167/116/3
f 153/107/3 167/116/3 165/115/3
f 153/203/1 154/197/1 155/204/1
f 154/105/2 165/114/2 166/113/2
f 154/107/4 166/115/4 168/116/4
f 154/107/4 168/116/4 156/108/4
f 154/197/1 156/198/1 155/204/1
f 155/106/5 156/105/5 167/114/5
f 156/105/5 168/113/5 167/114/5
f 157/106/2 169/114/2 158/105/2
f 157/109/3 159/110/3 171/118/3
f 157/109/3 171/118/3 169/117/3
f 157/205/1 158/199/1 159/206/1
f 158/105/2 169/114/2 170/113/2
f 158/109/4 170/117/4 172/118/4
f 158/109/4 172/118/4 160/110/4
f 158/199/1 160/200/1 159/206/1
f 159/106/5 160/105/5 171/114/5
f 160/105/5 172/113/5 171/114/5
f 161/106/2 173/114/2 162/105/2
f 161/111/3 163/112/3 175/120/3
f 161/111/3 175/120/3 173/119/3
f 161/207/1 162/201/1 163/208/1
f 162/105/2 173/114/2 174/113/2
f 162/111/4 174/119/4 176/120/4
f 162/111/4 176/120/4 164/112/4
f 162/201/1 164/202/1 163/208/1
f 163/106/5 164/105/5 175/114/5
f 164/105/5 176/113/5 175/114/5
f 165/203/6 167/204/6 166/197/6
f 166/197/6 167/204/6 168/198/6
f 169/205/6 171/206/6 170/199/6
f 170/199/6 171/206/6 172/200/6
f 173/207/6 175/208/6 174/201/6
f 174/201/6 175/208/6 176/202/6
f 177/123/3 179/124/3 189/131/3
f 177/212/1 178/184/1 179/214/1
f 178/123/4 190/131/4 180/124/4
f 178/184/1 180/186/1 179/214/1
f 179/124/3 191/132/3 189/131/3
f 180/124/4 190/131/4 192/132/4
f 181/125/3 183/126/3 193/133/3
f 181/218/1 182/190/1 183/219/1
f 182/125/4 194/133/4 184/126/4
f 182/190/1 184/191/1 183/219/1
f 183/126/3 195/134/3 193/133/3
f 184/126/4 194/133/4 196/134/4
f 185/127/3 187/128/3 197/135/3
f 185/222/1 186/194/1 187/223/1
f 186/127/4 198/135/4 188/128/4
f 186/194/1 188/195/1 187/223/1
f 187/128/3 199/136/3 197/135/3
f 188/128/4 198/135/4 200/136/4
f 189/211/6 191/216/6 190/183/6
f 190/183/6 191/216/6 192/188/6
f 193/217/6 195/220/6 194/189/6
f 194/189/6 195/220/6 196/192/6
f 197/221/6 199/224/6 198/193/6
f 198/193/6 199/224/6 200/196/6
f 201/165/6 203/166/6 202/151/6
f 202/151/6 203/166/6 204/152/6
f 205/171/6 207/172/6 206/153/6
f 206/153/6 207/172/6 208/154/6
f 209/175/6 211/176/6 210/155/6
f 210/155/6 211/176/6 212/156/6
f 213/164/1 214/147/1 215/168/1
f 213/225/3 215/228/3 299/296/3
f 213/225/3 299/296/3 297/293/3
f 213/227/2 297/295/2 214/226/2
f 214/147/1 216/148/1 215/168/1
f 214/225/4 298/293/4 300/296/4
f 214/225/4 300/296/4 216/228/4
f 214/226/2 297/295/2 298/294/2
f 215/227/5 216/226/5 299/295/5
f 216/226/5 300/294/5 299/295/5
f 217/209/1 218/181/1 220/187/1
f 217/209/1 220/187/1 219/215/1
f 217/229/3 219/232/3 229/239/3
f 217/229/3 229/239/3 281/279/3
f 217/229/3 281/279/3 293/289/3
f 217/231/2 293/291/2 218/230/2
f 218/229/4 230/239/4 220/232/4
f 218/229/4 282/279/4 230/239/4
f 218/229/4 294/289/4 282/279/4
f 218/230/2 293/291/2 294/290/2
f 219/231/5 220/230/5 296/290/5
f 219/231/5 296/290/5 295/291/5
f 219/232/3 231/242/3 229/239/3
f 219/232/3 295/292/3 231/242/3
f 220/232/4 230/239/4 232/242/4
f 220/232/4 232/242/4 296/292/4
f 221/171/1 222/153/1 223/172/1
f 221/234/2 285/284/2 222/233/2
f 221/235/3 223/236/3 287/286/3
f 221/235/3 287/286/3 285/285/3
f 222/153/1 224/154/1 223/172/1
f 222/233/2 285/284/2 286/283/2
f 222/235/4 286/285/4 288/286/4
f 222/235/4 288/286/4 224/236/4
f 223/234/5 224/233/5 287/284/5
f 224/233/5 288/283/5 287/284/5
f 225/175/1 226/155/1 227/176/1
f 225/234/2 289/284/2 226/233/2
f 225/237/3 227/238/3 291/288/3
f 225/237/3 291/288/3 289/287/3
f 226/155/1 228/156/1 227/176/1
f 226/233/2 289/284/2 290/283/2
f 226/237/4 290/287/4 292/288/4
f 226/237/4 292/288/4 228/238/4
f 227/234/5 228/233/5 291/284/5
f 228/233/5 292/283/5 291/284/5
f 229/210/6 231/213/6 232/185/6
f 229/210/6 232/185/6 230/182/6
f 229/241/5 230/240/5 281/281/5
f 230/240/5 282/280/5 281/281/5
f 231/241/2 283/281/2 284/280/2
f 231/241/2 284/280/2 232/240/2
f 231/242/3 295/292/3 283/282/3
f 232/242/4 284/282/4 296/292/4
f 233/217/1 234/189/1 236/192/1
f 233/217/1 236/192/1 235/220/1
f 233/244/2 273/274/2 234/243/2
f 233/245/3 235/246/3 243/252/3
f 233/245/3 241/251/3 273/275/3
f 233/245/3 243/252/3 241/251/3
f 234/243/2 273/274/2 274/273/2
f 234/245/4 242/251/4 244/252/4
f 234/245/4 244/252/4 236/246/4
f 234/245/4 274/275/4 242/251/4
f 235/244/5 236/243/5 276/273/5
f 235/244/5 276/273/5 275/274/5
f 235/246/3 275/276/3 243/252/3
f 236/246/4 244/252/4 276/276/4
f 237/221/1 238/193/1 240/196/1
f 237/221/1 240/196/1 239/224/1
f 237/244/2 277/274/2 238/243/2
f 237/247/3 239/248/3 245/253/3
f 237/247/3 245/253/3 277/277/3
f 238/243/2 277/274/2 278/273/2
f 238/247/4 246/253/4 240/248/4
f 238/247/4 278/277/4 246/253/4
f 239/244/5 240/243/5 280/273/5
f 239/244/5 280/273/5 279/274/5
f 239/248/3 247/254/3 245/253/3
f 239/248/3 279/278/3 247/254/3
f 240/248/4 246/253/4 248/254/4
f 240/248/4 248/254/4 280/278/4
f 241/218/6 243/219/6 244/191/6
f 241/218/6 244/191/6 242/190/6
f 241/250/5 242/249/5 265/268/5
f 241/251/3 265/269/3 273/275/3
f 242/249/5 266/267/5 265/268/5
f 242/251/4 274/275/4 266/269/4
f 243/250/2 267/268/2 268/267/2
f 243/250/2 268/267/2 244/249/2
f 243/252/3 275/276/3 267/270/3
f 244/252/4 268/270/4 276/276/4
f 245/222/6 247/223/6 248/195/6
f 245/222/6 248/195/6 246/194/6
f 245/250/5 246/249/5 269/268/5
f 245/253/3 269/271/3 277/277/3
f 246/249/5 270/267/5 269/268/5
f 246/253/4 278/277/4 270/271/4
f 247/250/2 271/268/2 272/267/2
f 247/250/2 272/267/2 248/249/2
f 247/254/3 279/278/3 271/272/3
f 248/254/4 272/272/4 280/278/4
f 249/205/1 250/199/1 251/206/1
f 249/256/2 257/262/2 250/255/2
f 249/257/3 251/258/3 259/264/3
f 249/257/3 259/264/3 257/263/3
f 250/199/1 252/200/1 251/206/1
f 250/255/2 257/262/2 258/261/2
f 250/257/4 258/263/4 260/264/4
f 250/257/4 260/264/4 252/258/4
f 251/256/5 252/255/5 259/262/5
f 252/255/5 260/261/5 259/262/5
f 253/207/1 254/201/1 255/208/1
f 253/256/2 261/262/2 254/255/2
f 253/259/3 255/260/3 263/266/3
f 253/259/3 263/266/3 261/265/3
f 254/201/1 256/202/1 255/208/1
f 254/255/2 261/262/2 262/261/2
f 254/259/4 262/265/4 264/266/4
f 254/259/4 264/266/4 256/260/4
f 255/256/5 256/255/5 263/262/5
f 256/255/5 264/261/5 263/262/5
f 257/205/6 259/206/6 258/199/6
f 258/199/6 259/206/6 260/200/6
f 261/207/6 263/208/6 262/201/6
f 262/201/6 263/208/6 264/202/6
f 265/218/1 266/190/1 267/219/1
f 265/269/3 267/270/3 273/275/3
f 266/190/1 268/191/1 267/219/1
f 266/269/4 274/275/4 268/270/4
f 267/270/3 275/276/3 273/275/3
f 268/270/4 274/275/4 276/276/4
f 269/222/1 270/194/1 271/223/1
f 269/271/3 271/272/3 277/277/3
f 270/194/1 272/195/1 271/223/1
f 270/271/4 278/277/4 272/272/4
f 271/272/3 279/278/3 277/277/3
f 272/272/4 278/277/4 280/278/4
f 273/217/6 275/220/6 274/189/6
f 274/189/6 275/220/6 276/192/6
f 277/221/6 279/224/6 278/193/6
f 278/193/6 279/224/6 280/196/6
f 281/210/1 282/182/1 283/213/1
f 281/279/3 283/282/3 293/289/3
f 282/182/1 284/185/1 283/213/1
f 282/279/4 294/289/4 284/282/4
f 283/282/3 295/292/3 293/289/3
f 284/282/4 294/289/4 296/292/4
f 285/171/6 287/172/6 286/153/6
f 286/153/6 287/172/6 288/154/6
f 289/175/6 291/176/6 290/155/6
f 290/155/6 291/176/6 292/156/6
f 293/209/6 295/215/6 294/181/6
f 294/181/6 295/215/6 296/187/6
f 297/164/6 299/168/6 298/147/6
f 298/147/6 299/168/6 300/148/6
f 301/165/1 302/151/1 303/166/1
f 301/298/2 385/354/2 302/297/2
f 301/299/3 303/300/3 387/356/3
f 301/299/3 387/356/3 385/355/3
f 302/151/1 304/152/1 303/166/1
f 302/297/2 385/354/2 386/353/2
f 302/299/4 386/355/4 388/356/4
f 302/299/4 388/356/4 304/300/4
f 303/298/5 304/297/5 387/354/5
f 304/297/5 388/353/5 387/354/5
f 305/171/1 306/153/1 307/172/1
f 305/298/2 389/354/2 306/297/2
f 305/301/3 307/302/3 391/358/3
f 305/301/3 391/358/3 389/357/3
f 306/153/1 308/154/1 307/172/1
f 306/297/2 389/354/2 390/353/2
f 306/301/4 390/357/4 392/358/4
f 306/301/4 392/358/4 308/302/4
f 307/298/5 308/297/5 391/354/5
f 308/297/5 392/353/5 391/354/5
f 309/175/1 310/155/1 311/176/1
f 309/298/2 393/354/2 310/297/2
f 309/303/3 311/304/3 395/360/3
f 309/303/3 395/360/3 393/359/3
f 310/155/1 312/156/1 311/176/1
f 310/297/2 393/354/2 394/353/2
f 310/303/4 394/359/4 396/360/4
f 310/303/4 396/360/4 312/304/4
f 311/298/5 312/297/5 395/354/5
f 312/297/5 396/353/5 395/354/5
f 313/211/1 314/183/1 316/188/1
f 313/211/1 316/188/1 315/216/1
f 313/306/2 373/346/2 314/305/2
f 313/307/3 315/308/3 325/315/3
f 313/307/3 325/315/3 361/339/3
f 313/307/3 361/339/3 373/347/3
f 314/305/2 373/346/2 374/345/2
f 314/307/4 326/315/4 316/308/4
f 314/307/4 362/339/4 326/315/4
f 314/307/4 374/347/4 362/339/4
f 315/306/5 316/305/5 376/345/5
f 315/306/5 376/345/5 375/346/5
f 315/308/3 327/316/3 325/315/3
f 315/308/3 363/340/3 327/316/3
f 315/308/3 375/348/3 363/340/3
f 316/308/4 326/315/4 328/316/4
f 316/308/4 328/316/4 364/340/4
f 316/308/4 364/340/4 376/348/4
f 317/217/1 318/189/1 320/192/1
f 317/217/1 320/192/1 319/220/1
f 317/306/2 377/346/2 318/305/2
f 317/309/3 319/310/3 331/318/3
f 317/309/3 329/317/3 365/341/3
f 317/309/3 331/318/3 329/317/3
f 317/309/3 365/341/3 377/349/3
f 318/305/2 377/346/2 378/345/2
f 318/309/4 330/317/4 332/318/4
f 318/309/4 332/318/4 320/310/4
f 318/309/4 366/341/4 330/317/4
f 318/309/4 378/349/4 366/341/4
f 319/306/5 320/305/5 380/345/5
f 319/306/5 380/345/5 379/346/5
f 319/310/3 367/342/3 331/318/3
f 319/310/3 379/350/3 367/342/3
f 320/310/4 332/318/4 368/342/4
f 320/310/4 368/342/4 380/350/4
f 321/221/1 322/193/1 324/196/1
f 321/221/1 324/196/1 323/224/1
f 321/306/2 381/346/2 322/305/2
f 321/311/3 323/312/3 333/319/3
f 321/311/3 333/319/3 369/343/3
f 321/311/3 369/343/3 381/351/3
f 322/305/2 381/346/2 382/345/2
f 322/311/4 334/319/4 324/312/4
f 322/311/4 370/343/4 334/319/4
f 322/311/4 382/351/4 370/343/4
f 323/306/5 324/305/5 384/345/5
f 323/306/5 384/345/5 383/346/5
f 323/312/3 335/320/3 333/319/3
f 323/312/3 371/344/3 335/320/3
f 323/312/3 383/352/3 371/344/3
f 324/312/4 334/319/4 336/320/4
f 324/312/4 336/320/4 372/344/4
f 324/312/4 372/344/4 384/352/4
f 325/212/6 327/214/6 328/186/6
f 325/212/6 328/186/6 326/184/6
f 325/314/5 326/313/5 361/338/5
f 326/313/5 362/337/5 361/338/5
f 327/314/2 363/338/2 364/337/2
f 327/314/2 364/337/2 328/313/2
f 329/218/6 331/219/6 332/191/6
f 329/218/6 332/191/6 330/190/6
f 329/314/5 330/313/5 365/338/5
f 330/313/5 366/337/5 365/338/5
f 331/314/2 367/338/2 368/337/2
f 331/314/2 368/337/2 332/313/2
f 333/222/6 335/223/6 336/195/6
f 333/222/6 336/195/6 334/194/6
f 333/314/5 334/313/5 369/338/5
f 334/313/5 370/337/5 369/338/5
f 335/314/2 371/338/2 372/337/2
f 335/314/2 372/337/2 336/313/2
f 337/203/1 338/197/1 339/204/1
f 337/322/2 349/330/2 338/321/2
f 337/323/3 339/324/3 351/332/3
f 337/323/3 351/332/3 349/331/3
f 338/197/1 340/198/1 339/204/1
f 338/321/2 349/330/2 350/329/2
f 338/323/4 350/331/4 352/332/4
f 338/323/4 352/332/4 340/324/4
f 339/322/5 340/321/5 351/330/5
f 340/321/5 352/329/5 351/330/5
f 341/205/1 342/199/1 343/206/1
f 341/322/2 353/330/2 342/321/2
f 341/325/3 343/326/3 355/334/3
f 341/325/3 355/334/3 353/333/3
f 342/199/1 344/200/1 343/206/1
f 342/321/2 353/330/2 354/329/2
f 342/325/4 354/333/4 356/334/4
f 342/325/4 356/334/4 344/326/4
f 343/322/5 344/321/5 355/330/5
f 344/321/5 356/329/5 355/330/5
f 345/207/1 346/201/1 347/208/1
f 345/322/2 357/330/2 346/321/2
f 345/327/3 347/328/3 359/336/3
f 345/327/3 359/336/3 357/335/3
f 346/201/1 348/202/1 347/208/1
f 346/321/2 357/330/2 358/329/2
f 346/327/4 358/335/4 360/336/4
f 346/327/4 360/336/4 348/328/4
f 347/322/5 348/321/5 359/330/5
f 348/321/5 360/329/5 359/330/5
f 349/203/6 351/204/6 350/197/6
f 350/197/6 351/204/6 352/198/6
f 353/205/6 355/206/6 354/199/6
f 354/199/6 355/206/6 356/200/6
f 357/207/6 359/208/6 358/201/6
f 358/201/6 359/208/6 360/202/6
f 361/212/1 362/184/1 363/214/1
f 361/339/3 363/340/3 373/347/3
f 362/184/1 364/186/1 363/214/1
f 362/339/4 374/347/4 364/340/4
f 363/340/3 375/348/3 373/347/3
f 364/340/4 374/347/4 376/348/4
f 365/218/1 366/190/1 367/219/1
f 365/341/3 367/342/3 377/349/3
f 366/190/1 368/191/1 367/219/1
f 366/341/4 378/349/4 368/342/4
f 367/342/3 379/350/3 377/349/3
f 368/342/4 378/349/4 380/350/4
f 369/222/1 370/194/1 371/223/1
f 369/343/3 371/344/3 381/351/3
f 370/194/1 372/195/1 371/223/1
f 370/343/4 382/351/4 372/344/4
f 371/344/3 383/352/3 381/351/3
f 372/344/4 382/351/4 384/352/4
f 373/211/6 375/216/6 374/183/6
f 374/183/6 375/216/6 376/188/6
f 377/217/6 379/220/6 378/189/6
f 378/189/6 379/220/6 380/192/6
f 381/221/6 383/224/6 382/193/6
f 382/193/6 383/224/6 384/196/6
f 385/165/6 387/166/6 386/151/6
f 386/151/6 387/166/6 388/152/6
f 389/171/6 391/172/6 390/153/6
f 390/153/6 391/172/6 392/154/6
f 393/175/6 395/176/6 394/155/6
f 394/155/6 395/176/6 396/156/6
f 397/169/6 399/170/6 398/157/6
f 398/157/6 399/170/6 400/158/6
f 401/173/6 403/174/6 402/159/6
f 402/159/6 403/174/6 404/160/6
f 405/177/6 407/178/6 406/161/6
f 406/161/6 407/178/6 408/162/6
f 409/163/6 411/167/6 410/149/6
f 410/149/6 411/167/6 412/150/6
f 413/179/6 415/180/6 414/145/6
f 414/145/6 415/180/6 416/146/6
