# exported by ae3d_export.py v3
# object: Street_BlockL2_Lit
mtllib Street_BlockL2_Lit.mtl
v -4.735000 0.530000 -0.225000
v -4.735000 2.000000 -0.225000
v -4.735000 3.680000 -0.225000
v -4.735000 5.150000 -0.225000
v -4.735000 6.830000 -0.225000
v -4.735000 8.300000 -0.225000
v -4.735000 9.980000 -0.225000
v -4.735000 11.450000 -0.225000
v -3.665000 0.530000 -0.225000
v -3.665000 2.000000 -0.225000
v -3.665000 3.680000 -0.225000
v -3.665000 5.150000 -0.225000
v -3.665000 6.830000 -0.225000
v -3.665000 8.300000 -0.225000
v -3.665000 9.980000 -0.225000
v -3.665000 11.450000 -0.225000
v -1.935000 3.680000 -0.225000
v -1.935000 5.150000 -0.225000
v -1.935000 6.830000 -0.225000
v -1.935000 8.300000 -0.225000
v -1.935000 9.980000 -0.225000
v -1.935000 11.450000 -0.225000
v -0.865000 3.680000 -0.225000
v -0.865000 5.150000 -0.225000
v -0.865000 6.830000 -0.225000
v -0.865000 8.300000 -0.225000
v -0.865000 9.980000 -0.225000
v -0.865000 11.450000 -0.225000
v 0.865000 3.680000 -0.225000
v 0.865000 5.150000 -0.225000
v 1.935000 3.680000 -0.225000
v 1.935000 5.150000 -0.225000
v 3.665000 3.680000 -0.225000
v 3.665000 5.150000 -0.225000
v 3.665000 9.980000 -0.225000
v 3.665000 11.450000 -0.225000
v 4.735000 3.680000 -0.225000
v 4.735000 5.150000 -0.225000
v 4.735000 9.980000 -0.225000
v 4.735000 11.450000 -0.225000
vt 0.000000 0.000000
vt 0.000000 1.000000
vt 1.000000 0.000000
vt 1.000000 1.000000
vn 0.000000 0.000000 1.000000
usemtl WindowLit
f 1/1/1 9/3/1 10/4/1
f 1/1/1 10/4/1 2/2/1
f 3/1/1 11/3/1 12/4/1
f 3/1/1 12/4/1 4/2/1
f 5/1/1 13/3/1 14/4/1
f 5/1/1 14/4/1 6/2/1
f 7/1/1 15/3/1 16/4/1
f 7/1/1 16/4/1 8/2/1
f 17/1/1 23/3/1 24/4/1
f 17/1/1 24/4/1 18/2/1
f 19/1/1 25/3/1 26/4/1
f 19/1/1 26/4/1 20/2/1
f 21/1/1 27/3/1 28/4/1
f 21/1/1 28/4/1 22/2/1
f 29/1/1 31/3/1 32/4/1
f 29/1/1 32/4/1 30/2/1
f 33/1/1 37/3/1 38/4/1
f 33/1/1 38/4/1 34/2/1
f 35/1/1 39/3/1 40/4/1
f 35/1/1 40/4/1 36/2/1
