# exported by ae3d_export.py v3
# object: Street_BlockL1_Trim
mtllib Street_BlockL1_Trim.mtl
v -5.700000 8.580000 0.000000
v -5.700000 8.580000 0.260000
v -5.700000 9.000000 0.000000
v -5.700000 9.000000 0.260000
v -5.660000 -0.430000 0.000000
v -5.660000 -0.430000 0.130000
v -5.660000 0.480000 0.000000
v -5.660000 0.480000 0.130000
v -5.600000 2.650000 0.000000
v -5.600000 2.650000 0.049500
v -5.600000 2.720000 0.000000
v -5.600000 2.720000 0.049500
v -5.600000 5.800000 0.000000
v -5.600000 5.800000 0.049500
v -5.600000 5.870000 0.000000
v -5.600000 5.870000 0.049500
v -4.865000 0.440000 0.000000
v -4.865000 0.440000 0.090000
v -4.865000 0.520000 0.000000
v -4.865000 0.520000 0.090000
v -4.865000 3.590000 0.000000
v -4.865000 3.590000 0.090000
v -4.865000 3.670000 0.000000
v -4.865000 3.670000 0.090000
v -4.785000 0.510000 -0.235000
v -4.785000 0.510000 -0.190000
v -4.785000 2.080000 -0.235000
v -4.785000 2.080000 -0.190000
v -4.785000 3.660000 -0.235000
v -4.785000 3.660000 -0.190000
v -4.785000 5.230000 -0.235000
v -4.785000 5.230000 -0.190000
v -4.730000 0.565000 -0.235000
v -4.730000 0.565000 -0.190000
v -4.730000 2.025000 -0.235000
v -4.730000 2.025000 -0.190000
v -4.730000 3.715000 -0.235000
v -4.730000 3.715000 -0.190000
v -4.730000 5.175000 -0.235000
v -4.730000 5.175000 -0.190000
v -4.225000 0.560000 -0.225000
v -4.225000 0.560000 -0.195000
v -4.225000 2.030000 -0.225000
v -4.225000 2.030000 -0.195000
v -4.225000 3.710000 -0.225000
v -4.225000 3.710000 -0.195000
v -4.225000 5.180000 -0.225000
v -4.225000 5.180000 -0.195000
v -4.175000 0.560000 -0.225000
v -4.175000 0.560000 -0.195000
v -4.175000 2.030000 -0.225000
v -4.175000 2.030000 -0.195000
v -4.175000 3.710000 -0.225000
v -4.175000 3.710000 -0.195000
v -4.175000 5.180000 -0.225000
v -4.175000 5.180000 -0.195000
v -3.670000 0.565000 -0.235000
v -3.670000 0.565000 -0.190000
v -3.670000 2.025000 -0.235000
v -3.670000 2.025000 -0.190000
v -3.670000 3.715000 -0.235000
v -3.670000 3.715000 -0.190000
v -3.670000 5.175000 -0.235000
v -3.670000 5.175000 -0.190000
v -3.615000 0.510000 -0.235000
v -3.615000 0.510000 -0.190000
v -3.615000 2.080000 -0.235000
v -3.615000 2.080000 -0.190000
v -3.615000 3.660000 -0.235000
v -3.615000 3.660000 -0.190000
v -3.615000 5.230000 -0.235000
v -3.615000 5.230000 -0.190000
v -3.535000 0.440000 0.000000
v -3.535000 0.440000 0.090000
v -3.535000 0.520000 0.000000
v -3.535000 0.520000 0.090000
v -3.535000 3.590000 0.000000
v -3.535000 3.590000 0.090000
v -3.535000 3.670000 0.000000
v -3.535000 3.670000 0.090000
v -2.065000 0.440000 0.000000
v -2.065000 0.440000 0.090000
v -2.065000 0.520000 0.000000
v -2.065000 0.520000 0.090000
v -2.065000 3.590000 0.000000
v -2.065000 3.590000 0.090000
v -2.065000 3.670000 0.000000
v -2.065000 3.670000 0.090000
v -1.985000 0.510000 -0.235000
v -1.985000 0.510000 -0.190000
v -1.985000 2.080000 -0.235000
v -1.985000 2.080000 -0.190000
v -1.985000 3.660000 -0.235000
v -1.985000 3.660000 -0.190000
v -1.985000 5.230000 -0.235000
v -1.985000 5.230000 -0.190000
v -1.930000 0.565000 -0.235000
v -1.930000 0.565000 -0.190000
v -1.930000 2.025000 -0.235000
v -1.930000 2.025000 -0.190000
v -1.930000 3.715000 -0.235000
v -1.930000 3.715000 -0.190000
v -1.930000 5.175000 -0.235000
v -1.930000 5.175000 -0.190000
v -1.425000 0.560000 -0.225000
v -1.425000 0.560000 -0.195000
v -1.425000 2.030000 -0.225000
v -1.425000 2.030000 -0.195000
v -1.425000 3.710000 -0.225000
v -1.425000 3.710000 -0.195000
v -1.425000 5.180000 -0.225000
v -1.425000 5.180000 -0.195000
v -1.375000 0.560000 -0.225000
v -1.375000 0.560000 -0.195000
v -1.375000 2.030000 -0.225000
v -1.375000 2.030000 -0.195000
v -1.375000 3.710000 -0.225000
v -1.375000 3.710000 -0.195000
v -1.375000 5.180000 -0.225000
v -1.375000 5.180000 -0.195000
v -0.870000 0.565000 -0.235000
v -0.870000 0.565000 -0.190000
v -0.870000 2.025000 -0.235000
v -0.870000 2.025000 -0.190000
v -0.870000 3.715000 -0.235000
v -0.870000 3.715000 -0.190000
v -0.870000 5.175000 -0.235000
v -0.870000 5.175000 -0.190000
v -0.815000 0.510000 -0.235000
v -0.815000 0.510000 -0.190000
v -0.815000 2.080000 -0.235000
v -0.815000 2.080000 -0.190000
v -0.815000 3.660000 -0.235000
v -0.815000 3.660000 -0.190000
v -0.815000 5.230000 -0.235000
v -0.815000 5.230000 -0.190000
v -0.735000 0.440000 0.000000
v -0.735000 0.440000 0.090000
v -0.735000 0.520000 0.000000
v -0.735000 0.520000 0.090000
v -0.735000 3.590000 0.000000
v -0.735000 3.590000 0.090000
v -0.735000 3.670000 0.000000
v -0.735000 3.670000 0.090000
v 0.605000 -0.410000 0.000000
v 0.605000 -0.410000 0.144000
v 0.605000 2.180000 0.000000
v 0.605000 2.180000 0.144000
v 0.715000 -0.420000 -0.235000
v 0.715000 -0.420000 -0.190000
v 0.715000 2.030000 -0.235000
v 0.715000 2.030000 -0.190000
v 0.735000 3.590000 0.000000
v 0.735000 3.590000 0.090000
v 0.735000 3.670000 0.000000
v 0.735000 3.670000 0.090000
v 0.770000 -0.365000 -0.235000
v 0.770000 -0.365000 -0.190000
v 0.770000 1.975000 -0.235000
v 0.770000 1.975000 -0.190000
v 0.815000 3.660000 -0.235000
v 0.815000 3.660000 -0.190000
v 0.815000 5.230000 -0.235000
v 0.815000 5.230000 -0.190000
v 0.870000 3.715000 -0.235000
v 0.870000 3.715000 -0.190000
v 0.870000 5.175000 -0.235000
v 0.870000 5.175000 -0.190000
v 1.375000 3.710000 -0.225000
v 1.375000 3.710000 -0.195000
v 1.375000 5.180000 -0.225000
v 1.375000 5.180000 -0.195000
v 1.425000 3.710000 -0.225000
v 1.425000 3.710000 -0.195000
v 1.425000 5.180000 -0.225000
v 1.425000 5.180000 -0.195000
v 1.930000 3.715000 -0.235000
v 1.930000 3.715000 -0.190000
v 1.930000 5.175000 -0.235000
v 1.930000 5.175000 -0.190000
v 1.985000 3.660000 -0.235000
v 1.985000 3.660000 -0.190000
v 1.985000 5.230000 -0.235000
v 1.985000 5.230000 -0.190000
v 2.030000 -0.365000 -0.235000
v 2.030000 -0.365000 -0.190000
v 2.030000 1.975000 -0.235000
v 2.030000 1.975000 -0.190000
v 2.065000 3.590000 0.000000
v 2.065000 3.590000 0.090000
v 2.065000 3.670000 0.000000
v 2.065000 3.670000 0.090000
v 2.085000 -0.420000 -0.235000
v 2.085000 -0.420000 -0.190000
v 2.085000 2.030000 -0.235000
v 2.085000 2.030000 -0.190000
v 2.195000 -0.410000 0.000000
v 2.195000 -0.410000 0.144000
v 2.195000 2.180000 0.000000
v 2.195000 2.180000 0.144000
v 3.535000 0.440000 0.000000
v 3.535000 0.440000 0.090000
v 3.535000 0.520000 0.000000
v 3.535000 0.520000 0.090000
v 3.535000 3.590000 0.000000
v 3.535000 3.590000 0.090000
v 3.535000 3.670000 0.000000
v 3.535000 3.670000 0.090000
v 3.615000 0.510000 -0.235000
v 3.615000 0.510000 -0.190000
v 3.615000 2.080000 -0.235000
v 3.615000 2.080000 -0.190000
v 3.615000 3.660000 -0.235000
v 3.615000 3.660000 -0.190000
v 3.615000 5.230000 -0.235000
v 3.615000 5.230000 -0.190000
v 3.670000 0.565000 -0.235000
v 3.670000 0.565000 -0.190000
v 3.670000 2.025000 -0.235000
v 3.670000 2.025000 -0.190000
v 3.670000 3.715000 -0.235000
v 3.670000 3.715000 -0.190000
v 3.670000 5.175000 -0.235000
v 3.670000 5.175000 -0.190000
v 4.175000 0.560000 -0.225000
v 4.175000 0.560000 -0.195000
v 4.175000 2.030000 -0.225000
v 4.175000 2.030000 -0.195000
v 4.175000 3.710000 -0.225000
v 4.175000 3.710000 -0.195000
v 4.175000 5.180000 -0.225000
v 4.175000 5.180000 -0.195000
v 4.225000 0.560000 -0.225000
v 4.225000 0.560000 -0.195000
v 4.225000 2.030000 -0.225000
v 4.225000 2.030000 -0.195000
v 4.225000 3.710000 -0.225000
v 4.225000 3.710000 -0.195000
v 4.225000 5.180000 -0.225000
v 4.225000 5.180000 -0.195000
v 4.730000 0.565000 -0.235000
v 4.730000 0.565000 -0.190000
v 4.730000 2.025000 -0.235000
v 4.730000 2.025000 -0.190000
v 4.730000 3.715000 -0.235000
v 4.730000 3.715000 -0.190000
v 4.730000 5.175000 -0.235000
v 4.730000 5.175000 -0.190000
v 4.785000 0.510000 -0.235000
v 4.785000 0.510000 -0.190000
v 4.785000 2.080000 -0.235000
v 4.785000 2.080000 -0.190000
v 4.785000 3.660000 -0.235000
v 4.785000 3.660000 -0.190000
v 4.785000 5.230000 -0.235000
v 4.785000 5.230000 -0.190000
v 4.865000 0.440000 0.000000
v 4.865000 0.440000 0.090000
v 4.865000 0.520000 0.000000
v 4.865000 0.520000 0.090000
v 4.865000 3.590000 0.000000
v 4.865000 3.590000 0.090000
v 4.865000 3.670000 0.000000
v 4.865000 3.670000 0.090000
v 5.600000 2.650000 0.000000
v 5.600000 2.650000 0.049500
v 5.600000 2.720000 0.000000
v 5.600000 2.720000 0.049500
v 5.600000 5.800000 0.000000
v 5.600000 5.800000 0.049500
v 5.600000 5.870000 0.000000
v 5.600000 5.870000 0.049500
v 5.660000 -0.430000 0.000000
v 5.660000 -0.430000 0.130000
v 5.660000 0.480000 0.000000
v 5.660000 0.480000 0.130000
v 5.700000 8.580000 0.000000
v 5.700000 8.580000 0.260000
v 5.700000 9.000000 0.000000
v 5.700000 9.000000 0.260000
vt -12.540000 -0.572000
vt -12.540000 0.000000
vt -12.540000 18.875999
vt -12.540000 19.799999
vt -12.452000 -0.946000
vt -12.452000 -0.286000
vt -12.452000 0.000000
vt -12.452000 1.056000
vt -12.320000 -0.108900
vt -12.320000 0.000000
vt -12.320000 5.830000
vt -12.320000 5.984000
vt -12.320000 12.760000
vt -12.320000 12.914000
vt -10.702999 -0.198000
vt -10.702999 0.000000
vt -10.702999 0.968000
vt -10.702999 1.144000
vt -10.702999 7.898000
vt -10.702999 8.074000
vt -10.527000 0.418000
vt -10.527000 0.517000
vt -10.527000 1.122000
vt -10.527000 4.576000
vt -10.527000 8.052000
vt -10.527000 11.506001
vt -10.406000 0.418000
vt -10.406000 0.517000
vt -10.406000 1.243000
vt -10.406000 4.455000
vt -10.406000 8.173000
vt -10.406000 11.384999
vt -9.295000 0.429000
vt -9.295000 0.495000
vt -9.295000 1.232000
vt -9.295000 4.466000
vt -9.295000 8.162000
vt -9.295000 11.396000
vt -9.185000 0.429000
vt -9.185000 0.495000
vt -9.185000 1.232000
vt -9.185000 4.466000
vt -9.185000 8.162000
vt -9.185000 11.396000
vt -8.074000 0.418000
vt -8.074000 0.517000
vt -8.074000 1.243000
vt -8.074000 4.455000
vt -8.074000 8.173000
vt -8.074000 11.384999
vt -7.953000 0.418000
vt -7.953000 0.517000
vt -7.953000 1.122000
vt -7.953000 4.576000
vt -7.953000 8.052000
vt -7.953000 11.506001
vt -7.777000 -0.198000
vt -7.777000 0.000000
vt -7.777000 0.968000
vt -7.777000 1.144000
vt -7.777000 7.898000
vt -7.777000 8.074000
vt -4.543000 -0.198000
vt -4.543000 0.000000
vt -4.543000 0.968000
vt -4.543000 1.144000
vt -4.543000 7.898000
vt -4.543000 8.074000
vt -4.367000 0.418000
vt -4.367000 0.517000
vt -4.367000 1.122000
vt -4.367000 4.576000
vt -4.367000 8.052000
vt -4.367000 11.506001
vt -4.246000 0.418000
vt -4.246000 0.517000
vt -4.246000 1.243000
vt -4.246000 4.455000
vt -4.246000 8.173000
vt -4.246000 11.384999
vt -3.135000 0.429000
vt -3.135000 0.495000
vt -3.135000 1.232000
vt -3.135000 4.466000
vt -3.135000 8.162000
vt -3.135000 11.396000
vt -3.025000 0.429000
vt -3.025000 0.495000
vt -3.025000 1.232000
vt -3.025000 4.466000
vt -3.025000 8.162000
vt -3.025000 11.396000
vt -1.914000 0.418000
vt -1.914000 0.517000
vt -1.914000 1.243000
vt -1.914000 4.455000
vt -1.914000 8.173000
vt -1.914000 11.384999
vt -1.793000 0.418000
vt -1.793000 0.517000
vt -1.793000 1.122000
vt -1.793000 4.576000
vt -1.793000 8.052000
vt -1.793000 11.506001
vt -1.617000 -0.198000
vt -1.617000 0.000000
vt -1.617000 0.968000
vt -1.617000 1.144000
vt -1.617000 7.898000
vt -1.617000 8.074000
vt -0.572000 18.875999
vt -0.572000 19.799999
vt -0.316800 -0.902000
vt -0.316800 4.796000
vt -0.286000 -0.946000
vt -0.286000 1.056000
vt -0.198000 0.968000
vt -0.198000 1.144000
vt -0.198000 7.898000
vt -0.198000 8.074000
vt -0.108900 5.830000
vt -0.108900 5.984000
vt -0.108900 12.760000
vt -0.108900 12.914000
vt 0.000000 -0.946000
vt 0.000000 -0.902000
vt 0.000000 0.968000
vt 0.000000 1.056000
vt 0.000000 1.144000
vt 0.000000 4.796000
vt 0.000000 5.830000
vt 0.000000 5.984000
vt 0.000000 7.898000
vt 0.000000 8.074000
vt 0.000000 12.760000
vt 0.000000 12.914000
vt 0.000000 18.875999
vt 0.000000 19.799999
vt 0.418000 -0.924000
vt 0.418000 -0.803000
vt 0.418000 1.122000
vt 0.418000 1.243000
vt 0.418000 4.345000
vt 0.418000 4.455000
vt 0.418000 4.466000
vt 0.418000 4.576000
vt 0.418000 8.052000
vt 0.418000 8.173000
vt 0.418000 11.384999
vt 0.418000 11.506001
vt 0.429000 1.232000
vt 0.429000 4.466000
vt 0.429000 8.162000
vt 0.429000 11.396000
vt 0.495000 1.232000
vt 0.495000 4.466000
vt 0.495000 8.162000
vt 0.495000 11.396000
vt 0.517000 -0.924000
vt 0.517000 -0.803000
vt 0.517000 1.122000
vt 0.517000 1.243000
vt 0.517000 4.345000
vt 0.517000 4.455000
vt 0.517000 4.466000
vt 0.517000 4.576000
vt 0.517000 8.052000
vt 0.517000 8.173000
vt 0.517000 11.384999
vt 0.517000 11.506001
vt 1.331000 -0.902000
vt 1.331000 -0.316800
vt 1.331000 0.000000
vt 1.331000 4.796000
vt 1.573000 -0.924000
vt 1.573000 0.418000
vt 1.573000 0.517000
vt 1.573000 4.466000
vt 1.617000 -0.198000
vt 1.617000 0.000000
vt 1.617000 7.898000
vt 1.617000 8.074000
vt 1.694000 -0.803000
vt 1.694000 0.418000
vt 1.694000 0.517000
vt 1.694000 4.345000
vt 1.793000 0.418000
vt 1.793000 0.517000
vt 1.793000 8.052000
vt 1.793000 11.506001
vt 1.914000 0.418000
vt 1.914000 0.517000
vt 1.914000 8.173000
vt 1.914000 11.384999
vt 3.025000 0.429000
vt 3.025000 0.495000
vt 3.025000 8.162000
vt 3.025000 11.396000
vt 3.135000 0.429000
vt 3.135000 0.495000
vt 3.135000 8.162000
vt 3.135000 11.396000
vt 4.246000 0.418000
vt 4.246000 0.517000
vt 4.246000 8.173000
vt 4.246000 11.384999
vt 4.367000 0.418000
vt 4.367000 0.517000
vt 4.367000 8.052000
vt 4.367000 11.506001
vt 4.466000 -0.803000
vt 4.466000 0.418000
vt 4.466000 0.517000
vt 4.466000 4.345000
vt 4.543000 -0.198000
vt 4.543000 0.000000
vt 4.543000 7.898000
vt 4.543000 8.074000
vt 4.587000 -0.924000
vt 4.587000 0.418000
vt 4.587000 0.517000
vt 4.587000 4.466000
vt 4.829000 -0.902000
vt 4.829000 -0.316800
vt 4.829000 0.000000
vt 4.829000 4.796000
vt 7.777000 -0.198000
vt 7.777000 0.000000
vt 7.777000 0.968000
vt 7.777000 1.144000
vt 7.777000 7.898000
vt 7.777000 8.074000
vt 7.953000 0.418000
vt 7.953000 0.517000
vt 7.953000 1.122000
vt 7.953000 4.576000
vt 7.953000 8.052000
vt 7.953000 11.506001
vt 8.074000 0.418000
vt 8.074000 0.517000
vt 8.074000 1.243000
vt 8.074000 4.455000
vt 8.074000 8.173000
vt 8.074000 11.384999
vt 9.185000 0.429000
vt 9.185000 0.495000
vt 9.185000 1.232000
vt 9.185000 4.466000
vt 9.185000 8.162000
vt 9.185000 11.396000
vt 9.295000 0.429000
vt 9.295000 0.495000
vt 9.295000 1.232000
vt 9.295000 4.466000
vt 9.295000 8.162000
vt 9.295000 11.396000
vt 10.406000 0.418000
vt 10.406000 0.517000
vt 10.406000 1.243000
vt 10.406000 4.455000
vt 10.406000 8.173000
vt 10.406000 11.384999
vt 10.527000 0.418000
vt 10.527000 0.517000
vt 10.527000 1.122000
vt 10.527000 4.576000
vt 10.527000 8.052000
vt 10.527000 11.506001
vt 10.702999 -0.198000
vt 10.702999 0.000000
vt 10.702999 0.968000
vt 10.702999 1.144000
vt 10.702999 7.898000
vt 10.702999 8.074000
vt 12.320000 -0.108900
vt 12.320000 0.000000
vt 12.320000 5.830000
vt 12.320000 5.984000
vt 12.320000 12.760000
vt 12.320000 12.914000
vt 12.452000 -0.946000
vt 12.452000 -0.286000
vt 12.452000 0.000000
vt 12.452000 1.056000
vt 12.540000 -0.572000
vt 12.540000 0.000000
vt 12.540000 18.875999
vt 12.540000 19.799999
vn -1.000000 0.000000 0.000000
vn 0.000000 -1.000000 0.000000
vn 0.000000 0.000000 -1.000000
vn 0.000000 0.000000 1.000000
vn 0.000000 1.000000 0.000000
vn 1.000000 0.000000 0.000000
usemtl TrimStone
f 1/2/2 277/286/2 2/1/2
f 1/3/3 3/4/3 279/288/3
f 1/3/3 279/288/3 277/287/3
f 1/137/1 2/111/1 3/138/1
f 2/1/2 277/286/2 278/285/2
f 2/3/4 278/287/4 280/288/4
f 2/3/4 280/288/4 4/4/4
f 2/111/1 4/112/1 3/138/1
f 3/2/5 4/1/5 279/286/5
f 4/1/5 280/285/5 279/286/5
f 5/5/3 7/8/3 275/284/3
f 5/5/3 275/284/3 273/281/3
f 5/7/2 273/283/2 6/6/2
f 5/125/1 6/115/1 7/128/1
f 6/5/4 274/281/4 276/284/4
f 6/5/4 276/284/4 8/8/4
f 6/6/2 273/283/2 274/282/2
f 6/115/1 8/116/1 7/128/1
f 7/7/5 8/6/5 275/283/5
f 8/6/5 276/282/5 275/283/5
f 9/10/2 265/276/2 10/9/2
f 9/11/3 11/12/3 267/278/3
f 9/11/3 267/278/3 265/277/3
f 9/131/1 10/121/1 11/132/1
f 10/9/2 265/276/2 266/275/2
f 10/11/4 266/277/4 268/278/4
f 10/11/4 268/278/4 12/12/4
f 10/121/1 12/122/1 11/132/1
f 11/10/5 12/9/5 267/276/5
f 12/9/5 268/275/5 267/276/5
f 13/10/2 269/276/2 14/9/2
f 13/13/3 15/14/3 271/280/3
f 13/13/3 271/280/3 269/279/3
f 13/135/1 14/123/1 15/136/1
f 14/9/2 269/276/2 270/275/2
f 14/13/4 270/279/4 272/280/4
f 14/13/4 272/280/4 16/14/4
f 14/123/1 16/124/1 15/136/1
f 15/10/5 16/9/5 271/276/5
f 16/9/5 272/275/5 271/276/5
f 17/16/2 73/58/2 18/15/2
f 17/17/3 19/18/3 75/60/3
f 17/17/3 75/60/3 73/59/3
f 17/127/1 18/117/1 19/129/1
f 18/15/2 73/58/2 74/57/2
f 18/17/4 74/59/4 76/60/4
f 18/17/4 76/60/4 20/18/4
f 18/117/1 20/118/1 19/129/1
f 19/16/5 20/15/5 75/58/5
f 20/15/5 76/57/5 75/58/5
f 21/16/2 77/58/2 22/15/2
f 21/19/3 23/20/3 79/62/3
f 21/19/3 79/62/3 77/61/3
f 21/133/1 22/119/1 23/134/1
f 22/15/2 77/58/2 78/57/2
f 22/19/4 78/61/4 80/62/4
f 22/19/4 80/62/4 24/20/4
f 22/119/1 24/120/1 23/134/1
f 23/16/5 24/15/5 79/58/5
f 24/15/5 80/57/5 79/58/5
f 25/22/2 65/52/2 26/21/2
f 25/23/3 27/24/3 33/29/3
f 25/23/3 33/29/3 65/53/3
f 25/161/1 26/141/1 28/146/1
f 25/161/1 28/146/1 27/166/1
f 26/21/2 65/52/2 66/51/2
f 26/23/4 34/29/4 28/24/4
f 26/23/4 66/53/4 34/29/4
f 27/22/5 28/21/5 68/51/5
f 27/22/5 68/51/5 67/52/5
f 27/24/3 35/30/3 33/29/3
f 27/24/3 67/54/3 35/30/3
f 28/24/4 34/29/4 36/30/4
f 28/24/4 36/30/4 68/54/4
f 29/22/2 69/52/2 30/21/2
f 29/25/3 31/26/3 39/32/3
f 29/25/3 37/31/3 69/55/3
f 29/25/3 39/32/3 37/31/3
f 29/167/1 30/147/1 32/150/1
f 29/167/1 32/150/1 31/170/1
f 30/21/2 69/52/2 70/51/2
f 30/25/4 38/31/4 40/32/4
f 30/25/4 40/32/4 32/26/4
f 30/25/4 70/55/4 38/31/4
f 31/22/5 32/21/5 72/51/5
f 31/22/5 72/51/5 71/52/5
f 31/26/3 71/56/3 39/32/3
f 32/26/4 40/32/4 72/56/4
f 33/28/5 34/27/5 57/46/5
f 33/29/3 57/47/3 65/53/3
f 33/162/6 35/164/6 36/144/6
f 33/162/6 36/144/6 34/142/6
f 34/27/5 58/45/5 57/46/5
f 34/29/4 66/53/4 58/47/4
f 35/28/2 59/46/2 60/45/2
f 35/28/2 60/45/2 36/27/2
f 35/30/3 67/54/3 59/48/3
f 36/30/4 60/48/4 68/54/4
f 37/28/5 38/27/5 61/46/5
f 37/31/3 61/49/3 69/55/3
f 37/168/6 39/169/6 40/149/6
f 37/168/6 40/149/6 38/148/6
f 38/27/5 62/45/5 61/46/5
f 38/31/4 70/55/4 62/49/4
f 39/28/2 63/46/2 64/45/2
f 39/28/2 64/45/2 40/27/2
f 39/32/3 71/56/3 63/50/3
f 40/32/4 64/50/4 72/56/4
f 41/34/2 49/40/2 42/33/2
f 41/35/3 43/36/3 51/42/3
f 41/35/3 51/42/3 49/41/3
f 41/155/1 42/151/1 43/156/1
f 42/33/2 49/40/2 50/39/2
f 42/35/4 50/41/4 52/42/4
f 42/35/4 52/42/4 44/36/4
f 42/151/1 44/152/1 43/156/1
f 43/34/5 44/33/5 51/40/5
f 44/33/5 52/39/5 51/40/5
f 45/34/2 53/40/2 46/33/2
f 45/37/3 47/38/3 55/44/3
f 45/37/3 55/44/3 53/43/3
f 45/157/1 46/153/1 47/158/1
f 46/33/2 53/40/2 54/39/2
f 46/37/4 54/43/4 56/44/4
f 46/37/4 56/44/4 48/38/4
f 46/153/1 48/154/1 47/158/1
f 47/34/5 48/33/5 55/40/5
f 48/33/5 56/39/5 55/40/5
f 49/155/6 51/156/6 50/151/6
f 50/151/6 51/156/6 52/152/6
f 53/157/6 55/158/6 54/153/6
f 54/153/6 55/158/6 56/154/6
f 57/47/3 59/48/3 65/53/3
f 57/162/1 58/142/1 59/164/1
f 58/47/4 66/53/4 60/48/4
f 58/142/1 60/144/1 59/164/1
f 59/48/3 67/54/3 65/53/3
f 60/48/4 66/53/4 68/54/4
f 61/49/3 63/50/3 69/55/3
f 61/168/1 62/148/1 63/169/1
f 62/49/4 70/55/4 64/50/4
f 62/148/1 64/149/1 63/169/1
f 63/50/3 71/56/3 69/55/3
f 64/50/4 70/55/4 72/56/4
f 65/161/6 67/166/6 66/141/6
f 66/141/6 67/166/6 68/146/6
f 69/167/6 71/170/6 70/147/6
f 70/147/6 71/170/6 72/150/6
f 73/127/6 75/129/6 74/117/6
f 74/117/6 75/129/6 76/118/6
f 77/133/6 79/134/6 78/119/6
f 78/119/6 79/134/6 80/120/6
f 81/64/2 137/106/2 82/63/2
f 81/65/3 83/66/3 139/108/3
f 81/65/3 139/108/3 137/107/3
f 81/127/1 82/117/1 83/129/1
f 82/63/2 137/106/2 138/105/2
f 82/65/4 138/107/4 140/108/4
f 82/65/4 140/108/4 84/66/4
f 82/117/1 84/118/1 83/129/1
f 83/64/5 84/63/5 139/106/5
f 84/63/5 140/105/5 139/106/5
f 85/64/2 141/106/2 86/63/2
f 85/67/3 87/68/3 143/110/3
f 85/67/3 143/110/3 141/109/3
f 85/133/1 86/119/1 87/134/1
f 86/63/2 141/106/2 142/105/2
f 86/67/4 142/109/4 144/110/4
f 86/67/4 144/110/4 88/68/4
f 86/119/1 88/120/1 87/134/1
f 87/64/5 88/63/5 143/106/5
f 88/63/5 144/105/5 143/106/5
f 89/70/2 129/100/2 90/69/2
f 89/71/3 91/72/3 97/77/3
f 89/71/3 97/77/3 121/95/3
f 89/71/3 121/95/3 129/101/3
f 89/161/1 90/141/1 92/146/1
f 89/161/1 92/146/1 91/166/1
f 90/69/2 129/100/2 130/99/2
f 90/71/4 98/77/4 92/72/4
f 90/71/4 122/95/4 98/77/4
f 90/71/4 130/101/4 122/95/4
f 91/70/5 92/69/5 132/99/5
f 91/70/5 132/99/5 131/100/5
f 91/72/3 99/78/3 97/77/3
f 91/72/3 123/96/3 99/78/3
f 91/72/3 131/102/3 123/96/3
f 92/72/4 98/77/4 100/78/4
f 92/72/4 100/78/4 124/96/4
f 92/72/4 124/96/4 132/102/4
f 93/70/2 133/100/2 94/69/2
f 93/73/3 95/74/3 103/80/3
f 93/73/3 101/79/3 125/97/3
f 93/73/3 103/80/3 101/79/3
f 93/73/3 125/97/3 133/103/3
f 93/167/1 94/147/1 96/150/1
f 93/167/1 96/150/1 95/170/1
f 94/69/2 133/100/2 134/99/2
f 94/73/4 102/79/4 104/80/4
f 94/73/4 104/80/4 96/74/4
f 94/73/4 126/97/4 102/79/4
f 94/73/4 134/103/4 126/97/4
f 95/70/5 96/69/5 136/99/5
f 95/70/5 136/99/5 135/100/5
f 95/74/3 127/98/3 103/80/3
f 95/74/3 135/104/3 127/98/3
f 96/74/4 104/80/4 128/98/4
f 96/74/4 128/98/4 136/104/4
f 97/76/5 98/75/5 121/94/5
f 97/162/6 99/164/6 100/144/6
f 97/162/6 100/144/6 98/142/6
f 98/75/5 122/93/5 121/94/5
f 99/76/2 123/94/2 124/93/2
f 99/76/2 124/93/2 100/75/2
f 101/76/5 102/75/5 125/94/5
f 101/168/6 103/169/6 104/149/6
f 101/168/6 104/149/6 102/148/6
f 102/75/5 126/93/5 125/94/5
f 103/76/2 127/94/2 128/93/2
f 103/76/2 128/93/2 104/75/2
f 105/82/2 113/88/2 106/81/2
f 105/83/3 107/84/3 115/90/3
f 105/83/3 115/90/3 113/89/3
f 105/155/1 106/151/1 107/156/1
f 106/81/2 113/88/2 114/87/2
f 106/83/4 114/89/4 116/90/4
f 106/83/4 116/90/4 108/84/4
f 106/151/1 108/152/1 107/156/1
f 107/82/5 108/81/5 115/88/5
f 108/81/5 116/87/5 115/88/5
f 109/82/2 117/88/2 110/81/2
f 109/85/3 111/86/3 119/92/3
f 109/85/3 119/92/3 117/91/3
f 109/157/1 110/153/1 111/158/1
f 110/81/2 117/88/2 118/87/2
f 110/85/4 118/91/4 120/92/4
f 110/85/4 120/92/4 112/86/4
f 110/153/1 112/154/1 111/158/1
f 111/82/5 112/81/5 119/88/5
f 112/81/5 120/87/5 119/88/5
f 113/155/6 115/156/6 114/151/6
f 114/151/6 115/156/6 116/152/6
f 117/157/6 119/158/6 118/153/6
f 118/153/6 119/158/6 120/154/6
f 121/95/3 123/96/3 129/101/3
f 121/162/1 122/142/1 123/164/1
f 122/95/4 130/101/4 124/96/4
f 122/142/1 124/144/1 123/164/1
f 123/96/3 131/102/3 129/101/3
f 124/96/4 130/101/4 132/102/4
f 125/97/3 127/98/3 133/103/3
f 125/168/1 126/148/1 127/169/1
f 126/97/4 134/103/4 128/98/4
f 126/148/1 128/149/1 127/169/1
f 127/98/3 135/104/3 133/103/3
f 128/98/4 134/103/4 136/104/4
f 129/161/6 131/166/6 130/141/6
f 130/141/6 131/166/6 132/146/6
f 133/167/6 135/170/6 134/147/6
f 134/147/6 135/170/6 136/150/6
f 137/127/6 139/129/6 138/117/6
f 138/117/6 139/129/6 140/118/6
f 141/133/6 143/134/6 142/119/6
f 142/119/6 143/134/6 144/120/6
f 145/126/1 146/113/1 147/130/1
f 145/171/3 147/174/3 199/226/3
f 145/171/3 199/226/3 197/223/3
f 145/173/2 197/225/2 146/172/2
f 146/113/1 148/114/1 147/130/1
f 146/171/4 198/223/4 200/226/4
f 146/171/4 200/226/4 148/174/4
f 146/172/2 197/225/2 198/224/2
f 147/173/5 148/172/5 199/225/5
f 148/172/5 200/224/5 199/225/5
f 149/159/1 150/139/1 152/145/1
f 149/159/1 152/145/1 151/165/1
f 149/175/3 151/178/3 157/183/3
f 149/175/3 157/183/3 185/211/3
f 149/175/3 185/211/3 193/219/3
f 149/177/2 193/221/2 150/176/2
f 150/175/4 158/183/4 152/178/4
f 150/175/4 186/211/4 158/183/4
f 150/175/4 194/219/4 186/211/4
f 150/176/2 193/221/2 194/220/2
f 151/177/5 152/176/5 196/220/5
f 151/177/5 196/220/5 195/221/5
f 151/178/3 159/186/3 157/183/3
f 151/178/3 195/222/3 159/186/3
f 152/178/4 158/183/4 160/186/4
f 152/178/4 160/186/4 196/222/4
f 153/133/1 154/119/1 155/134/1
f 153/180/2 189/216/2 154/179/2
f 153/181/3 155/182/3 191/218/3
f 153/181/3 191/218/3 189/217/3
f 154/119/1 156/120/1 155/134/1
f 154/179/2 189/216/2 190/215/2
f 154/181/4 190/217/4 192/218/4
f 154/181/4 192/218/4 156/182/4
f 155/180/5 156/179/5 191/216/5
f 156/179/5 192/215/5 191/216/5
f 157/160/6 159/163/6 160/143/6
f 157/160/6 160/143/6 158/140/6
f 157/185/5 158/184/5 185/213/5
f 158/184/5 186/212/5 185/213/5
f 159/185/2 187/213/2 188/212/2
f 159/185/2 188/212/2 160/184/2
f 159/186/3 195/222/3 187/214/3
f 160/186/4 188/214/4 196/222/4
f 161/167/1 162/147/1 164/150/1
f 161/167/1 164/150/1 163/170/1
f 161/188/2 181/208/2 162/187/2
f 161/189/3 163/190/3 167/194/3
f 161/189/3 165/193/3 181/209/3
f 161/189/3 167/194/3 165/193/3
f 162/187/2 181/208/2 182/207/2
f 162/189/4 166/193/4 168/194/4
f 162/189/4 168/194/4 164/190/4
f 162/189/4 182/209/4 166/193/4
f 163/188/5 164/187/5 184/207/5
f 163/188/5 184/207/5 183/208/5
f 163/190/3 183/210/3 167/194/3
f 164/190/4 168/194/4 184/210/4
f 165/168/6 167/169/6 168/149/6
f 165/168/6 168/149/6 166/148/6
f 165/192/5 166/191/5 177/204/5
f 165/193/3 177/205/3 181/209/3
f 166/191/5 178/203/5 177/204/5
f 166/193/4 182/209/4 178/205/4
f 167/192/2 179/204/2 180/203/2
f 167/192/2 180/203/2 168/191/2
f 167/194/3 183/210/3 179/206/3
f 168/194/4 180/206/4 184/210/4
f 169/157/1 170/153/1 171/158/1
f 169/196/2 173/200/2 170/195/2
f 169/197/3 171/198/3 175/202/3
f 169/197/3 175/202/3 173/201/3
f 170/153/1 172/154/1 171/158/1
f 170/195/2 173/200/2 174/199/2
f 170/197/4 174/201/4 176/202/4
f 170/197/4 176/202/4 172/198/4
f 171/196/5 172/195/5 175/200/5
f 172/195/5 176/199/5 175/200/5
f 173/157/6 175/158/6 174/153/6
f 174/153/6 175/158/6 176/154/6
f 177/168/1 178/148/1 179/169/1
f 177/205/3 179/206/3 181/209/3
f 178/148/1 180/149/1 179/169/1
f 178/205/4 182/209/4 180/206/4
f 179/206/3 183/210/3 181/209/3
f 180/206/4 182/209/4 184/210/4
f 181/167/6 183/170/6 182/147/6
f 182/147/6 183/170/6 184/150/6
f 185/160/1 186/140/1 187/163/1
f 185/211/3 187/214/3 193/219/3
f 186/140/1 188/143/1 187/163/1
f 186/211/4 194/219/4 188/214/4
f 187/214/3 195/222/3 193/219/3
f 188/214/4 194/219/4 196/222/4
f 189/133/6 191/134/6 190/119/6
f 190/119/6 191/134/6 192/120/6
f 193/159/6 195/165/6 194/139/6
f 194/139/6 195/165/6 196/145/6
f 197/126/6 199/130/6 198/113/6
f 198/113/6 199/130/6 200/114/6
f 201/127/1 202/117/1 203/129/1
f 201/228/2 257/270/2 202/227/2
f 201/229/3 203/230/3 259/272/3
f 201/229/3 259/272/3 257/271/3
f 202/117/1 204/118/1 203/129/1
f 202/227/2 257/270/2 258/269/2
f 202/229/4 258/271/4 260/272/4
f 202/229/4 260/272/4 204/230/4
f 203/228/5 204/227/5 259/270/5
f 204/227/5 260/269/5 259/270/5
f 205/133/1 206/119/1 207/134/1
f 205/228/2 261/270/2 206/227/2
f 205/231/3 207/232/3 263/274/3
f 205/231/3 263/274/3 261/273/3
f 206/119/1 208/120/1 207/134/1
f 206/227/2 261/270/2 262/269/2
f 206/231/4 262/273/4 264/274/4
f 206/231/4 264/274/4 208/232/4
f 207/228/5 208/227/5 263/270/5
f 208/227/5 264/269/5 263/270/5
f 209/161/1 210/141/1 212/146/1
f 209/161/1 212/146/1 211/166/1
f 209/234/2 249/264/2 210/233/2
f 209/235/3 211/236/3 217/241/3
f 209/235/3 217/241/3 241/259/3
f 209/235/3 241/259/3 249/265/3
f 210/233/2 249/264/2 250/263/2
f 210/235/4 218/241/4 212/236/4
f 210/235/4 242/259/4 218/241/4
f 210/235/4 250/265/4 242/259/4
f 211/234/5 212/233/5 252/263/5
f 211/234/5 252/263/5 251/264/5
f 211/236/3 219/242/3 217/241/3
f 211/236/3 243/260/3 219/242/3
f 211/236/3 251/266/3 243/260/3
f 212/236/4 218/241/4 220/242/4
f 212/236/4 220/242/4 244/260/4
f 212/236/4 244/260/4 252/266/4
f 213/167/1 214/147/1 216/150/1
f 213/167/1 216/150/1 215/170/1
f 213/234/2 253/264/2 214/233/2
f 213/237/3 215/238/3 223/244/3
f 213/237/3 221/243/3 245/261/3
f 213/237/3 223/244/3 221/243/3
f 213/237/3 245/261/3 253/267/3
f 214/233/2 253/264/2 254/263/2
f 214/237/4 222/243/4 224/244/4
f 214/237/4 224/244/4 216/238/4
f 214/237/4 246/261/4 222/243/4
f 214/237/4 254/267/4 246/261/4
f 215/234/5 216/233/5 256/263/5
f 215/234/5 256/263/5 255/264/5
f 215/238/3 247/262/3 223/244/3
f 215/238/3 255/268/3 247/262/3
f 216/238/4 224/244/4 248/262/4
f 216/238/4 248/262/4 256/268/4
f 217/162/6 219/164/6 220/144/6
f 217/162/6 220/144/6 218/142/6
f 217/240/5 218/239/5 241/258/5
f 218/239/5 242/257/5 241/258/5
f 219/240/2 243/258/2 244/257/2
f 219/240/2 244/257/2 220/239/2
f 221/168/6 223/169/6 224/149/6
f 221/168/6 224/149/6 222/148/6
f 221/240/5 222/239/5 245/258/5
f 222/239/5 246/257/5 245/258/5
f 223/240/2 247/258/2 248/257/2
f 223/240/2 248/257/2 224/239/2
f 225/155/1 226/151/1 227/156/1
f 225/246/2 233/252/2 226/245/2
f 225/247/3 227/248/3 235/254/3
f 225/247/3 235/254/3 233/253/3
f 226/151/1 228/152/1 227/156/1
f 226/245/2 233/252/2 234/251/2
f 226/247/4 234/253/4 236/254/4
f 226/247/4 236/254/4 228/248/4
f 227/246/5 228/245/5 235/252/5
f 228/245/5 236/251/5 235/252/5
f 229/157/1 230/153/1 231/158/1
f 229/246/2 237/252/2 230/245/2
f 229/249/3 231/250/3 239/256/3
f 229/249/3 239/256/3 237/255/3
f 230/153/1 232/154/1 231/158/1
f 230/245/2 237/252/2 238/251/2
f 230/249/4 238/255/4 240/256/4
f 230/249/4 240/256/4 232/250/4
f 231/246/5 232/245/5 239/252/5
f 232/245/5 240/251/5 239/252/5
f 233/155/6 235/156/6 234/151/6
f 234/151/6 235/156/6 236/152/6
f 237/157/6 239/158/6 238/153/6
f 238/153/6 239/158/6 240/154/6
f 241/162/1 242/142/1 243/164/1
f 241/259/3 243/260/3 249/265/3
f 242/142/1 244/144/1 243/164/1
f 242/259/4 250/265/4 244/260/4
f 243/260/3 251/266/3 249/265/3
f 244/260/4 250/265/4 252/266/4
f 245/168/1 246/148/1 247/169/1
f 245/261/3 247/262/3 253/267/3
f 246/148/1 248/149/1 247/169/1
f 246/261/4 254/267/4 248/262/4
f 247/262/3 255/268/3 253/267/3
f 248/262/4 254/267/4 256/268/4
f 249/161/6 251/166/6 250/141/6
f 250/141/6 251/166/6 252/146/6
f 253/167/6 255/170/6 254/147/6
f 254/147/6 255/170/6 256/150/6
f 257/127/6 259/129/6 258/117/6
f 258/117/6 259/129/6 260/118/6
f 261/133/6 263/134/6 262/119/6
f 262/119/6 263/134/6 264/120/6
f 265/131/6 267/132/6 266/121/6
f 266/121/6 267/132/6 268/122/6
f 269/135/6 271/136/6 270/123/6
f 270/123/6 271/136/6 272/124/6
f 273/125/6 275/128/6 274/115/6
f 274/115/6 275/128/6 276/116/6
f 277/137/6 279/138/6 278/111/6
f 278/111/6 279/138/6 280/112/6
